<svg xmlns="http://www.w3.org/2000/svg" xmlns:xlink="http://www.w3.org/1999/xlink" width="1920" zoomAndPan="magnify" viewBox="0 0 1440 1619.99993" height="2160" preserveAspectRatio="xMidYMid meet" version="1.0"><defs><clipPath id="44851fadaa"><path d="M 0 206.171875 L 282 206.171875 L 282 655 L 0 655 Z M 0 206.171875 " clip-rule="nonzero"/></clipPath><clipPath id="69329139aa"><path d="M 56.90625 654.957031 C -66.550781 654.957031 -167.316406 554.1875 -167.316406 430.398438 C -167.316406 306.941406 -66.550781 206.171875 56.90625 206.171875 C 180.695312 206.171875 281.132812 306.941406 281.132812 430.398438 C 281.464844 554.1875 180.695312 654.957031 56.90625 654.957031 Z M 56.90625 329.628906 C 1.515625 329.628906 -43.859375 375.007812 -43.859375 430.398438 C -43.859375 485.785156 1.515625 531.164062 56.90625 531.164062 C 112.296875 531.164062 157.675781 485.785156 157.675781 430.398438 C 157.675781 375.007812 112.628906 329.628906 56.90625 329.628906 Z M 56.90625 329.628906 " clip-rule="nonzero"/></clipPath><clipPath id="ddb58cec18"><path d="M 1146.265625 581.867188 L 1440 581.867188 L 1440 1039 L 1146.265625 1039 Z M 1146.265625 581.867188 " clip-rule="nonzero"/></clipPath><clipPath id="a8f81b26e9"><path d="M 1374.226562 1038.132812 C 1248.714844 1038.132812 1146.265625 935.683594 1146.265625 809.832031 C 1146.265625 684.316406 1248.714844 581.867188 1374.226562 581.867188 C 1500.082031 581.867188 1602.191406 684.316406 1602.191406 809.832031 C 1602.53125 935.683594 1500.082031 1038.132812 1374.226562 1038.132812 Z M 1374.226562 707.382812 C 1317.914062 707.382812 1271.78125 753.519531 1271.78125 809.832031 C 1271.78125 866.140625 1317.914062 912.277344 1374.226562 912.277344 C 1430.539062 912.277344 1476.675781 866.140625 1476.675781 809.832031 C 1476.675781 753.519531 1430.878906 707.382812 1374.226562 707.382812 Z M 1374.226562 707.382812 " clip-rule="nonzero"/></clipPath><clipPath id="0935bc3602"><path d="M 0 841.144531 L 282 841.144531 L 282 1320 L 0 1320 Z M 0 841.144531 " clip-rule="nonzero"/></clipPath><clipPath id="ced48dc795"><path d="M 42.257812 1319.207031 C -89.253906 1319.207031 -196.597656 1211.863281 -196.597656 1080 C -196.597656 948.488281 -89.253906 841.144531 42.257812 841.144531 C 174.125 841.144531 281.109375 948.488281 281.109375 1080 C 281.464844 1211.863281 174.125 1319.207031 42.257812 1319.207031 Z M 42.257812 972.65625 C -16.746094 972.65625 -65.085938 1020.996094 -65.085938 1080 C -65.085938 1139 -16.746094 1187.339844 42.257812 1187.339844 C 101.257812 1187.339844 149.597656 1139 149.597656 1080 C 149.597656 1020.996094 101.613281 972.65625 42.257812 972.65625 Z M 42.257812 972.65625 " clip-rule="nonzero"/></clipPath><clipPath id="a1f26a75b5"><path d="M 1296 183.601562 L 1440 183.601562 L 1440 431 L 1296 431 Z M 1296 183.601562 " clip-rule="nonzero"/></clipPath><clipPath id="261e7ade02"><path d="M 1419.390625 430.566406 C 1351.453125 430.566406 1296 375.113281 1296 306.992188 C 1296 239.054688 1351.453125 183.601562 1419.390625 183.601562 C 1487.511719 183.601562 1542.78125 239.054688 1542.78125 306.992188 C 1542.964844 375.113281 1487.511719 430.566406 1419.390625 430.566406 Z M 1419.390625 251.539062 C 1388.910156 251.539062 1363.9375 276.511719 1363.9375 306.992188 C 1363.9375 337.472656 1388.910156 362.441406 1419.390625 362.441406 C 1449.871094 362.441406 1474.84375 337.472656 1474.84375 306.992188 C 1474.84375 276.511719 1450.054688 251.539062 1419.390625 251.539062 Z M 1419.390625 251.539062 " clip-rule="nonzero"/></clipPath><clipPath id="9eb31fafaf"><path d="M 0 0 L 1440 0 L 1440 69.570312 L 0 69.570312 Z M 0 0 " clip-rule="nonzero"/></clipPath><clipPath id="d5f65dc1b5"><path d="M 0 1505.394531 L 139 1505.394531 L 139 1620 L 0 1620 Z M 0 1505.394531 " clip-rule="nonzero"/></clipPath><clipPath id="84e3398122"><path d="M 57.011719 1668.84375 C 12.046875 1668.84375 -24.652344 1632.144531 -24.652344 1587.058594 C -24.652344 1542.097656 12.046875 1505.394531 57.011719 1505.394531 C 102.097656 1505.394531 138.675781 1542.097656 138.675781 1587.058594 C 138.796875 1632.144531 102.097656 1668.84375 57.011719 1668.84375 Z M 57.011719 1550.359375 C 36.839844 1550.359375 20.3125 1566.886719 20.3125 1587.058594 C 20.3125 1607.234375 36.839844 1623.761719 57.011719 1623.761719 C 77.183594 1623.761719 93.710938 1607.234375 93.710938 1587.058594 C 93.710938 1566.886719 77.308594 1550.359375 57.011719 1550.359375 Z M 57.011719 1550.359375 " clip-rule="nonzero"/></clipPath><clipPath id="6c3b47b9fe"><path d="M 1146.265625 1319.207031 L 1440 1319.207031 L 1440 1620 L 1146.265625 1620 Z M 1146.265625 1319.207031 " clip-rule="nonzero"/></clipPath><clipPath id="748ea12d4d"><path d="M 1385.117188 1797.265625 C 1253.605469 1797.265625 1146.265625 1689.925781 1146.265625 1558.058594 C 1146.265625 1426.546875 1253.605469 1319.207031 1385.117188 1319.207031 C 1516.984375 1319.207031 1623.972656 1426.546875 1623.972656 1558.058594 C 1624.328125 1689.925781 1516.984375 1797.265625 1385.117188 1797.265625 Z M 1385.117188 1450.71875 C 1326.117188 1450.71875 1277.777344 1499.058594 1277.777344 1558.058594 C 1277.777344 1617.0625 1326.117188 1665.402344 1385.117188 1665.402344 C 1444.121094 1665.402344 1492.460938 1617.0625 1492.460938 1558.058594 C 1492.460938 1499.058594 1444.476562 1450.71875 1385.117188 1450.71875 Z M 1385.117188 1450.71875 " clip-rule="nonzero"/></clipPath></defs><rect x="-144" width="1728" fill="#ffffff" y="-161.999993" height="1943.999916" fill-opacity="1"/><rect x="-144" width="1728" fill="#ffffff" y="-161.999993" height="1943.999916" fill-opacity="1"/><rect x="-144" width="1728" fill="#000000" y="-161.999993" height="1943.999916" fill-opacity="1"/><g clip-path="url(#44851fadaa)"><g clip-path="url(#69329139aa)"><path fill="#68faf0" d="M -167.316406 206.171875 L 283.132812 206.171875 L 283.132812 656.625 L -167.316406 656.625 Z M -167.316406 206.171875 " fill-opacity="1" fill-rule="nonzero"/></g></g><g clip-path="url(#ddb58cec18)"><g clip-path="url(#a8f81b26e9)"><path fill="#68faf0" d="M 1146.265625 581.867188 L 1604.226562 581.867188 L 1604.226562 1039.828125 L 1146.265625 1039.828125 Z M 1146.265625 581.867188 " fill-opacity="1" fill-rule="nonzero"/></g></g><g clip-path="url(#0935bc3602)"><g clip-path="url(#ced48dc795)"><path fill="#49a3a0" d="M -196.597656 841.144531 L 283.242188 841.144531 L 283.242188 1320.984375 L -196.597656 1320.984375 Z M -196.597656 841.144531 " fill-opacity="1" fill-rule="nonzero"/></g></g><g clip-path="url(#a1f26a75b5)"><g clip-path="url(#261e7ade02)"><path fill="#49a3a0" d="M 1296 183.601562 L 1543.882812 183.601562 L 1543.882812 431.484375 L 1296 431.484375 Z M 1296 183.601562 " fill-opacity="1" fill-rule="nonzero"/></g></g><g clip-path="url(#9eb31fafaf)"><path fill="#5e666a" d="M -6.355469 -288 L 1546.144531 -288 L 1546.144531 69.75 L -6.355469 69.75 Z M -6.355469 -288 " fill-opacity="1" fill-rule="nonzero"/></g><g clip-path="url(#d5f65dc1b5)"><g clip-path="url(#84e3398122)"><path fill="#68faf0" d="M -24.652344 1505.394531 L 139.40625 1505.394531 L 139.40625 1669.453125 L -24.652344 1669.453125 Z M -24.652344 1505.394531 " fill-opacity="1" fill-rule="nonzero"/></g></g><g clip-path="url(#6c3b47b9fe)"><g clip-path="url(#748ea12d4d)"><path fill="#49a3a0" d="M 1146.265625 1319.207031 L 1626.105469 1319.207031 L 1626.105469 1799.042969 L 1146.265625 1799.042969 Z M 1146.265625 1319.207031 " fill-opacity="1" fill-rule="nonzero"/></g></g></svg>