<svg xmlns="http://www.w3.org/2000/svg" xmlns:xlink="http://www.w3.org/1999/xlink" width="1920" zoomAndPan="magnify" viewBox="0 0 1440 809.999993" height="1080" preserveAspectRatio="xMidYMid meet" version="1.0"><defs><clipPath id="6f80c3e618"><path d="M 0 0 L 859 0 L 859 134.980469 L 0 134.980469 Z M 0 0 " clip-rule="nonzero"/></clipPath><clipPath id="b90154af18"><path d="M 602.085938 -110.464844 L 152.535156 -110.464844 L 118.820312 -110.171875 L -138.800781 134.636719 L 603.449219 134.636719 L 858.800781 -110.464844 L 602.085938 -110.464844 " clip-rule="nonzero"/></clipPath><clipPath id="901f934984"><path d="M 488.816406 233.578125 L 565 233.578125 L 565 309.824219 L 488.816406 309.824219 Z M 488.816406 233.578125 " clip-rule="nonzero"/></clipPath><clipPath id="be48eaa858"><path d="M 526.769531 309.542969 C 505.871094 309.542969 488.816406 292.484375 488.816406 271.53125 C 488.816406 250.636719 505.871094 233.578125 526.769531 233.578125 C 547.722656 233.578125 564.722656 250.636719 564.722656 271.53125 C 564.777344 292.484375 547.722656 309.542969 526.769531 309.542969 Z M 526.769531 254.476562 C 517.394531 254.476562 509.710938 262.15625 509.710938 271.53125 C 509.710938 280.90625 517.394531 288.589844 526.769531 288.589844 C 536.144531 288.589844 543.824219 280.90625 543.824219 271.53125 C 543.824219 262.15625 536.199219 254.476562 526.769531 254.476562 Z M 526.769531 254.476562 " clip-rule="nonzero"/></clipPath><clipPath id="3ee0c7c62c"><path d="M 135.609375 220.835938 L 585 220.835938 L 585 670 L 135.609375 670 Z M 135.609375 220.835938 " clip-rule="nonzero"/></clipPath><clipPath id="c7805ba278"><path d="M 359.832031 669.621094 C 236.375 669.621094 135.609375 568.851562 135.609375 445.0625 C 135.609375 321.605469 236.375 220.835938 359.832031 220.835938 C 483.625 220.835938 584.058594 321.605469 584.058594 445.0625 C 584.390625 568.851562 483.625 669.621094 359.832031 669.621094 Z M 359.832031 344.292969 C 304.445312 344.292969 259.066406 389.671875 259.066406 445.0625 C 259.066406 500.449219 304.445312 545.828125 359.832031 545.828125 C 415.222656 545.828125 460.601562 500.449219 460.601562 445.0625 C 460.601562 389.671875 415.554688 344.292969 359.832031 344.292969 Z M 359.832031 344.292969 " clip-rule="nonzero"/></clipPath><clipPath id="4cd4bfdade"><path d="M 1314.714844 651.949219 L 1440 651.949219 L 1440 810 L 1314.714844 810 Z M 1314.714844 651.949219 " clip-rule="nonzero"/></clipPath><clipPath id="18ef94401c"><path d="M 1450.820312 924.367188 C 1375.882812 924.367188 1314.714844 863.199219 1314.714844 788.058594 C 1314.714844 713.117188 1375.882812 651.949219 1450.820312 651.949219 C 1525.964844 651.949219 1586.929688 713.117188 1586.929688 788.058594 C 1587.132812 863.199219 1525.964844 924.367188 1450.820312 924.367188 Z M 1450.820312 726.890625 C 1417.199219 726.890625 1389.652344 754.433594 1389.652344 788.058594 C 1389.652344 821.679688 1417.199219 849.222656 1450.820312 849.222656 C 1484.441406 849.222656 1511.988281 821.679688 1511.988281 788.058594 C 1511.988281 754.433594 1484.644531 726.890625 1450.820312 726.890625 Z M 1450.820312 726.890625 " clip-rule="nonzero"/></clipPath><clipPath id="397951b27d"><path d="M 26.324219 500.867188 L 281 500.867188 L 281 755.972656 L 26.324219 755.972656 Z M 26.324219 500.867188 " clip-rule="nonzero"/></clipPath><clipPath id="44070cc5e6"><path d="M 153.308594 755.027344 C 83.390625 755.027344 26.324219 697.960938 26.324219 627.851562 C 26.324219 557.9375 83.390625 500.867188 153.308594 500.867188 C 223.414062 500.867188 280.292969 557.9375 280.292969 627.851562 C 280.480469 697.960938 223.414062 755.027344 153.308594 755.027344 Z M 153.308594 570.785156 C 121.9375 570.785156 96.238281 596.484375 96.238281 627.851562 C 96.238281 659.222656 121.9375 684.921875 153.308594 684.921875 C 184.675781 684.921875 210.375 659.222656 210.375 627.851562 C 210.375 596.484375 184.863281 570.785156 153.308594 570.785156 Z M 153.308594 570.785156 " clip-rule="nonzero"/></clipPath></defs><rect x="-144" width="1728" fill="#ffffff" y="-80.999999" height="971.999992" fill-opacity="1"/><rect x="-144" width="1728" fill="#ffffff" y="-80.999999" height="971.999992" fill-opacity="1"/><rect x="-144" width="1728" fill="#000000" y="-80.999999" height="971.999992" fill-opacity="1"/><g clip-path="url(#6f80c3e618)"><g clip-path="url(#b90154af18)"><path fill="#5e666a" d="M -138.800781 -110.464844 L 858.597656 -110.464844 L 858.597656 134.492188 L -138.800781 134.492188 Z M -138.800781 -110.464844 " fill-opacity="1" fill-rule="nonzero"/></g></g><g clip-path="url(#901f934984)"><g clip-path="url(#be48eaa858)"><path fill="#49a3a0" d="M 488.816406 233.578125 L 565.0625 233.578125 L 565.0625 309.824219 L 488.816406 309.824219 Z M 488.816406 233.578125 " fill-opacity="1" fill-rule="nonzero"/></g></g><g clip-path="url(#3ee0c7c62c)"><g clip-path="url(#c7805ba278)"><path fill="#68faf0" d="M 135.609375 220.835938 L 586.058594 220.835938 L 586.058594 671.289062 L 135.609375 671.289062 Z M 135.609375 220.835938 " fill-opacity="1" fill-rule="nonzero"/></g></g><g clip-path="url(#4cd4bfdade)"><g clip-path="url(#18ef94401c)"><path fill="#68faf0" d="M 1314.714844 651.949219 L 1588.144531 651.949219 L 1588.144531 925.378906 L 1314.714844 925.378906 Z M 1314.714844 651.949219 " fill-opacity="1" fill-rule="nonzero"/></g></g><g clip-path="url(#397951b27d)"><g clip-path="url(#44070cc5e6)"><path fill="#49a3a0" d="M 26.324219 500.867188 L 281.425781 500.867188 L 281.425781 755.972656 L 26.324219 755.972656 Z M 26.324219 500.867188 " fill-opacity="1" fill-rule="nonzero"/></g></g></svg>