<svg xmlns="http://www.w3.org/2000/svg" xmlns:xlink="http://www.w3.org/1999/xlink" width="1920" zoomAndPan="magnify" viewBox="0 0 1440 809.999993" height="1080" preserveAspectRatio="xMidYMid meet" version="1.0"><defs><clipPath id="072c002570"><path d="M 0 0 L 848 0 L 848 81 L 0 81 Z M 0 0 " clip-rule="nonzero"/></clipPath><clipPath id="7ce73c0fe9"><path d="M 591.164062 -164.105469 L 141.613281 -164.105469 L 107.898438 -163.8125 L -149.722656 81 L 592.527344 81 L 847.878906 -164.105469 L 591.164062 -164.105469 " clip-rule="nonzero"/></clipPath><clipPath id="4874a972c4"><path d="M 548.0625 174.890625 L 630.757812 174.890625 L 630.757812 257.589844 L 548.0625 257.589844 Z M 548.0625 174.890625 " clip-rule="nonzero"/></clipPath><clipPath id="1537c89d0e"><path d="M 589.226562 257.28125 C 566.5625 257.28125 548.0625 238.78125 548.0625 216.054688 C 548.0625 193.390625 566.5625 174.890625 589.226562 174.890625 C 611.953125 174.890625 630.390625 193.390625 630.390625 216.054688 C 630.453125 238.78125 611.953125 257.28125 589.226562 257.28125 Z M 589.226562 197.554688 C 579.058594 197.554688 570.726562 205.886719 570.726562 216.054688 C 570.726562 226.222656 579.058594 234.554688 589.226562 234.554688 C 599.394531 234.554688 607.726562 226.222656 607.726562 216.054688 C 607.726562 205.886719 599.457031 197.554688 589.226562 197.554688 Z M 589.226562 197.554688 " clip-rule="nonzero"/></clipPath><clipPath id="c0eb7d5763"><path d="M 164.964844 161.070312 L 652 161.070312 L 652 648 L 164.964844 648 Z M 164.964844 161.070312 " clip-rule="nonzero"/></clipPath><clipPath id="35bbb5d556"><path d="M 408.164062 647.832031 C 274.261719 647.832031 164.964844 538.535156 164.964844 404.269531 C 164.964844 270.367188 274.261719 161.070312 408.164062 161.070312 C 542.429688 161.070312 651.363281 270.367188 651.363281 404.269531 C 651.726562 538.535156 542.429688 647.832031 408.164062 647.832031 Z M 408.164062 294.976562 C 348.089844 294.976562 298.871094 344.195312 298.871094 404.269531 C 298.871094 464.34375 348.089844 513.566406 408.164062 513.566406 C 468.242188 513.566406 517.460938 464.34375 517.460938 404.269531 C 517.460938 344.195312 468.601562 294.976562 408.164062 294.976562 Z M 408.164062 294.976562 " clip-rule="nonzero"/></clipPath><clipPath id="acbc36ab8d"><path d="M 1314.714844 651.949219 L 1440 651.949219 L 1440 810 L 1314.714844 810 Z M 1314.714844 651.949219 " clip-rule="nonzero"/></clipPath><clipPath id="34327d802d"><path d="M 1450.820312 924.367188 C 1375.882812 924.367188 1314.714844 863.199219 1314.714844 788.058594 C 1314.714844 713.117188 1375.882812 651.949219 1450.820312 651.949219 C 1525.964844 651.949219 1586.929688 713.117188 1586.929688 788.058594 C 1587.132812 863.199219 1525.964844 924.367188 1450.820312 924.367188 Z M 1450.820312 726.890625 C 1417.199219 726.890625 1389.652344 754.433594 1389.652344 788.058594 C 1389.652344 821.679688 1417.199219 849.222656 1450.820312 849.222656 C 1484.441406 849.222656 1511.988281 821.679688 1511.988281 788.058594 C 1511.988281 754.433594 1484.644531 726.890625 1450.820312 726.890625 Z M 1450.820312 726.890625 " clip-rule="nonzero"/></clipPath><clipPath id="2ef1244244"><path d="M 46.429688 464.796875 L 322 464.796875 L 322 741 L 46.429688 741 Z M 46.429688 464.796875 " clip-rule="nonzero"/></clipPath><clipPath id="affb8058d8"><path d="M 184.160156 740.464844 C 108.328125 740.464844 46.429688 678.566406 46.429688 602.527344 C 46.429688 526.695312 108.328125 464.796875 184.160156 464.796875 C 260.199219 464.796875 321.890625 526.695312 321.890625 602.527344 C 322.097656 678.566406 260.199219 740.464844 184.160156 740.464844 Z M 184.160156 540.632812 C 150.140625 540.632812 122.265625 568.507812 122.265625 602.527344 C 122.265625 636.550781 150.140625 664.425781 184.160156 664.425781 C 218.183594 664.425781 246.058594 636.550781 246.058594 602.527344 C 246.058594 568.507812 218.390625 540.632812 184.160156 540.632812 Z M 184.160156 540.632812 " clip-rule="nonzero"/></clipPath></defs><rect x="-144" width="1728" fill="#ffffff" y="-80.999999" height="971.999992" fill-opacity="1"/><rect x="-144" width="1728" fill="#ffffff" y="-80.999999" height="971.999992" fill-opacity="1"/><rect x="-144" width="1728" fill="#000000" y="-80.999999" height="971.999992" fill-opacity="1"/><g clip-path="url(#072c002570)"><g clip-path="url(#7ce73c0fe9)"><path fill="#5e666a" d="M -149.722656 -164.105469 L 847.679688 -164.105469 L 847.679688 80.855469 L -149.722656 80.855469 Z M -149.722656 -164.105469 " fill-opacity="1" fill-rule="nonzero"/></g></g><g clip-path="url(#4874a972c4)"><g clip-path="url(#1537c89d0e)"><path fill="#49a3a0" d="M 548.0625 174.890625 L 630.757812 174.890625 L 630.757812 257.589844 L 548.0625 257.589844 Z M 548.0625 174.890625 " fill-opacity="1" fill-rule="nonzero"/></g></g><g clip-path="url(#c0eb7d5763)"><g clip-path="url(#35bbb5d556)"><path fill="#68faf0" d="M 164.964844 161.070312 L 653.535156 161.070312 L 653.535156 649.640625 L 164.964844 649.640625 Z M 164.964844 161.070312 " fill-opacity="1" fill-rule="nonzero"/></g></g><g clip-path="url(#acbc36ab8d)"><g clip-path="url(#34327d802d)"><path fill="#68faf0" d="M 1314.714844 651.949219 L 1588.144531 651.949219 L 1588.144531 925.378906 L 1314.714844 925.378906 Z M 1314.714844 651.949219 " fill-opacity="1" fill-rule="nonzero"/></g></g><g clip-path="url(#2ef1244244)"><g clip-path="url(#affb8058d8)"><path fill="#49a3a0" d="M 46.429688 464.796875 L 323.121094 464.796875 L 323.121094 741.488281 L 46.429688 741.488281 Z M 46.429688 464.796875 " fill-opacity="1" fill-rule="nonzero"/></g></g></svg>