<svg xmlns="http://www.w3.org/2000/svg" xmlns:xlink="http://www.w3.org/1999/xlink" width="1920" zoomAndPan="magnify" viewBox="0 0 1440 3239.999982" height="4320" preserveAspectRatio="xMidYMid meet" version="1.0"><defs><clipPath id="87ae2b072f"><path d="M 1296 495.375 L 1440 495.375 L 1440 945 L 1296 945 Z M 1296 495.375 " clip-rule="nonzero"/></clipPath><clipPath id="eb855ef7fc"><path d="M 1520.222656 944.15625 C 1396.765625 944.15625 1296 843.390625 1296 719.597656 C 1296 596.140625 1396.769531 495.375 1520.222656 495.375 C 1644.015625 495.375 1744.449219 596.140625 1744.449219 719.597656 C 1744.78125 843.390625 1644.015625 944.15625 1520.222656 944.15625 Z M 1520.222656 618.832031 C 1464.835938 618.832031 1419.457031 664.210938 1419.457031 719.597656 C 1419.457031 774.988281 1464.835938 820.367188 1520.222656 820.367188 C 1575.613281 820.367188 1620.992188 774.988281 1620.992188 719.597656 C 1620.992188 664.210938 1575.945312 618.832031 1520.222656 618.832031 Z M 1520.222656 618.832031 " clip-rule="nonzero"/></clipPath><clipPath id="ca60eccdf7"><path d="M 0 302.269531 L 217 302.269531 L 217 759 L 0 759 Z M 0 302.269531 " clip-rule="nonzero"/></clipPath><clipPath id="5966a9d88b"><path d="M -11.066406 758.53125 C -136.582031 758.53125 -239.03125 656.085938 -239.03125 530.230469 C -239.03125 404.714844 -136.582031 302.269531 -11.066406 302.269531 C 114.785156 302.269531 216.894531 404.714844 216.894531 530.230469 C 217.234375 656.085938 114.785156 758.53125 -11.066406 758.53125 Z M -11.066406 427.78125 C -67.378906 427.78125 -113.515625 473.917969 -113.515625 530.230469 C -113.515625 586.542969 -67.378906 632.675781 -11.066406 632.675781 C 45.242188 632.675781 91.378906 586.542969 91.378906 530.230469 C 91.378906 473.917969 45.582031 427.78125 -11.066406 427.78125 Z M -11.066406 427.78125 " clip-rule="nonzero"/></clipPath><clipPath id="6452172cfa"><path d="M 0 966.332031 L 144 966.332031 L 144 1445 L 0 1445 Z M 0 966.332031 " clip-rule="nonzero"/></clipPath><clipPath id="cf702037b2"><path d="M -95.207031 1444.394531 C -226.71875 1444.394531 -334.0625 1337.050781 -334.0625 1205.183594 C -334.0625 1073.671875 -226.71875 966.332031 -95.207031 966.332031 C 36.660156 966.332031 143.644531 1073.671875 143.644531 1205.183594 C 144 1337.050781 36.660156 1444.394531 -95.207031 1444.394531 Z M -95.207031 1097.84375 C -154.210938 1097.84375 -202.550781 1146.183594 -202.550781 1205.183594 C -202.550781 1264.1875 -154.210938 1312.527344 -95.207031 1312.527344 C -36.207031 1312.527344 12.132812 1264.1875 12.132812 1205.183594 C 12.132812 1146.183594 -35.851562 1097.84375 -95.207031 1097.84375 Z M -95.207031 1097.84375 " clip-rule="nonzero"/></clipPath><clipPath id="fd6f15e305"><path d="M 1296 55.304688 L 1440 55.304688 L 1440 303 L 1296 303 Z M 1296 55.304688 " clip-rule="nonzero"/></clipPath><clipPath id="43ed6a9911"><path d="M 1419.390625 302.269531 C 1351.453125 302.269531 1296 246.816406 1296 178.695312 C 1296 110.757812 1351.453125 55.304688 1419.390625 55.304688 C 1487.511719 55.304688 1542.78125 110.757812 1542.78125 178.695312 C 1542.964844 246.816406 1487.511719 302.269531 1419.390625 302.269531 Z M 1419.390625 123.242188 C 1388.910156 123.242188 1363.9375 148.214844 1363.9375 178.695312 C 1363.9375 209.175781 1388.910156 234.144531 1419.390625 234.144531 C 1449.871094 234.144531 1474.84375 209.175781 1474.84375 178.695312 C 1474.84375 148.214844 1450.054688 123.242188 1419.390625 123.242188 Z M 1419.390625 123.242188 " clip-rule="nonzero"/></clipPath><clipPath id="67e333c04d"><path d="M 0 0 L 1440 0 L 1440 178.785156 L 0 178.785156 Z M 0 0 " clip-rule="nonzero"/></clipPath><clipPath id="7d6c608336"><path d="M 0 2264.3125 L 158 2264.3125 L 158 2661 L 0 2661 Z M 0 2264.3125 " clip-rule="nonzero"/></clipPath><clipPath id="f68ef9c38a"><path d="M -40.898438 2660.871094 C -149.988281 2660.871094 -239.03125 2571.828125 -239.03125 2462.441406 C -239.03125 2353.351562 -149.988281 2264.3125 -40.898438 2264.3125 C 68.484375 2264.3125 157.230469 2353.351562 157.230469 2462.441406 C 157.527344 2571.828125 68.484375 2660.871094 -40.898438 2660.871094 Z M -40.898438 2373.402344 C -89.84375 2373.402344 -129.941406 2413.5 -129.941406 2462.441406 C -129.941406 2511.386719 -89.84375 2551.484375 -40.898438 2551.484375 C 8.042969 2551.484375 48.140625 2511.386719 48.140625 2462.441406 C 48.140625 2413.5 8.339844 2373.402344 -40.898438 2373.402344 Z M -40.898438 2373.402344 " clip-rule="nonzero"/></clipPath><clipPath id="da43e26759"><path d="M 1296 1964.042969 L 1440 1964.042969 L 1440 2281 L 1296 2281 Z M 1296 1964.042969 " clip-rule="nonzero"/></clipPath><clipPath id="c61f9d67eb"><path d="M 1454.203125 2280.6875 C 1367.097656 2280.6875 1296 2209.585938 1296 2122.246094 C 1296 2035.140625 1367.097656 1964.042969 1454.203125 1964.042969 C 1541.546875 1964.042969 1612.410156 2035.140625 1612.410156 2122.246094 C 1612.644531 2209.585938 1541.546875 2280.6875 1454.203125 2280.6875 Z M 1454.203125 2051.148438 C 1415.125 2051.148438 1383.105469 2083.164062 1383.105469 2122.246094 C 1383.105469 2161.324219 1415.125 2193.34375 1454.203125 2193.34375 C 1493.285156 2193.34375 1525.300781 2161.324219 1525.300781 2122.246094 C 1525.300781 2083.164062 1493.519531 2051.148438 1454.203125 2051.148438 Z M 1454.203125 2051.148438 " clip-rule="nonzero"/></clipPath><clipPath id="6abfaa3836"><path d="M 0 1677.5 L 144 1677.5 L 144 2084 L 0 2084 Z M 0 1677.5 " clip-rule="nonzero"/></clipPath><clipPath id="42af9f5805"><path d="M -58.917969 2083.035156 C -170.476562 2083.035156 -261.535156 1991.980469 -261.535156 1880.117188 C -261.535156 1768.558594 -170.476562 1677.5 -58.917969 1677.5 C 52.941406 1677.5 143.699219 1768.558594 143.699219 1880.117188 C 144 1991.980469 52.941406 2083.035156 -58.917969 2083.035156 Z M -58.917969 1789.0625 C -108.96875 1789.0625 -149.976562 1830.066406 -149.976562 1880.117188 C -149.976562 1930.167969 -108.96875 1971.175781 -58.917969 1971.175781 C -8.867188 1971.175781 32.136719 1930.167969 32.136719 1880.117188 C 32.136719 1830.066406 -8.566406 1789.0625 -58.917969 1789.0625 Z M -58.917969 1789.0625 " clip-rule="nonzero"/></clipPath><clipPath id="77b9ea2963"><path d="M 1261.160156 2159.046875 L 1440 2159.046875 L 1440 2565 L 1261.160156 2565 Z M 1261.160156 2159.046875 " clip-rule="nonzero"/></clipPath><clipPath id="4dcedcf579"><path d="M 1463.777344 2564.582031 C 1352.214844 2564.582031 1261.160156 2473.527344 1261.160156 2361.664062 C 1261.160156 2250.105469 1352.214844 2159.046875 1463.777344 2159.046875 C 1575.636719 2159.046875 1666.394531 2250.105469 1666.394531 2361.664062 C 1666.695312 2473.527344 1575.636719 2564.582031 1463.777344 2564.582031 Z M 1463.777344 2270.609375 C 1413.726562 2270.609375 1372.71875 2311.613281 1372.71875 2361.664062 C 1372.71875 2411.714844 1413.726562 2452.722656 1463.777344 2452.722656 C 1513.828125 2452.722656 1554.832031 2411.714844 1554.832031 2361.664062 C 1554.832031 2311.613281 1514.128906 2270.609375 1463.777344 2270.609375 Z M 1463.777344 2270.609375 " clip-rule="nonzero"/></clipPath><clipPath id="226c203fea"><path d="M 0 2372.414062 L 144 2372.414062 L 144 2950 L 0 2950 Z M 0 2372.414062 " clip-rule="nonzero"/></clipPath><clipPath id="148fcc8dbd"><path d="M -144.671875 2949.328125 C -303.375 2949.328125 -432.914062 2819.789062 -432.914062 2660.65625 C -432.914062 2501.949219 -303.375 2372.414062 -144.671875 2372.414062 C 14.460938 2372.414062 143.570312 2501.949219 143.570312 2660.65625 C 144 2819.789062 14.460938 2949.328125 -144.671875 2949.328125 Z M -144.671875 2531.117188 C -215.875 2531.117188 -274.207031 2589.453125 -274.207031 2660.65625 C -274.207031 2731.859375 -215.875 2790.191406 -144.671875 2790.191406 C -73.46875 2790.191406 -15.132812 2731.859375 -15.132812 2660.65625 C -15.132812 2589.453125 -73.039062 2531.117188 -144.671875 2531.117188 Z M -144.671875 2531.117188 " clip-rule="nonzero"/></clipPath><clipPath id="e1c49e5787"><path d="M 101.539062 3056.335938 L 469 3056.335938 L 469 3240 L 101.539062 3240 Z M 101.539062 3056.335938 " clip-rule="nonzero"/></clipPath><clipPath id="13f7b1eae9"><path d="M 285.070312 3423.667969 C 184.019531 3423.667969 101.539062 3341.1875 101.539062 3239.863281 C 101.539062 3138.8125 184.019531 3056.335938 285.070312 3056.335938 C 386.390625 3056.335938 468.597656 3138.8125 468.597656 3239.863281 C 468.871094 3341.1875 386.390625 3423.667969 285.070312 3423.667969 Z M 285.070312 3157.382812 C 239.730469 3157.382812 202.589844 3194.527344 202.589844 3239.863281 C 202.589844 3285.199219 239.730469 3322.34375 285.070312 3322.34375 C 330.40625 3322.34375 367.546875 3285.199219 367.546875 3239.863281 C 367.546875 3194.527344 330.675781 3157.382812 285.070312 3157.382812 Z M 285.070312 3157.382812 " clip-rule="nonzero"/></clipPath><clipPath id="f68915fba5"><path d="M 1032.707031 2723.425781 L 1440 2723.425781 L 1440 3240 L 1032.707031 3240 Z M 1032.707031 2723.425781 " clip-rule="nonzero"/></clipPath><clipPath id="cf0e1eda26"><path d="M 1439.695312 3538.015625 C 1215.609375 3538.015625 1032.707031 3355.113281 1032.707031 3130.417969 C 1032.707031 2906.332031 1215.609375 2723.425781 1439.695312 2723.425781 C 1664.390625 2723.425781 1846.6875 2906.332031 1846.6875 3130.417969 C 1847.292969 3355.113281 1664.390625 3538.015625 1439.695312 3538.015625 Z M 1439.695312 2947.515625 C 1339.160156 2947.515625 1256.792969 3029.882812 1256.792969 3130.417969 C 1256.792969 3230.957031 1339.160156 3313.324219 1439.695312 3313.324219 C 1540.234375 3313.324219 1622.601562 3230.957031 1622.601562 3130.417969 C 1622.601562 3029.882812 1540.839844 2947.515625 1439.695312 2947.515625 Z M 1439.695312 2947.515625 " clip-rule="nonzero"/></clipPath><clipPath id="5bb1194aa7"><path d="M 0 1333.972656 L 82 1333.972656 L 82 1498 L 0 1498 Z M 0 1333.972656 " clip-rule="nonzero"/></clipPath><clipPath id="2f9ef2a259"><path d="M -0.0625 1497.421875 C -45.023438 1497.421875 -81.722656 1460.71875 -81.722656 1415.636719 C -81.722656 1370.671875 -45.023438 1333.972656 -0.0625 1333.972656 C 45.023438 1333.972656 81.601562 1370.671875 81.601562 1415.636719 C 81.722656 1460.71875 45.023438 1497.421875 -0.0625 1497.421875 Z M -0.0625 1378.933594 C -20.234375 1378.933594 -36.761719 1395.460938 -36.761719 1415.636719 C -36.761719 1435.808594 -20.234375 1452.335938 -0.0625 1452.335938 C 20.113281 1452.335938 36.640625 1435.808594 36.640625 1415.636719 C 36.640625 1395.460938 20.234375 1378.933594 -0.0625 1378.933594 Z M -0.0625 1378.933594 " clip-rule="nonzero"/></clipPath><clipPath id="0ecfaa61f4"><path d="M 1261.160156 1120.5 L 1440 1120.5 L 1440 1438 L 1261.160156 1438 Z M 1261.160156 1120.5 " clip-rule="nonzero"/></clipPath><clipPath id="d7c222bbb5"><path d="M 1419.363281 1437.144531 C 1332.257812 1437.144531 1261.160156 1366.046875 1261.160156 1278.707031 C 1261.160156 1191.597656 1332.257812 1120.5 1419.363281 1120.5 C 1506.707031 1120.5 1577.570312 1191.597656 1577.570312 1278.707031 C 1577.804688 1366.046875 1506.707031 1437.144531 1419.363281 1437.144531 Z M 1419.363281 1207.609375 C 1380.285156 1207.609375 1348.265625 1239.625 1348.265625 1278.707031 C 1348.265625 1317.785156 1380.285156 1349.804688 1419.363281 1349.804688 C 1458.445312 1349.804688 1490.460938 1317.785156 1490.460938 1278.707031 C 1490.460938 1239.625 1458.679688 1207.609375 1419.363281 1207.609375 Z M 1419.363281 1207.609375 " clip-rule="nonzero"/></clipPath><clipPath id="44f94df781"><path d="M 1296 1472.367188 L 1440 1472.367188 L 1440 1711 L 1296 1711 Z M 1296 1472.367188 " clip-rule="nonzero"/></clipPath><clipPath id="95f7ef2264"><path d="M 1415.171875 1710.890625 C 1349.558594 1710.890625 1296 1657.332031 1296 1591.539062 C 1296 1525.925781 1349.558594 1472.367188 1415.171875 1472.367188 C 1480.964844 1472.367188 1534.347656 1525.925781 1534.347656 1591.539062 C 1534.523438 1657.332031 1480.964844 1710.890625 1415.171875 1710.890625 Z M 1415.171875 1537.984375 C 1385.734375 1537.984375 1361.617188 1562.101562 1361.617188 1591.539062 C 1361.617188 1620.980469 1385.734375 1645.097656 1415.171875 1645.097656 C 1444.613281 1645.097656 1468.730469 1620.980469 1468.730469 1591.539062 C 1468.730469 1562.101562 1444.789062 1537.984375 1415.171875 1537.984375 Z M 1415.171875 1537.984375 " clip-rule="nonzero"/></clipPath></defs><rect x="-144" width="1728" fill="#ffffff" y="-323.999998" height="3887.999978" fill-opacity="1"/><rect x="-144" width="1728" fill="#ffffff" y="-323.999998" height="3887.999978" fill-opacity="1"/><rect x="-144" width="1728" fill="#000000" y="-323.999998" height="3887.999978" fill-opacity="1"/><g clip-path="url(#87ae2b072f)"><g clip-path="url(#eb855ef7fc)"><path fill="#68faf0" d="M 1296 495.375 L 1746.449219 495.375 L 1746.449219 945.824219 L 1296 945.824219 Z M 1296 495.375 " fill-opacity="1" fill-rule="nonzero"/></g></g><g clip-path="url(#ca60eccdf7)"><g clip-path="url(#5966a9d88b)"><path fill="#68faf0" d="M -239.03125 302.269531 L 218.929688 302.269531 L 218.929688 760.226562 L -239.03125 760.226562 Z M -239.03125 302.269531 " fill-opacity="1" fill-rule="nonzero"/></g></g><g clip-path="url(#6452172cfa)"><g clip-path="url(#cf702037b2)"><path fill="#49a3a0" d="M -334.0625 966.332031 L 145.777344 966.332031 L 145.777344 1446.171875 L -334.0625 1446.171875 Z M -334.0625 966.332031 " fill-opacity="1" fill-rule="nonzero"/></g></g><g clip-path="url(#fd6f15e305)"><g clip-path="url(#43ed6a9911)"><path fill="#49a3a0" d="M 1296 55.304688 L 1543.882812 55.304688 L 1543.882812 303.1875 L 1296 303.1875 Z M 1296 55.304688 " fill-opacity="1" fill-rule="nonzero"/></g></g><g clip-path="url(#67e333c04d)"><path fill="#5e666a" d="M -109.316406 -178.785156 L 1443.183594 -178.785156 L 1443.183594 178.964844 L -109.316406 178.964844 Z M -109.316406 -178.785156 " fill-opacity="1" fill-rule="nonzero"/></g><g clip-path="url(#7d6c608336)"><g clip-path="url(#f68ef9c38a)"><path fill="#68faf0" d="M -239.03125 2264.3125 L 159 2264.3125 L 159 2662.34375 L -239.03125 2662.34375 Z M -239.03125 2264.3125 " fill-opacity="1" fill-rule="nonzero"/></g></g><g clip-path="url(#da43e26759)"><g clip-path="url(#c61f9d67eb)"><path fill="#49a3a0" d="M 1296 1964.042969 L 1613.820312 1964.042969 L 1613.820312 2281.863281 L 1296 2281.863281 Z M 1296 1964.042969 " fill-opacity="1" fill-rule="nonzero"/></g></g><g clip-path="url(#6abfaa3836)"><g clip-path="url(#42af9f5805)"><path fill="#68faf0" d="M -261.535156 1677.5 L 145.507812 1677.5 L 145.507812 2084.542969 L -261.535156 2084.542969 Z M -261.535156 1677.5 " fill-opacity="1" fill-rule="nonzero"/></g></g><g clip-path="url(#77b9ea2963)"><g clip-path="url(#4dcedcf579)"><path fill="#68faf0" d="M 1261.160156 2159.046875 L 1668.203125 2159.046875 L 1668.203125 2566.089844 L 1261.160156 2566.089844 Z M 1261.160156 2159.046875 " fill-opacity="1" fill-rule="nonzero"/></g></g><g clip-path="url(#226c203fea)"><g clip-path="url(#148fcc8dbd)"><path fill="#49a3a0" d="M -432.914062 2372.414062 L 146.144531 2372.414062 L 146.144531 2951.472656 L -432.914062 2951.472656 Z M -432.914062 2372.414062 " fill-opacity="1" fill-rule="nonzero"/></g></g><g clip-path="url(#e1c49e5787)"><g clip-path="url(#13f7b1eae9)"><path fill="#68faf0" d="M 101.539062 3056.335938 L 470.238281 3056.335938 L 470.238281 3425.03125 L 101.539062 3425.03125 Z M 101.539062 3056.335938 " fill-opacity="1" fill-rule="nonzero"/></g></g><g clip-path="url(#f68915fba5)"><g clip-path="url(#cf0e1eda26)"><path fill="#49a3a0" d="M 1032.707031 2723.425781 L 1850.324219 2723.425781 L 1850.324219 3541.042969 L 1032.707031 3541.042969 Z M 1032.707031 2723.425781 " fill-opacity="1" fill-rule="nonzero"/></g></g><g clip-path="url(#5bb1194aa7)"><g clip-path="url(#2f9ef2a259)"><path fill="#68faf0" d="M -81.722656 1333.972656 L 82.332031 1333.972656 L 82.332031 1498.027344 L -81.722656 1498.027344 Z M -81.722656 1333.972656 " fill-opacity="1" fill-rule="nonzero"/></g></g><g clip-path="url(#0ecfaa61f4)"><g clip-path="url(#d7c222bbb5)"><path fill="#49a3a0" d="M 1261.160156 1120.5 L 1578.980469 1120.5 L 1578.980469 1438.324219 L 1261.160156 1438.324219 Z M 1261.160156 1120.5 " fill-opacity="1" fill-rule="nonzero"/></g></g><g clip-path="url(#44f94df781)"><g clip-path="url(#95f7ef2264)"><path fill="#68faf0" d="M 1296 1472.367188 L 1535.410156 1472.367188 L 1535.410156 1711.777344 L 1296 1711.777344 Z M 1296 1472.367188 " fill-opacity="1" fill-rule="nonzero"/></g></g></svg>