<svg xmlns="http://www.w3.org/2000/svg" xmlns:xlink="http://www.w3.org/1999/xlink" width="1920" zoomAndPan="magnify" viewBox="0 0 1440 809.999993" height="1080" preserveAspectRatio="xMidYMid meet" version="1.0"><defs><clipPath id="9f0606f51f"><path d="M 0 0 L 848 0 L 848 69 L 0 69 Z M 0 0 " clip-rule="nonzero"/></clipPath><clipPath id="49bd843b47"><path d="M 591.164062 -175.984375 L 141.613281 -175.984375 L 107.898438 -175.691406 L -149.722656 69.121094 L 592.527344 69.121094 L 847.878906 -175.984375 L 591.164062 -175.984375 " clip-rule="nonzero"/></clipPath><clipPath id="15b11e3c99"><path d="M 537.128906 113.796875 L 619.828125 113.796875 L 619.828125 196.496094 L 537.128906 196.496094 Z M 537.128906 113.796875 " clip-rule="nonzero"/></clipPath><clipPath id="99a7999800"><path d="M 578.292969 196.1875 C 555.628906 196.1875 537.128906 177.6875 537.128906 154.960938 C 537.128906 132.296875 555.628906 113.796875 578.292969 113.796875 C 601.019531 113.796875 619.460938 132.296875 619.460938 154.960938 C 619.519531 177.6875 601.019531 196.1875 578.292969 196.1875 Z M 578.292969 136.460938 C 568.125 136.460938 559.792969 144.792969 559.792969 154.960938 C 559.792969 165.128906 568.125 173.460938 578.292969 173.460938 C 588.460938 173.460938 596.792969 165.128906 596.792969 154.960938 C 596.792969 144.792969 588.523438 136.460938 578.292969 136.460938 Z M 578.292969 136.460938 " clip-rule="nonzero"/></clipPath><clipPath id="84145ee207"><path d="M 154.03125 99.976562 L 641 99.976562 L 641 587 L 154.03125 587 Z M 154.03125 99.976562 " clip-rule="nonzero"/></clipPath><clipPath id="ec5b642407"><path d="M 397.230469 586.738281 C 263.328125 586.738281 154.03125 477.441406 154.03125 343.175781 C 154.03125 209.269531 263.328125 99.976562 397.230469 99.976562 C 531.5 99.976562 640.429688 209.269531 640.429688 343.175781 C 640.792969 477.441406 531.5 586.738281 397.230469 586.738281 Z M 397.230469 233.878906 C 337.15625 233.878906 287.9375 283.097656 287.9375 343.175781 C 287.9375 403.25 337.15625 452.46875 397.230469 452.46875 C 457.308594 452.46875 506.527344 403.25 506.527344 343.175781 C 506.527344 283.097656 457.671875 233.878906 397.230469 233.878906 Z M 397.230469 233.878906 " clip-rule="nonzero"/></clipPath><clipPath id="866ca28bed"><path d="M 1284.167969 604.429688 L 1440 604.429688 L 1440 810 L 1284.167969 810 Z M 1284.167969 604.429688 " clip-rule="nonzero"/></clipPath><clipPath id="0ff7850bca"><path d="M 1420.273438 876.847656 C 1345.332031 876.847656 1284.167969 815.683594 1284.167969 740.539062 C 1284.167969 665.597656 1345.332031 604.429688 1420.273438 604.429688 C 1495.417969 604.429688 1556.382812 665.597656 1556.382812 740.539062 C 1556.585938 815.683594 1495.417969 876.847656 1420.273438 876.847656 Z M 1420.273438 679.371094 C 1386.652344 679.371094 1359.105469 706.917969 1359.105469 740.539062 C 1359.105469 774.160156 1386.652344 801.707031 1420.273438 801.707031 C 1453.894531 801.707031 1481.441406 774.160156 1481.441406 740.539062 C 1481.441406 706.917969 1454.097656 679.371094 1420.273438 679.371094 Z M 1420.273438 679.371094 " clip-rule="nonzero"/></clipPath><clipPath id="f9cbfa136b"><path d="M 35.5 403.703125 L 311 403.703125 L 311 680 L 35.5 680 Z M 35.5 403.703125 " clip-rule="nonzero"/></clipPath><clipPath id="5ba315fc97"><path d="M 173.230469 679.371094 C 97.394531 679.371094 35.5 617.472656 35.5 541.433594 C 35.5 465.601562 97.394531 403.703125 173.230469 403.703125 C 249.269531 403.703125 310.960938 465.601562 310.960938 541.433594 C 311.164062 617.472656 249.269531 679.371094 173.230469 679.371094 Z M 173.230469 479.539062 C 139.207031 479.539062 111.332031 507.410156 111.332031 541.433594 C 111.332031 575.457031 139.207031 603.332031 173.230469 603.332031 C 207.253906 603.332031 235.125 575.457031 235.125 541.433594 C 235.125 507.410156 207.457031 479.539062 173.230469 479.539062 Z M 173.230469 479.539062 " clip-rule="nonzero"/></clipPath></defs><rect x="-144" width="1728" fill="#ffffff" y="-80.999999" height="971.999992" fill-opacity="1"/><rect x="-144" width="1728" fill="#ffffff" y="-80.999999" height="971.999992" fill-opacity="1"/><rect x="-144" width="1728" fill="#000000" y="-80.999999" height="971.999992" fill-opacity="1"/><g clip-path="url(#9f0606f51f)"><g clip-path="url(#49bd843b47)"><path fill="#5e666a" d="M -149.722656 -175.984375 L 847.679688 -175.984375 L 847.679688 68.972656 L -149.722656 68.972656 Z M -149.722656 -175.984375 " fill-opacity="1" fill-rule="nonzero"/></g></g><g clip-path="url(#15b11e3c99)"><g clip-path="url(#99a7999800)"><path fill="#49a3a0" d="M 537.128906 113.796875 L 619.828125 113.796875 L 619.828125 196.496094 L 537.128906 196.496094 Z M 537.128906 113.796875 " fill-opacity="1" fill-rule="nonzero"/></g></g><g clip-path="url(#84145ee207)"><g clip-path="url(#ec5b642407)"><path fill="#68faf0" d="M 154.03125 99.976562 L 642.601562 99.976562 L 642.601562 588.546875 L 154.03125 588.546875 Z M 154.03125 99.976562 " fill-opacity="1" fill-rule="nonzero"/></g></g><g clip-path="url(#866ca28bed)"><g clip-path="url(#0ff7850bca)"><path fill="#68faf0" d="M 1284.167969 604.429688 L 1557.597656 604.429688 L 1557.597656 877.863281 L 1284.167969 877.863281 Z M 1284.167969 604.429688 " fill-opacity="1" fill-rule="nonzero"/></g></g><g clip-path="url(#f9cbfa136b)"><g clip-path="url(#5ba315fc97)"><path fill="#49a3a0" d="M 35.5 403.703125 L 312.191406 403.703125 L 312.191406 680.394531 L 35.5 680.394531 Z M 35.5 403.703125 " fill-opacity="1" fill-rule="nonzero"/></g></g></svg>