<svg xmlns="http://www.w3.org/2000/svg" xmlns:xlink="http://www.w3.org/1999/xlink" width="1920" zoomAndPan="magnify" viewBox="0 0 1440 3239.999982" height="4320" preserveAspectRatio="xMidYMid meet" version="1.0"><defs><clipPath id="01712eb541"><path d="M 1195.089844 530.398438 L 1440 530.398438 L 1440 980 L 1195.089844 980 Z M 1195.089844 530.398438 " clip-rule="nonzero"/></clipPath><clipPath id="bcb70285b4"><path d="M 1419.316406 979.183594 C 1295.859375 979.183594 1195.089844 878.414062 1195.089844 754.625 C 1195.089844 631.167969 1295.859375 530.398438 1419.316406 530.398438 C 1543.105469 530.398438 1643.539062 631.167969 1643.539062 754.625 C 1643.875 878.414062 1543.105469 979.183594 1419.316406 979.183594 Z M 1419.316406 653.855469 C 1363.925781 653.855469 1318.546875 699.234375 1318.546875 754.625 C 1318.546875 810.011719 1363.925781 855.390625 1419.316406 855.390625 C 1474.703125 855.390625 1520.082031 810.011719 1520.082031 754.625 C 1520.082031 699.234375 1475.039062 653.855469 1419.316406 653.855469 Z M 1419.316406 653.855469 " clip-rule="nonzero"/></clipPath><clipPath id="31b3fc7b5c"><path d="M 0 302.269531 L 285 302.269531 L 285 759 L 0 759 Z M 0 302.269531 " clip-rule="nonzero"/></clipPath><clipPath id="58d409c1c2"><path d="M 56.902344 758.53125 C -68.613281 758.53125 -171.058594 656.085938 -171.058594 530.230469 C -171.058594 404.714844 -68.613281 302.269531 56.902344 302.269531 C 182.757812 302.269531 284.867188 404.714844 284.867188 530.230469 C 285.203125 656.085938 182.757812 758.53125 56.902344 758.53125 Z M 56.902344 427.78125 C 0.589844 427.78125 -45.542969 473.917969 -45.542969 530.230469 C -45.542969 586.542969 0.589844 632.675781 56.902344 632.675781 C 113.214844 632.675781 159.351562 586.542969 159.351562 530.230469 C 159.351562 473.917969 113.554688 427.78125 56.902344 427.78125 Z M 56.902344 427.78125 " clip-rule="nonzero"/></clipPath><clipPath id="bb331f2f6e"><path d="M 0 940.644531 L 239 940.644531 L 239 1419 L 0 1419 Z M 0 940.644531 " clip-rule="nonzero"/></clipPath><clipPath id="9c29f4f2a0"><path d="M -0.175781 1418.707031 C -131.6875 1418.707031 -239.03125 1311.363281 -239.03125 1179.496094 C -239.03125 1047.988281 -131.6875 940.644531 -0.175781 940.644531 C 131.6875 940.644531 238.675781 1047.988281 238.675781 1179.496094 C 239.03125 1311.363281 131.6875 1418.707031 -0.175781 1418.707031 Z M -0.175781 1072.15625 C -59.179688 1072.15625 -107.519531 1120.496094 -107.519531 1179.496094 C -107.519531 1238.5 -59.179688 1286.839844 -0.175781 1286.839844 C 58.824219 1286.839844 107.164062 1238.5 107.164062 1179.496094 C 107.164062 1120.496094 59.179688 1072.15625 -0.175781 1072.15625 Z M -0.175781 1072.15625 " clip-rule="nonzero"/></clipPath><clipPath id="7c0a6f9475"><path d="M 1296 55.304688 L 1440 55.304688 L 1440 303 L 1296 303 Z M 1296 55.304688 " clip-rule="nonzero"/></clipPath><clipPath id="483aae9247"><path d="M 1419.390625 302.269531 C 1351.453125 302.269531 1296 246.816406 1296 178.695312 C 1296 110.757812 1351.453125 55.304688 1419.390625 55.304688 C 1487.511719 55.304688 1542.78125 110.757812 1542.78125 178.695312 C 1542.964844 246.816406 1487.511719 302.269531 1419.390625 302.269531 Z M 1419.390625 123.242188 C 1388.910156 123.242188 1363.9375 148.214844 1363.9375 178.695312 C 1363.9375 209.175781 1388.910156 234.144531 1419.390625 234.144531 C 1449.871094 234.144531 1474.84375 209.175781 1474.84375 178.695312 C 1474.84375 148.214844 1450.054688 123.242188 1419.390625 123.242188 Z M 1419.390625 123.242188 " clip-rule="nonzero"/></clipPath><clipPath id="379569ed7e"><path d="M 0 0 L 1440 0 L 1440 178.785156 L 0 178.785156 Z M 0 0 " clip-rule="nonzero"/></clipPath><clipPath id="8697de2a98"><path d="M 1296 1280.945312 L 1440 1280.945312 L 1440 1445 L 1296 1445 Z M 1296 1280.945312 " clip-rule="nonzero"/></clipPath><clipPath id="ab6df4a0b7"><path d="M 1377.664062 1444.394531 C 1332.699219 1444.394531 1296 1407.691406 1296 1362.609375 C 1296 1317.644531 1332.699219 1280.945312 1377.664062 1280.945312 C 1422.75 1280.945312 1459.328125 1317.644531 1459.328125 1362.609375 C 1459.449219 1407.691406 1422.75 1444.394531 1377.664062 1444.394531 Z M 1377.664062 1325.90625 C 1357.492188 1325.90625 1340.964844 1342.433594 1340.964844 1362.609375 C 1340.964844 1382.78125 1357.492188 1399.308594 1377.664062 1399.308594 C 1397.835938 1399.308594 1414.363281 1382.78125 1414.363281 1362.609375 C 1414.363281 1342.433594 1397.957031 1325.90625 1377.664062 1325.90625 Z M 1377.664062 1325.90625 " clip-rule="nonzero"/></clipPath><clipPath id="4f5b094815"><path d="M 1151.542969 1620 L 1440 1620 L 1440 2197 L 1151.542969 2197 Z M 1151.542969 1620 " clip-rule="nonzero"/></clipPath><clipPath id="58f61716a1"><path d="M 1439.785156 2196.914062 C 1281.082031 2196.914062 1151.542969 2067.375 1151.542969 1908.242188 C 1151.542969 1749.539062 1281.082031 1620 1439.785156 1620 C 1598.917969 1620 1728.027344 1749.539062 1728.027344 1908.242188 C 1728.457031 2067.375 1598.917969 2196.914062 1439.785156 2196.914062 Z M 1439.785156 1778.703125 C 1368.582031 1778.703125 1310.25 1837.039062 1310.25 1908.242188 C 1310.25 1979.445312 1368.582031 2037.78125 1439.785156 2037.78125 C 1510.988281 2037.78125 1569.324219 1979.445312 1569.324219 1908.242188 C 1569.324219 1837.039062 1511.417969 1778.703125 1439.785156 1778.703125 Z M 1439.785156 1778.703125 " clip-rule="nonzero"/></clipPath><clipPath id="9d5edb88cf"><path d="M 0 1699.542969 L 201 1699.542969 L 201 2106 L 0 2106 Z M 0 1699.542969 " clip-rule="nonzero"/></clipPath><clipPath id="a754056241"><path d="M -1.769531 2105.078125 C -113.332031 2105.078125 -204.386719 2014.019531 -204.386719 1902.160156 C -204.386719 1790.597656 -113.332031 1699.542969 -1.769531 1699.542969 C 110.089844 1699.542969 200.84375 1790.597656 200.84375 1902.160156 C 201.148438 2014.019531 110.089844 2105.078125 -1.769531 2105.078125 Z M -1.769531 1811.101562 C -51.824219 1811.101562 -92.828125 1852.109375 -92.828125 1902.160156 C -92.828125 1952.210938 -51.824219 1993.214844 -1.769531 1993.214844 C 48.28125 1993.214844 89.285156 1952.210938 89.285156 1902.160156 C 89.285156 1852.109375 48.582031 1811.101562 -1.769531 1811.101562 Z M -1.769531 1811.101562 " clip-rule="nonzero"/></clipPath><clipPath id="5c78ead0b8"><path d="M 1296 2372.414062 L 1440 2372.414062 L 1440 2778 L 1296 2778 Z M 1296 2372.414062 " clip-rule="nonzero"/></clipPath><clipPath id="060d26c9ba"><path d="M 1498.617188 2777.949219 C 1387.058594 2777.949219 1296 2686.890625 1296 2575.03125 C 1296 2463.46875 1387.058594 2372.414062 1498.617188 2372.414062 C 1610.476562 2372.414062 1701.234375 2463.46875 1701.234375 2575.03125 C 1701.535156 2686.890625 1610.476562 2777.949219 1498.617188 2777.949219 Z M 1498.617188 2483.972656 C 1448.566406 2483.972656 1407.558594 2524.980469 1407.558594 2575.03125 C 1407.558594 2625.082031 1448.566406 2666.085938 1498.617188 2666.085938 C 1548.667969 2666.085938 1589.671875 2625.082031 1589.671875 2575.03125 C 1589.671875 2524.980469 1548.96875 2483.972656 1498.617188 2483.972656 Z M 1498.617188 2483.972656 " clip-rule="nonzero"/></clipPath><clipPath id="f7196cdb9d"><path d="M 0 2385.578125 L 289 2385.578125 L 289 2963 L 0 2963 Z M 0 2385.578125 " clip-rule="nonzero"/></clipPath><clipPath id="2e98b14f0b"><path d="M -0.214844 2962.488281 C -158.917969 2962.488281 -288.457031 2832.953125 -288.457031 2673.820312 C -288.457031 2515.113281 -158.917969 2385.578125 -0.214844 2385.578125 C 158.917969 2385.578125 288.027344 2515.113281 288.027344 2673.820312 C 288.457031 2832.953125 158.917969 2962.488281 -0.214844 2962.488281 Z M -0.214844 2544.28125 C -71.417969 2544.28125 -129.75 2602.617188 -129.75 2673.820312 C -129.75 2745.023438 -71.417969 2803.355469 -0.214844 2803.355469 C 70.988281 2803.355469 129.324219 2745.023438 129.324219 2673.820312 C 129.324219 2602.617188 71.417969 2544.28125 -0.214844 2544.28125 Z M -0.214844 2544.28125 " clip-rule="nonzero"/></clipPath><clipPath id="a3c3786187"><path d="M 101.539062 3056.335938 L 469 3056.335938 L 469 3240 L 101.539062 3240 Z M 101.539062 3056.335938 " clip-rule="nonzero"/></clipPath><clipPath id="8ae8960044"><path d="M 285.070312 3423.667969 C 184.019531 3423.667969 101.539062 3341.1875 101.539062 3239.863281 C 101.539062 3138.8125 184.019531 3056.335938 285.070312 3056.335938 C 386.390625 3056.335938 468.597656 3138.8125 468.597656 3239.863281 C 468.871094 3341.1875 386.390625 3423.667969 285.070312 3423.667969 Z M 285.070312 3157.382812 C 239.730469 3157.382812 202.589844 3194.527344 202.589844 3239.863281 C 202.589844 3285.199219 239.730469 3322.34375 285.070312 3322.34375 C 330.40625 3322.34375 367.546875 3285.199219 367.546875 3239.863281 C 367.546875 3194.527344 330.675781 3157.382812 285.070312 3157.382812 Z M 285.070312 3157.382812 " clip-rule="nonzero"/></clipPath><clipPath id="f6e5fbf1c7"><path d="M 921.855469 2898.546875 L 1440 2898.546875 L 1440 3240 L 921.855469 3240 Z M 921.855469 2898.546875 " clip-rule="nonzero"/></clipPath><clipPath id="02b294446b"><path d="M 1210.097656 3475.457031 C 1051.390625 3475.457031 921.855469 3345.921875 921.855469 3186.789062 C 921.855469 3028.082031 1051.390625 2898.546875 1210.097656 2898.546875 C 1369.230469 2898.546875 1498.339844 3028.082031 1498.339844 3186.789062 C 1498.765625 3345.921875 1369.230469 3475.457031 1210.097656 3475.457031 Z M 1210.097656 3057.25 C 1138.894531 3057.25 1080.558594 3115.585938 1080.558594 3186.789062 C 1080.558594 3257.988281 1138.894531 3316.324219 1210.097656 3316.324219 C 1281.300781 3316.324219 1339.632812 3257.988281 1339.632812 3186.789062 C 1339.632812 3115.585938 1281.726562 3057.25 1210.097656 3057.25 Z M 1210.097656 3057.25 " clip-rule="nonzero"/></clipPath></defs><rect x="-144" width="1728" fill="#ffffff" y="-323.999998" height="3887.999978" fill-opacity="1"/><rect x="-144" width="1728" fill="#ffffff" y="-323.999998" height="3887.999978" fill-opacity="1"/><rect x="-144" width="1728" fill="#000000" y="-323.999998" height="3887.999978" fill-opacity="1"/><g clip-path="url(#01712eb541)"><g clip-path="url(#bcb70285b4)"><path fill="#68faf0" d="M 1195.089844 530.398438 L 1645.542969 530.398438 L 1645.542969 980.851562 L 1195.089844 980.851562 Z M 1195.089844 530.398438 " fill-opacity="1" fill-rule="nonzero"/></g></g><g clip-path="url(#31b3fc7b5c)"><g clip-path="url(#58d409c1c2)"><path fill="#68faf0" d="M -171.058594 302.269531 L 286.902344 302.269531 L 286.902344 760.226562 L -171.058594 760.226562 Z M -171.058594 302.269531 " fill-opacity="1" fill-rule="nonzero"/></g></g><g clip-path="url(#bb331f2f6e)"><g clip-path="url(#9c29f4f2a0)"><path fill="#49a3a0" d="M -239.03125 940.644531 L 240.808594 940.644531 L 240.808594 1420.484375 L -239.03125 1420.484375 Z M -239.03125 940.644531 " fill-opacity="1" fill-rule="nonzero"/></g></g><g clip-path="url(#7c0a6f9475)"><g clip-path="url(#483aae9247)"><path fill="#49a3a0" d="M 1296 55.304688 L 1543.882812 55.304688 L 1543.882812 303.1875 L 1296 303.1875 Z M 1296 55.304688 " fill-opacity="1" fill-rule="nonzero"/></g></g><g clip-path="url(#379569ed7e)"><path fill="#5e666a" d="M -109.316406 -178.785156 L 1443.183594 -178.785156 L 1443.183594 178.964844 L -109.316406 178.964844 Z M -109.316406 -178.785156 " fill-opacity="1" fill-rule="nonzero"/></g><g clip-path="url(#8697de2a98)"><g clip-path="url(#ab6df4a0b7)"><path fill="#68faf0" d="M 1296 1280.945312 L 1460.058594 1280.945312 L 1460.058594 1445 L 1296 1445 Z M 1296 1280.945312 " fill-opacity="1" fill-rule="nonzero"/></g></g><g clip-path="url(#4f5b094815)"><g clip-path="url(#58f61716a1)"><path fill="#49a3a0" d="M 1151.542969 1620 L 1730.601562 1620 L 1730.601562 2199.058594 L 1151.542969 2199.058594 Z M 1151.542969 1620 " fill-opacity="1" fill-rule="nonzero"/></g></g><g clip-path="url(#9d5edb88cf)"><g clip-path="url(#a754056241)"><path fill="#68faf0" d="M -204.386719 1699.542969 L 202.65625 1699.542969 L 202.65625 2106.585938 L -204.386719 2106.585938 Z M -204.386719 1699.542969 " fill-opacity="1" fill-rule="nonzero"/></g></g><g clip-path="url(#5c78ead0b8)"><g clip-path="url(#060d26c9ba)"><path fill="#68faf0" d="M 1296 2372.414062 L 1703.042969 2372.414062 L 1703.042969 2779.457031 L 1296 2779.457031 Z M 1296 2372.414062 " fill-opacity="1" fill-rule="nonzero"/></g></g><g clip-path="url(#f7196cdb9d)"><g clip-path="url(#2e98b14f0b)"><path fill="#49a3a0" d="M -288.457031 2385.578125 L 290.601562 2385.578125 L 290.601562 2964.632812 L -288.457031 2964.632812 Z M -288.457031 2385.578125 " fill-opacity="1" fill-rule="nonzero"/></g></g><g clip-path="url(#a3c3786187)"><g clip-path="url(#8ae8960044)"><path fill="#68faf0" d="M 101.539062 3056.335938 L 470.238281 3056.335938 L 470.238281 3425.03125 L 101.539062 3425.03125 Z M 101.539062 3056.335938 " fill-opacity="1" fill-rule="nonzero"/></g></g><g clip-path="url(#f6e5fbf1c7)"><g clip-path="url(#02b294446b)"><path fill="#49a3a0" d="M 921.855469 2898.546875 L 1500.910156 2898.546875 L 1500.910156 3477.601562 L 921.855469 3477.601562 Z M 921.855469 2898.546875 " fill-opacity="1" fill-rule="nonzero"/></g></g></svg>