<svg xmlns="http://www.w3.org/2000/svg" xmlns:xlink="http://www.w3.org/1999/xlink" width="1024" zoomAndPan="magnify" viewBox="0 0 768 5692.49983" height="7590" preserveAspectRatio="xMidYMid meet" version="1.0"><defs><clipPath id="6aefc28ff0"><path d="M 0.0351562 0 L 767.964844 0 L 767.964844 5692 L 0.0351562 5692 Z M 0.0351562 0 " clip-rule="nonzero"/></clipPath><clipPath id="500e456f0c"><path d="M 725.46875 311.476562 L 767.964844 311.476562 L 767.964844 551 L 725.46875 551 Z M 725.46875 311.476562 " clip-rule="nonzero"/></clipPath><clipPath id="9a8f1d65e6"><path d="M 845.046875 550.804688 C 779.207031 550.804688 725.46875 497.066406 725.46875 431.050781 C 725.46875 365.214844 779.207031 311.476562 845.046875 311.476562 C 911.0625 311.476562 964.621094 365.214844 964.621094 431.050781 C 964.800781 497.066406 911.0625 550.804688 845.046875 550.804688 Z M 845.046875 377.3125 C 815.507812 377.3125 791.308594 401.515625 791.308594 431.050781 C 791.308594 460.589844 815.507812 484.789062 845.046875 484.789062 C 874.582031 484.789062 898.785156 460.589844 898.785156 431.050781 C 898.785156 401.515625 874.761719 377.3125 845.046875 377.3125 Z M 845.046875 377.3125 " clip-rule="nonzero"/></clipPath><clipPath id="73aa7d297f"><path d="M 0.0351562 323.675781 L 77 323.675781 L 77 438.667969 L 0.0351562 438.667969 Z M 0.0351562 323.675781 " clip-rule="nonzero"/></clipPath><clipPath id="c8f62b9f00"><path d="M 19.5 438.242188 C -12.015625 438.242188 -37.742188 412.519531 -37.742188 380.917969 C -37.742188 349.398438 -12.015625 323.675781 19.5 323.675781 C 51.101562 323.675781 76.742188 349.398438 76.742188 380.917969 C 76.828125 412.519531 51.101562 438.242188 19.5 438.242188 Z M 19.5 355.191406 C 5.359375 355.191406 -6.222656 366.777344 -6.222656 380.917969 C -6.222656 395.054688 5.359375 406.640625 19.5 406.640625 C 33.640625 406.640625 45.226562 395.054688 45.226562 380.917969 C 45.226562 366.777344 33.726562 355.191406 19.5 355.191406 Z M 19.5 355.191406 " clip-rule="nonzero"/></clipPath><clipPath id="bb95397e21"><path d="M 0.0351562 124.09375 L 109 124.09375 L 109 404 L 0.0351562 404 Z M 0.0351562 124.09375 " clip-rule="nonzero"/></clipPath><clipPath id="dfac897a43"><path d="M -31.410156 403.660156 C -108.316406 403.660156 -171.089844 340.886719 -171.089844 263.773438 C -171.089844 186.867188 -108.316406 124.09375 -31.410156 124.09375 C 45.703125 124.09375 108.269531 186.867188 108.269531 263.773438 C 108.476562 340.886719 45.703125 403.660156 -31.410156 403.660156 Z M -31.410156 201 C -65.914062 201 -94.183594 229.269531 -94.183594 263.773438 C -94.183594 298.277344 -65.914062 326.546875 -31.410156 326.546875 C 3.09375 326.546875 31.363281 298.277344 31.363281 263.773438 C 31.363281 229.269531 3.300781 201 -31.410156 201 Z M -31.410156 201 " clip-rule="nonzero"/></clipPath><clipPath id="c00c152ede"><path d="M 0.0351562 562.632812 L 77 562.632812 L 77 818 L 0.0351562 818 Z M 0.0351562 562.632812 " clip-rule="nonzero"/></clipPath><clipPath id="86e93f43d8"><path d="M -50.738281 817.574219 C -120.871094 817.574219 -178.117188 760.332031 -178.117188 690.007812 C -178.117188 619.875 -120.871094 562.632812 -50.738281 562.632812 C 19.582031 562.632812 76.636719 619.875 76.636719 690.007812 C 76.828125 760.332031 19.582031 817.574219 -50.738281 817.574219 Z M -50.738281 632.765625 C -82.203125 632.765625 -107.984375 658.542969 -107.984375 690.007812 C -107.984375 721.472656 -82.203125 747.253906 -50.738281 747.253906 C -19.273438 747.253906 6.503906 721.472656 6.503906 690.007812 C 6.503906 658.542969 -19.085938 632.765625 -50.738281 632.765625 Z M -50.738281 632.765625 " clip-rule="nonzero"/></clipPath><clipPath id="2879b962f1"><path d="M 725.46875 76.792969 L 767.964844 76.792969 L 767.964844 208.984375 L 725.46875 208.984375 Z M 725.46875 76.792969 " clip-rule="nonzero"/></clipPath><clipPath id="65bfabdc88"><path d="M 791.273438 208.496094 C 755.042969 208.496094 725.46875 178.921875 725.46875 142.59375 C 725.46875 106.363281 755.042969 76.792969 791.273438 76.792969 C 827.601562 76.792969 857.074219 106.363281 857.074219 142.59375 C 857.171875 178.921875 827.601562 208.496094 791.273438 208.496094 Z M 791.273438 113.023438 C 775.015625 113.023438 761.699219 126.339844 761.699219 142.59375 C 761.699219 158.851562 775.015625 172.167969 791.273438 172.167969 C 807.527344 172.167969 820.84375 158.851562 820.84375 142.59375 C 820.84375 126.339844 807.625 113.023438 791.273438 113.023438 Z M 791.273438 113.023438 " clip-rule="nonzero"/></clipPath><clipPath id="96fc960d9f"><path d="M 0.0351562 0 L 767.964844 0 L 767.964844 36 L 0.0351562 36 Z M 0.0351562 0 " clip-rule="nonzero"/></clipPath><clipPath id="31a39c4508"><path d="M 0.0351562 1254.828125 L 84 1254.828125 L 84 1467 L 0.0351562 1467 Z M 0.0351562 1254.828125 " clip-rule="nonzero"/></clipPath><clipPath id="7ed0f6dbb7"><path d="M -21.777344 1466.304688 C -79.953125 1466.304688 -127.4375 1418.820312 -127.4375 1360.488281 C -127.4375 1302.3125 -79.953125 1254.828125 -21.777344 1254.828125 C 36.554688 1254.828125 83.882812 1302.3125 83.882812 1360.488281 C 84.039062 1418.820312 36.554688 1466.304688 -21.777344 1466.304688 Z M -21.777344 1313.003906 C -47.878906 1313.003906 -69.261719 1334.386719 -69.261719 1360.488281 C -69.261719 1386.589844 -47.878906 1407.972656 -21.777344 1407.972656 C 4.324219 1407.972656 25.707031 1386.589844 25.707031 1360.488281 C 25.707031 1334.386719 4.480469 1313.003906 -21.777344 1313.003906 Z M -21.777344 1313.003906 " clip-rule="nonzero"/></clipPath><clipPath id="b3dcd3b3f8"><path d="M 0.0351562 941.890625 L 77 941.890625 L 77 1158.960938 L 0.0351562 1158.960938 Z M 0.0351562 941.890625 " clip-rule="nonzero"/></clipPath><clipPath id="f418a096c6"><path d="M -31.386719 1158.15625 C -90.878906 1158.15625 -139.4375 1109.59375 -139.4375 1049.941406 C -139.4375 990.449219 -90.878906 941.890625 -31.386719 941.890625 C 28.265625 941.890625 76.667969 990.449219 76.667969 1049.941406 C 76.828125 1109.59375 28.265625 1158.15625 -31.386719 1158.15625 Z M -31.386719 1001.382812 C -58.078125 1001.382812 -79.945312 1023.25 -79.945312 1049.941406 C -79.945312 1076.632812 -58.078125 1098.5 -31.386719 1098.5 C -4.695312 1098.5 17.171875 1076.632812 17.171875 1049.941406 C 17.171875 1023.25 -4.535156 1001.382812 -31.386719 1001.382812 Z M -31.386719 1001.382812 " clip-rule="nonzero"/></clipPath><clipPath id="a584d9bc17"><path d="M 0.0351562 1312.476562 L 77 1312.476562 L 77 1621 L 0.0351562 1621 Z M 0.0351562 1312.476562 " clip-rule="nonzero"/></clipPath><clipPath id="d0bf5d767b"><path d="M -77.117188 1620.136719 C -161.753906 1620.136719 -230.832031 1551.054688 -230.832031 1466.191406 C -230.832031 1381.554688 -161.753906 1312.476562 -77.117188 1312.476562 C 7.746094 1312.476562 76.597656 1381.554688 76.597656 1466.191406 C 76.828125 1551.054688 7.746094 1620.136719 -77.117188 1620.136719 Z M -77.117188 1397.109375 C -115.089844 1397.109375 -146.199219 1428.21875 -146.199219 1466.191406 C -146.199219 1504.164062 -115.089844 1535.273438 -77.117188 1535.273438 C -39.144531 1535.273438 -8.035156 1504.164062 -8.035156 1466.191406 C -8.035156 1428.21875 -38.917969 1397.109375 -77.117188 1397.109375 Z M -77.117188 1397.109375 " clip-rule="nonzero"/></clipPath><clipPath id="f758a2151e"><path d="M 0.0351562 1684.929688 L 77 1684.929688 L 77 1881 L 0.0351562 1881 Z M 0.0351562 1684.929688 " clip-rule="nonzero"/></clipPath><clipPath id="27a7047543"><path d="M -21.191406 1880.824219 C -75.082031 1880.824219 -119.066406 1836.839844 -119.066406 1782.804688 C -119.066406 1728.914062 -75.082031 1684.929688 -21.191406 1684.929688 C 32.84375 1684.929688 76.679688 1728.914062 76.679688 1782.804688 C 76.828125 1836.839844 32.84375 1880.824219 -21.191406 1880.824219 Z M -21.191406 1738.820312 C -45.371094 1738.820312 -65.175781 1758.625 -65.175781 1782.804688 C -65.175781 1806.980469 -45.371094 1826.789062 -21.191406 1826.789062 C 2.984375 1826.789062 22.792969 1806.980469 22.792969 1782.804688 C 22.792969 1758.625 3.128906 1738.820312 -21.191406 1738.820312 Z M -21.191406 1738.820312 " clip-rule="nonzero"/></clipPath><clipPath id="c8b7a1dae8"><path d="M 639.96875 1467.726562 L 767.964844 1467.726562 L 767.964844 1903 L 639.96875 1903 Z M 639.96875 1467.726562 " clip-rule="nonzero"/></clipPath><clipPath id="3b6cc53a3c"><path d="M 857.011719 1902.136719 C 737.507812 1902.136719 639.96875 1804.59375 639.96875 1684.769531 C 639.96875 1565.265625 737.507812 1467.726562 857.011719 1467.726562 C 976.835938 1467.726562 1074.054688 1565.265625 1074.054688 1684.769531 C 1074.375 1804.59375 976.835938 1902.136719 857.011719 1902.136719 Z M 857.011719 1587.230469 C 803.394531 1587.230469 759.46875 1631.152344 759.46875 1684.769531 C 759.46875 1738.382812 803.394531 1782.308594 857.011719 1782.308594 C 910.625 1782.308594 954.550781 1738.382812 954.550781 1684.769531 C 954.550781 1631.152344 910.949219 1587.230469 857.011719 1587.230469 Z M 857.011719 1587.230469 " clip-rule="nonzero"/></clipPath><clipPath id="2a901c72e5"><path d="M 0.0351562 758.6875 L 43.941406 758.6875 L 43.941406 846 L 0.0351562 846 Z M 0.0351562 758.6875 " clip-rule="nonzero"/></clipPath><clipPath id="17abc0d2f5"><path d="M 0 845.855469 C -23.976562 845.855469 -43.550781 826.28125 -43.550781 802.238281 C -43.550781 778.261719 -23.976562 758.6875 0 758.6875 C 24.042969 758.6875 43.550781 778.261719 43.550781 802.238281 C 43.617188 826.28125 24.042969 845.855469 0 845.855469 Z M 0 782.667969 C -10.757812 782.667969 -19.570312 791.480469 -19.570312 802.238281 C -19.570312 812.996094 -10.757812 821.8125 0 821.8125 C 10.757812 821.8125 19.574219 812.996094 19.574219 802.238281 C 19.574219 791.480469 10.824219 782.667969 0 782.667969 Z M 0 782.667969 " clip-rule="nonzero"/></clipPath><clipPath id="c8febe1d70"><path d="M 706.890625 644.847656 L 767.964844 644.847656 L 767.964844 814 L 706.890625 814 Z M 706.890625 644.847656 " clip-rule="nonzero"/></clipPath><clipPath id="7c9bf77dc9"><path d="M 791.257812 813.710938 C 744.804688 813.710938 706.890625 775.796875 706.890625 729.214844 C 706.890625 682.765625 744.804688 644.847656 791.257812 644.847656 C 837.835938 644.847656 875.625 682.765625 875.625 729.214844 C 875.753906 775.796875 837.835938 813.710938 791.257812 813.710938 Z M 791.257812 691.300781 C 770.417969 691.300781 753.34375 708.375 753.34375 729.214844 C 753.34375 750.058594 770.417969 767.132812 791.257812 767.132812 C 812.097656 767.132812 829.175781 750.058594 829.175781 729.214844 C 829.175781 708.375 812.226562 691.300781 791.257812 691.300781 Z M 791.257812 691.300781 " clip-rule="nonzero"/></clipPath><clipPath id="dd2bda917a"><path d="M 725.46875 832.492188 L 767.964844 832.492188 L 767.964844 960 L 725.46875 960 Z M 725.46875 832.492188 " clip-rule="nonzero"/></clipPath><clipPath id="ce853a7d0e"><path d="M 789.023438 959.695312 C 754.03125 959.695312 725.46875 931.132812 725.46875 896.046875 C 725.46875 861.054688 754.03125 832.492188 789.023438 832.492188 C 824.109375 832.492188 852.578125 861.054688 852.578125 896.046875 C 852.671875 931.132812 824.109375 959.695312 789.023438 959.695312 Z M 789.023438 867.484375 C 773.324219 867.484375 760.460938 880.347656 760.460938 896.046875 C 760.460938 911.746094 773.324219 924.609375 789.023438 924.609375 C 804.722656 924.609375 817.585938 911.746094 817.585938 896.046875 C 817.585938 880.347656 804.816406 867.484375 789.023438 867.484375 Z M 789.023438 867.484375 " clip-rule="nonzero"/></clipPath><clipPath id="4f84a780be"><path d="M 725.46875 2189.613281 L 767.964844 2189.613281 L 767.964844 2429 L 725.46875 2429 Z M 725.46875 2189.613281 " clip-rule="nonzero"/></clipPath><clipPath id="03b99246f5"><path d="M 845.046875 2428.941406 C 779.207031 2428.941406 725.46875 2375.203125 725.46875 2309.1875 C 725.46875 2243.351562 779.207031 2189.613281 845.046875 2189.613281 C 911.0625 2189.613281 964.621094 2243.351562 964.621094 2309.1875 C 964.800781 2375.203125 911.0625 2428.941406 845.046875 2428.941406 Z M 845.046875 2255.449219 C 815.507812 2255.449219 791.308594 2279.652344 791.308594 2309.1875 C 791.308594 2338.726562 815.507812 2362.925781 845.046875 2362.925781 C 874.582031 2362.925781 898.785156 2338.726562 898.785156 2309.1875 C 898.785156 2279.652344 874.761719 2255.449219 845.046875 2255.449219 Z M 845.046875 2255.449219 " clip-rule="nonzero"/></clipPath><clipPath id="44561af1d8"><path d="M 0.0351562 2201.8125 L 77 2201.8125 L 77 2316.804688 L 0.0351562 2316.804688 Z M 0.0351562 2201.8125 " clip-rule="nonzero"/></clipPath><clipPath id="29edab54b9"><path d="M 19.5 2316.378906 C -12.015625 2316.378906 -37.742188 2290.65625 -37.742188 2259.054688 C -37.742188 2227.535156 -12.015625 2201.8125 19.5 2201.8125 C 51.101562 2201.8125 76.742188 2227.535156 76.742188 2259.054688 C 76.828125 2290.65625 51.101562 2316.378906 19.5 2316.378906 Z M 19.5 2233.328125 C 5.359375 2233.328125 -6.222656 2244.914062 -6.222656 2259.054688 C -6.222656 2273.191406 5.359375 2284.777344 19.5 2284.777344 C 33.640625 2284.777344 45.226562 2273.191406 45.226562 2259.054688 C 45.226562 2244.914062 33.726562 2233.328125 19.5 2233.328125 Z M 19.5 2233.328125 " clip-rule="nonzero"/></clipPath><clipPath id="099787382c"><path d="M 0.0351562 2002.230469 L 109 2002.230469 L 109 2282 L 0.0351562 2282 Z M 0.0351562 2002.230469 " clip-rule="nonzero"/></clipPath><clipPath id="156f6a42fa"><path d="M -31.410156 2281.796875 C -108.316406 2281.796875 -171.089844 2219.023438 -171.089844 2141.910156 C -171.089844 2065.003906 -108.316406 2002.230469 -31.410156 2002.230469 C 45.703125 2002.230469 108.269531 2065.003906 108.269531 2141.910156 C 108.476562 2219.023438 45.703125 2281.796875 -31.410156 2281.796875 Z M -31.410156 2079.136719 C -65.914062 2079.136719 -94.183594 2107.40625 -94.183594 2141.910156 C -94.183594 2176.414062 -65.914062 2204.683594 -31.410156 2204.683594 C 3.09375 2204.683594 31.363281 2176.414062 31.363281 2141.910156 C 31.363281 2107.40625 3.300781 2079.136719 -31.410156 2079.136719 Z M -31.410156 2079.136719 " clip-rule="nonzero"/></clipPath><clipPath id="12809d2672"><path d="M 0.0351562 2440.769531 L 77 2440.769531 L 77 2696 L 0.0351562 2696 Z M 0.0351562 2440.769531 " clip-rule="nonzero"/></clipPath><clipPath id="47b6ff6a45"><path d="M -50.738281 2695.710938 C -120.871094 2695.710938 -178.117188 2638.46875 -178.117188 2568.144531 C -178.117188 2498.011719 -120.871094 2440.769531 -50.738281 2440.769531 C 19.582031 2440.769531 76.636719 2498.011719 76.636719 2568.144531 C 76.828125 2638.46875 19.582031 2695.710938 -50.738281 2695.710938 Z M -50.738281 2510.902344 C -82.203125 2510.902344 -107.984375 2536.679688 -107.984375 2568.144531 C -107.984375 2599.609375 -82.203125 2625.390625 -50.738281 2625.390625 C -19.273438 2625.390625 6.503906 2599.609375 6.503906 2568.144531 C 6.503906 2536.679688 -19.085938 2510.902344 -50.738281 2510.902344 Z M -50.738281 2510.902344 " clip-rule="nonzero"/></clipPath><clipPath id="8053bafc2f"><path d="M 725.46875 1954.929688 L 767.964844 1954.929688 L 767.964844 2087 L 725.46875 2087 Z M 725.46875 1954.929688 " clip-rule="nonzero"/></clipPath><clipPath id="c2aa1ad3be"><path d="M 791.273438 2086.632812 C 755.042969 2086.632812 725.46875 2057.0625 725.46875 2020.734375 C 725.46875 1984.503906 755.042969 1954.929688 791.273438 1954.929688 C 827.601562 1954.929688 857.074219 1984.503906 857.074219 2020.734375 C 857.171875 2057.0625 827.601562 2086.632812 791.273438 2086.632812 Z M 791.273438 1991.160156 C 775.015625 1991.160156 761.699219 2004.476562 761.699219 2020.734375 C 761.699219 2036.988281 775.015625 2050.304688 791.273438 2050.304688 C 807.527344 2050.304688 820.84375 2036.988281 820.84375 2020.734375 C 820.84375 2004.476562 807.625 1991.160156 791.273438 1991.160156 Z M 791.273438 1991.160156 " clip-rule="nonzero"/></clipPath><clipPath id="593dbaa0a8"><path d="M 725.46875 2972.832031 L 767.964844 2972.832031 L 767.964844 3142 L 725.46875 3142 Z M 725.46875 2972.832031 " clip-rule="nonzero"/></clipPath><clipPath id="eef5634be9"><path d="M 809.839844 3141.695312 C 763.386719 3141.695312 725.46875 3103.78125 725.46875 3057.203125 C 725.46875 3010.75 763.386719 2972.832031 809.839844 2972.832031 C 856.417969 2972.832031 894.207031 3010.75 894.207031 3057.203125 C 894.332031 3103.78125 856.417969 3141.695312 809.839844 3141.695312 Z M 809.839844 3019.285156 C 788.996094 3019.285156 771.921875 3036.359375 771.921875 3057.203125 C 771.921875 3078.042969 788.996094 3095.117188 809.839844 3095.117188 C 830.679688 3095.117188 847.753906 3078.042969 847.753906 3057.203125 C 847.753906 3036.359375 830.804688 3019.285156 809.839844 3019.285156 Z M 809.839844 3019.285156 " clip-rule="nonzero"/></clipPath><clipPath id="de3f3f2b8a"><path d="M 0.0351562 2820.027344 L 77 2820.027344 L 77 3037 L 0.0351562 3037 Z M 0.0351562 2820.027344 " clip-rule="nonzero"/></clipPath><clipPath id="5d38a2afce"><path d="M -31.386719 3036.292969 C -90.878906 3036.292969 -139.4375 2987.734375 -139.4375 2928.078125 C -139.4375 2868.585938 -90.878906 2820.027344 -31.386719 2820.027344 C 28.265625 2820.027344 76.667969 2868.585938 76.667969 2928.078125 C 76.828125 2987.734375 28.265625 3036.292969 -31.386719 3036.292969 Z M -31.386719 2879.519531 C -58.078125 2879.519531 -79.945312 2901.386719 -79.945312 2928.078125 C -79.945312 2954.769531 -58.078125 2976.636719 -31.386719 2976.636719 C -4.695312 2976.636719 17.171875 2954.769531 17.171875 2928.078125 C 17.171875 2901.386719 -4.535156 2879.519531 -31.386719 2879.519531 Z M -31.386719 2879.519531 " clip-rule="nonzero"/></clipPath><clipPath id="f199822c3c"><path d="M 0.0351562 2636.824219 L 43.941406 2636.824219 L 43.941406 2724 L 0.0351562 2724 Z M 0.0351562 2636.824219 " clip-rule="nonzero"/></clipPath><clipPath id="fe53ce2dd4"><path d="M 0 2723.992188 C -23.976562 2723.992188 -43.550781 2704.417969 -43.550781 2680.375 C -43.550781 2656.398438 -23.976562 2636.824219 0 2636.824219 C 24.042969 2636.824219 43.550781 2656.398438 43.550781 2680.375 C 43.617188 2704.417969 24.042969 2723.992188 0 2723.992188 Z M 0 2660.804688 C -10.757812 2660.804688 -19.570312 2669.617188 -19.570312 2680.375 C -19.570312 2691.132812 -10.757812 2699.949219 0 2699.949219 C 10.757812 2699.949219 19.574219 2691.132812 19.574219 2680.375 C 19.574219 2669.617188 10.824219 2660.804688 0 2660.804688 Z M 0 2660.804688 " clip-rule="nonzero"/></clipPath><clipPath id="9aa2288c6c"><path d="M 725.46875 2710.628906 L 767.964844 2710.628906 L 767.964844 2838 L 725.46875 2838 Z M 725.46875 2710.628906 " clip-rule="nonzero"/></clipPath><clipPath id="add3687816"><path d="M 789.023438 2837.832031 C 754.03125 2837.832031 725.46875 2809.269531 725.46875 2774.183594 C 725.46875 2739.191406 754.03125 2710.628906 789.023438 2710.628906 C 824.109375 2710.628906 852.578125 2739.191406 852.578125 2774.183594 C 852.671875 2809.269531 824.109375 2837.832031 789.023438 2837.832031 Z M 789.023438 2745.621094 C 773.324219 2745.621094 760.460938 2758.484375 760.460938 2774.183594 C 760.460938 2789.882812 773.324219 2802.746094 789.023438 2802.746094 C 804.722656 2802.746094 817.585938 2789.882812 817.585938 2774.183594 C 817.585938 2758.484375 804.816406 2745.621094 789.023438 2745.621094 Z M 789.023438 2745.621094 " clip-rule="nonzero"/></clipPath><clipPath id="c290873386"><path d="M 725.46875 3511.367188 L 767.964844 3511.367188 L 767.964844 3751 L 725.46875 3751 Z M 725.46875 3511.367188 " clip-rule="nonzero"/></clipPath><clipPath id="04dcd52c54"><path d="M 845.046875 3750.695312 C 779.207031 3750.695312 725.46875 3696.957031 725.46875 3630.941406 C 725.46875 3565.105469 779.207031 3511.367188 845.046875 3511.367188 C 911.0625 3511.367188 964.621094 3565.105469 964.621094 3630.941406 C 964.800781 3696.957031 911.0625 3750.695312 845.046875 3750.695312 Z M 845.046875 3577.203125 C 815.507812 3577.203125 791.308594 3601.40625 791.308594 3630.941406 C 791.308594 3660.480469 815.507812 3684.679688 845.046875 3684.679688 C 874.582031 3684.679688 898.785156 3660.480469 898.785156 3630.941406 C 898.785156 3601.40625 874.761719 3577.203125 845.046875 3577.203125 Z M 845.046875 3577.203125 " clip-rule="nonzero"/></clipPath><clipPath id="e3159464ef"><path d="M 0.0351562 3523.566406 L 77 3523.566406 L 77 3638.558594 L 0.0351562 3638.558594 Z M 0.0351562 3523.566406 " clip-rule="nonzero"/></clipPath><clipPath id="0baadfaad0"><path d="M 19.5 3638.132812 C -12.015625 3638.132812 -37.742188 3612.410156 -37.742188 3580.808594 C -37.742188 3549.289062 -12.015625 3523.566406 19.5 3523.566406 C 51.101562 3523.566406 76.742188 3549.289062 76.742188 3580.808594 C 76.828125 3612.410156 51.101562 3638.132812 19.5 3638.132812 Z M 19.5 3555.082031 C 5.359375 3555.082031 -6.222656 3566.667969 -6.222656 3580.808594 C -6.222656 3594.945312 5.359375 3606.53125 19.5 3606.53125 C 33.640625 3606.53125 45.226562 3594.945312 45.226562 3580.808594 C 45.226562 3566.667969 33.726562 3555.082031 19.5 3555.082031 Z M 19.5 3555.082031 " clip-rule="nonzero"/></clipPath><clipPath id="a5423b4021"><path d="M 0.0351562 3323.984375 L 109 3323.984375 L 109 3604 L 0.0351562 3604 Z M 0.0351562 3323.984375 " clip-rule="nonzero"/></clipPath><clipPath id="e4a450795a"><path d="M -31.410156 3603.550781 C -108.316406 3603.550781 -171.089844 3540.777344 -171.089844 3463.664062 C -171.089844 3386.757812 -108.316406 3323.984375 -31.410156 3323.984375 C 45.703125 3323.984375 108.269531 3386.757812 108.269531 3463.664062 C 108.476562 3540.777344 45.703125 3603.550781 -31.410156 3603.550781 Z M -31.410156 3400.890625 C -65.914062 3400.890625 -94.183594 3429.160156 -94.183594 3463.664062 C -94.183594 3498.167969 -65.914062 3526.4375 -31.410156 3526.4375 C 3.09375 3526.4375 31.363281 3498.167969 31.363281 3463.664062 C 31.363281 3429.160156 3.300781 3400.890625 -31.410156 3400.890625 Z M -31.410156 3400.890625 " clip-rule="nonzero"/></clipPath><clipPath id="7364e812da"><path d="M 0.0351562 3762.523438 L 77 3762.523438 L 77 4018 L 0.0351562 4018 Z M 0.0351562 3762.523438 " clip-rule="nonzero"/></clipPath><clipPath id="19966176a9"><path d="M -50.738281 4017.464844 C -120.871094 4017.464844 -178.117188 3960.222656 -178.117188 3889.898438 C -178.117188 3819.765625 -120.871094 3762.523438 -50.738281 3762.523438 C 19.582031 3762.523438 76.636719 3819.765625 76.636719 3889.898438 C 76.828125 3960.222656 19.582031 4017.464844 -50.738281 4017.464844 Z M -50.738281 3832.65625 C -82.203125 3832.65625 -107.984375 3858.433594 -107.984375 3889.898438 C -107.984375 3921.363281 -82.203125 3947.144531 -50.738281 3947.144531 C -19.273438 3947.144531 6.503906 3921.363281 6.503906 3889.898438 C 6.503906 3858.433594 -19.085938 3832.65625 -50.738281 3832.65625 Z M -50.738281 3832.65625 " clip-rule="nonzero"/></clipPath><clipPath id="2ca29f5129"><path d="M 725.46875 3276.683594 L 767.964844 3276.683594 L 767.964844 3408.875 L 725.46875 3408.875 Z M 725.46875 3276.683594 " clip-rule="nonzero"/></clipPath><clipPath id="e45bfeb2a3"><path d="M 791.273438 3408.386719 C 755.042969 3408.386719 725.46875 3378.8125 725.46875 3342.484375 C 725.46875 3306.253906 755.042969 3276.683594 791.273438 3276.683594 C 827.601562 3276.683594 857.074219 3306.253906 857.074219 3342.484375 C 857.171875 3378.8125 827.601562 3408.386719 791.273438 3408.386719 Z M 791.273438 3312.914062 C 775.015625 3312.914062 761.699219 3326.230469 761.699219 3342.484375 C 761.699219 3358.742188 775.015625 3372.058594 791.273438 3372.058594 C 807.527344 3372.058594 820.84375 3358.742188 820.84375 3342.484375 C 820.84375 3326.230469 807.625 3312.914062 791.273438 3312.914062 Z M 791.273438 3312.914062 " clip-rule="nonzero"/></clipPath><clipPath id="9b43938c7e"><path d="M 0.0351562 4454.71875 L 84 4454.71875 L 84 4666.984375 L 0.0351562 4666.984375 Z M 0.0351562 4454.71875 " clip-rule="nonzero"/></clipPath><clipPath id="2c9f767a96"><path d="M -21.777344 4666.195312 C -79.953125 4666.195312 -127.4375 4618.710938 -127.4375 4560.378906 C -127.4375 4502.203125 -79.953125 4454.71875 -21.777344 4454.71875 C 36.554688 4454.71875 83.882812 4502.203125 83.882812 4560.378906 C 84.039062 4618.710938 36.554688 4666.195312 -21.777344 4666.195312 Z M -21.777344 4512.894531 C -47.878906 4512.894531 -69.261719 4534.277344 -69.261719 4560.378906 C -69.261719 4586.480469 -47.878906 4607.863281 -21.777344 4607.863281 C 4.324219 4607.863281 25.707031 4586.480469 25.707031 4560.378906 C 25.707031 4534.277344 4.480469 4512.894531 -21.777344 4512.894531 Z M -21.777344 4512.894531 " clip-rule="nonzero"/></clipPath><clipPath id="eb5c042b6d"><path d="M 0.0351562 4141.78125 L 77 4141.78125 L 77 4358.851562 L 0.0351562 4358.851562 Z M 0.0351562 4141.78125 " clip-rule="nonzero"/></clipPath><clipPath id="3f71a64d24"><path d="M -31.386719 4358.046875 C -90.878906 4358.046875 -139.4375 4309.484375 -139.4375 4249.832031 C -139.4375 4190.339844 -90.878906 4141.78125 -31.386719 4141.78125 C 28.265625 4141.78125 76.667969 4190.339844 76.667969 4249.832031 C 76.828125 4309.484375 28.265625 4358.046875 -31.386719 4358.046875 Z M -31.386719 4201.273438 C -58.078125 4201.273438 -79.945312 4223.140625 -79.945312 4249.832031 C -79.945312 4276.523438 -58.078125 4298.390625 -31.386719 4298.390625 C -4.695312 4298.390625 17.171875 4276.523438 17.171875 4249.832031 C 17.171875 4223.140625 -4.535156 4201.273438 -31.386719 4201.273438 Z M -31.386719 4201.273438 " clip-rule="nonzero"/></clipPath><clipPath id="e322e5f212"><path d="M 706.890625 4398.582031 L 767.964844 4398.582031 L 767.964844 4615 L 706.890625 4615 Z M 706.890625 4398.582031 " clip-rule="nonzero"/></clipPath><clipPath id="fd49292071"><path d="M 814.941406 4614.847656 C 755.449219 4614.847656 706.890625 4566.289062 706.890625 4506.632812 C 706.890625 4447.140625 755.449219 4398.582031 814.941406 4398.582031 C 874.597656 4398.582031 922.996094 4447.140625 922.996094 4506.632812 C 923.15625 4566.289062 874.597656 4614.847656 814.941406 4614.847656 Z M 814.941406 4458.074219 C 788.25 4458.074219 766.382812 4479.941406 766.382812 4506.632812 C 766.382812 4533.328125 788.25 4555.195312 814.941406 4555.195312 C 841.632812 4555.195312 863.503906 4533.328125 863.503906 4506.632812 C 863.503906 4479.941406 841.796875 4458.074219 814.941406 4458.074219 Z M 814.941406 4458.074219 " clip-rule="nonzero"/></clipPath><clipPath id="add003eebb"><path d="M 0.0351562 4512.367188 L 77 4512.367188 L 77 4821 L 0.0351562 4821 Z M 0.0351562 4512.367188 " clip-rule="nonzero"/></clipPath><clipPath id="30973d1db1"><path d="M -77.117188 4820.027344 C -161.753906 4820.027344 -230.832031 4750.945312 -230.832031 4666.082031 C -230.832031 4581.449219 -161.753906 4512.367188 -77.117188 4512.367188 C 7.746094 4512.367188 76.597656 4581.449219 76.597656 4666.082031 C 76.828125 4750.945312 7.746094 4820.027344 -77.117188 4820.027344 Z M -77.117188 4597.003906 C -115.089844 4597.003906 -146.199219 4628.109375 -146.199219 4666.082031 C -146.199219 4704.054688 -115.089844 4735.164062 -77.117188 4735.164062 C -39.144531 4735.164062 -8.035156 4704.054688 -8.035156 4666.082031 C -8.035156 4628.109375 -38.917969 4597.003906 -77.117188 4597.003906 Z M -77.117188 4597.003906 " clip-rule="nonzero"/></clipPath><clipPath id="efab44f6f2"><path d="M 658.546875 4685.066406 L 767.964844 4685.066406 L 767.964844 5120 L 658.546875 5120 Z M 658.546875 4685.066406 " clip-rule="nonzero"/></clipPath><clipPath id="70f7985f8c"><path d="M 875.589844 5119.476562 C 756.085938 5119.476562 658.546875 5021.9375 658.546875 4902.113281 C 658.546875 4782.609375 756.085938 4685.066406 875.589844 4685.066406 C 995.417969 4685.066406 1092.632812 4782.609375 1092.632812 4902.113281 C 1092.957031 5021.9375 995.417969 5119.476562 875.589844 5119.476562 Z M 875.589844 4804.570312 C 821.976562 4804.570312 778.050781 4848.496094 778.050781 4902.113281 C 778.050781 4955.726562 821.976562 4999.652344 875.589844 4999.652344 C 929.207031 4999.652344 973.128906 4955.726562 973.128906 4902.113281 C 973.128906 4848.496094 929.527344 4804.570312 875.589844 4804.570312 Z M 875.589844 4804.570312 " clip-rule="nonzero"/></clipPath><clipPath id="a66cf08dc3"><path d="M 0.0351562 3958.578125 L 43.941406 3958.578125 L 43.941406 4046 L 0.0351562 4046 Z M 0.0351562 3958.578125 " clip-rule="nonzero"/></clipPath><clipPath id="bb0c9a7b94"><path d="M 0 4045.746094 C -23.976562 4045.746094 -43.550781 4026.171875 -43.550781 4002.128906 C -43.550781 3978.152344 -23.976562 3958.578125 0 3958.578125 C 24.042969 3958.578125 43.550781 3978.152344 43.550781 4002.128906 C 43.617188 4026.171875 24.042969 4045.746094 0 4045.746094 Z M 0 3982.558594 C -10.757812 3982.558594 -19.570312 3991.371094 -19.570312 4002.128906 C -19.570312 4012.886719 -10.757812 4021.703125 0 4021.703125 C 10.757812 4021.703125 19.574219 4012.886719 19.574219 4002.128906 C 19.574219 3991.371094 10.824219 3982.558594 0 3982.558594 Z M 0 3982.558594 " clip-rule="nonzero"/></clipPath><clipPath id="a9b0b18b74"><path d="M 706.890625 3844.738281 L 767.964844 3844.738281 L 767.964844 4014 L 706.890625 4014 Z M 706.890625 3844.738281 " clip-rule="nonzero"/></clipPath><clipPath id="8c4174711d"><path d="M 791.257812 4013.601562 C 744.804688 4013.601562 706.890625 3975.683594 706.890625 3929.105469 C 706.890625 3882.65625 744.804688 3844.738281 791.257812 3844.738281 C 837.835938 3844.738281 875.625 3882.65625 875.625 3929.105469 C 875.753906 3975.683594 837.835938 4013.601562 791.257812 4013.601562 Z M 791.257812 3891.191406 C 770.417969 3891.191406 753.34375 3908.265625 753.34375 3929.105469 C 753.34375 3949.949219 770.417969 3967.023438 791.257812 3967.023438 C 812.097656 3967.023438 829.175781 3949.949219 829.175781 3929.105469 C 829.175781 3908.265625 812.226562 3891.191406 791.257812 3891.191406 Z M 791.257812 3891.191406 " clip-rule="nonzero"/></clipPath><clipPath id="efa82ce9e7"><path d="M 725.46875 4032.382812 L 767.964844 4032.382812 L 767.964844 4160 L 725.46875 4160 Z M 725.46875 4032.382812 " clip-rule="nonzero"/></clipPath><clipPath id="6100899636"><path d="M 789.023438 4159.585938 C 754.03125 4159.585938 725.46875 4131.023438 725.46875 4095.9375 C 725.46875 4060.945312 754.03125 4032.382812 789.023438 4032.382812 C 824.109375 4032.382812 852.578125 4060.945312 852.578125 4095.9375 C 852.671875 4131.023438 824.109375 4159.585938 789.023438 4159.585938 Z M 789.023438 4067.375 C 773.324219 4067.375 760.460938 4080.238281 760.460938 4095.9375 C 760.460938 4111.636719 773.324219 4124.5 789.023438 4124.5 C 804.722656 4124.5 817.585938 4111.636719 817.585938 4095.9375 C 817.585938 4080.238281 804.816406 4067.375 789.023438 4067.375 Z M 789.023438 4067.375 " clip-rule="nonzero"/></clipPath><clipPath id="ce2736a828"><path d="M 725.46875 5189.699219 L 767.964844 5189.699219 L 767.964844 5429.917969 L 725.46875 5429.917969 Z M 725.46875 5189.699219 " clip-rule="nonzero"/></clipPath><clipPath id="59c70a513b"><path d="M 845.046875 5429.027344 C 779.207031 5429.027344 725.46875 5375.289062 725.46875 5309.273438 C 725.46875 5243.433594 779.207031 5189.699219 845.046875 5189.699219 C 911.0625 5189.699219 964.621094 5243.433594 964.621094 5309.273438 C 964.800781 5375.289062 911.0625 5429.027344 845.046875 5429.027344 Z M 845.046875 5255.535156 C 815.507812 5255.535156 791.308594 5279.734375 791.308594 5309.273438 C 791.308594 5338.8125 815.507812 5363.011719 845.046875 5363.011719 C 874.582031 5363.011719 898.785156 5338.8125 898.785156 5309.273438 C 898.785156 5279.734375 874.761719 5255.535156 845.046875 5255.535156 Z M 845.046875 5255.535156 " clip-rule="nonzero"/></clipPath><clipPath id="ae5c3719b3"><path d="M 0.0351562 5201.898438 L 77 5201.898438 L 77 5316.890625 L 0.0351562 5316.890625 Z M 0.0351562 5201.898438 " clip-rule="nonzero"/></clipPath><clipPath id="b478b84b78"><path d="M 19.5 5316.464844 C -12.015625 5316.464844 -37.742188 5290.738281 -37.742188 5259.136719 C -37.742188 5227.621094 -12.015625 5201.898438 19.5 5201.898438 C 51.101562 5201.898438 76.742188 5227.621094 76.742188 5259.136719 C 76.828125 5290.738281 51.101562 5316.464844 19.5 5316.464844 Z M 19.5 5233.414062 C 5.359375 5233.414062 -6.222656 5244.996094 -6.222656 5259.136719 C -6.222656 5273.277344 5.359375 5284.863281 19.5 5284.863281 C 33.640625 5284.863281 45.226562 5273.277344 45.226562 5259.136719 C 45.226562 5244.996094 33.726562 5233.414062 19.5 5233.414062 Z M 19.5 5233.414062 " clip-rule="nonzero"/></clipPath><clipPath id="98caf4b171"><path d="M 0.0351562 5002.316406 L 109 5002.316406 L 109 5282 L 0.0351562 5282 Z M 0.0351562 5002.316406 " clip-rule="nonzero"/></clipPath><clipPath id="9775795ccf"><path d="M -31.410156 5281.882812 C -108.316406 5281.882812 -171.089844 5219.109375 -171.089844 5141.996094 C -171.089844 5065.089844 -108.316406 5002.316406 -31.410156 5002.316406 C 45.703125 5002.316406 108.269531 5065.089844 108.269531 5141.996094 C 108.476562 5219.109375 45.703125 5281.882812 -31.410156 5281.882812 Z M -31.410156 5079.222656 C -65.914062 5079.222656 -94.183594 5107.492188 -94.183594 5141.996094 C -94.183594 5176.5 -65.914062 5204.769531 -31.410156 5204.769531 C 3.09375 5204.769531 31.363281 5176.5 31.363281 5141.996094 C 31.363281 5107.492188 3.300781 5079.222656 -31.410156 5079.222656 Z M -31.410156 5079.222656 " clip-rule="nonzero"/></clipPath><clipPath id="d145128117"><path d="M 0.0351562 5440.851562 L 77 5440.851562 L 77 5692 L 0.0351562 5692 Z M 0.0351562 5440.851562 " clip-rule="nonzero"/></clipPath><clipPath id="fe807459e4"><path d="M -50.738281 5695.796875 C -120.871094 5695.796875 -178.117188 5638.554688 -178.117188 5568.230469 C -178.117188 5498.097656 -120.871094 5440.851562 -50.738281 5440.851562 C 19.582031 5440.851562 76.636719 5498.097656 76.636719 5568.230469 C 76.828125 5638.554688 19.582031 5695.796875 -50.738281 5695.796875 Z M -50.738281 5510.984375 C -82.203125 5510.984375 -107.984375 5536.765625 -107.984375 5568.230469 C -107.984375 5599.695312 -82.203125 5625.472656 -50.738281 5625.472656 C -19.273438 5625.472656 6.503906 5599.695312 6.503906 5568.230469 C 6.503906 5536.765625 -19.085938 5510.984375 -50.738281 5510.984375 Z M -50.738281 5510.984375 " clip-rule="nonzero"/></clipPath><clipPath id="d42c44af75"><path d="M 0.0351562 5636.910156 L 43.941406 5636.910156 L 43.941406 5692 L 0.0351562 5692 Z M 0.0351562 5636.910156 " clip-rule="nonzero"/></clipPath><clipPath id="1e7f178106"><path d="M 0 5724.074219 C -23.976562 5724.074219 -43.550781 5704.503906 -43.550781 5680.460938 C -43.550781 5656.480469 -23.976562 5636.910156 0 5636.910156 C 24.042969 5636.910156 43.550781 5656.480469 43.550781 5680.460938 C 43.617188 5704.503906 24.042969 5724.074219 0 5724.074219 Z M 0 5660.890625 C -10.757812 5660.890625 -19.570312 5669.703125 -19.570312 5680.460938 C -19.570312 5691.21875 -10.757812 5700.03125 0 5700.03125 C 10.757812 5700.03125 19.574219 5691.21875 19.574219 5680.460938 C 19.574219 5669.703125 10.824219 5660.890625 0 5660.890625 Z M 0 5660.890625 " clip-rule="nonzero"/></clipPath><clipPath id="4ea8c197d9"><path d="M 706.890625 5523.070312 L 767.964844 5523.070312 L 767.964844 5692 L 706.890625 5692 Z M 706.890625 5523.070312 " clip-rule="nonzero"/></clipPath><clipPath id="cb507c7e8a"><path d="M 791.257812 5691.933594 C 744.804688 5691.933594 706.890625 5654.015625 706.890625 5607.4375 C 706.890625 5560.984375 744.804688 5523.070312 791.257812 5523.070312 C 837.835938 5523.070312 875.625 5560.984375 875.625 5607.4375 C 875.753906 5654.015625 837.835938 5691.933594 791.257812 5691.933594 Z M 791.257812 5569.523438 C 770.417969 5569.523438 753.34375 5586.597656 753.34375 5607.4375 C 753.34375 5628.277344 770.417969 5645.355469 791.257812 5645.355469 C 812.097656 5645.355469 829.175781 5628.277344 829.175781 5607.4375 C 829.175781 5586.597656 812.226562 5569.523438 791.257812 5569.523438 Z M 791.257812 5569.523438 " clip-rule="nonzero"/></clipPath><clipPath id="c4118d7d8b"><path d="M 691.171875 1116.472656 L 767.964844 1116.472656 L 767.964844 1333 L 691.171875 1333 Z M 691.171875 1116.472656 " clip-rule="nonzero"/></clipPath><clipPath id="6a34273beb"><path d="M 799.226562 1332.738281 C 739.730469 1332.738281 691.171875 1284.179688 691.171875 1224.523438 C 691.171875 1165.03125 739.730469 1116.472656 799.226562 1116.472656 C 858.878906 1116.472656 907.277344 1165.03125 907.277344 1224.523438 C 907.4375 1284.179688 858.878906 1332.738281 799.226562 1332.738281 Z M 799.226562 1175.964844 C 772.535156 1175.964844 750.667969 1197.832031 750.667969 1224.523438 C 750.667969 1251.214844 772.535156 1273.082031 799.226562 1273.082031 C 825.917969 1273.082031 847.785156 1251.214844 847.785156 1224.523438 C 847.785156 1197.832031 826.078125 1175.964844 799.226562 1175.964844 Z M 799.226562 1175.964844 " clip-rule="nonzero"/></clipPath></defs><g clip-path="url(#6aefc28ff0)"><path fill="#ffffff" d="M 0.0351562 0 L 767.964844 0 L 767.964844 5699.5 L 0.0351562 5699.5 Z M 0.0351562 0 " fill-opacity="1" fill-rule="nonzero"/><path fill="#ffffff" d="M 0.0351562 0 L 767.964844 0 L 767.964844 5692 L 0.0351562 5692 Z M 0.0351562 0 " fill-opacity="1" fill-rule="nonzero"/><path fill="#000000" d="M 0.0351562 0 L 767.964844 0 L 767.964844 5692 L 0.0351562 5692 Z M 0.0351562 0 " fill-opacity="1" fill-rule="nonzero"/></g><g clip-path="url(#500e456f0c)"><g clip-path="url(#9a8f1d65e6)"><path fill="#68faf0" d="M 725.46875 311.476562 L 965.6875 311.476562 L 965.6875 551.695312 L 725.46875 551.695312 Z M 725.46875 311.476562 " fill-opacity="1" fill-rule="nonzero"/></g></g><g clip-path="url(#73aa7d297f)"><g clip-path="url(#c8f62b9f00)"><path fill="#49a3a0" d="M -37.742188 323.675781 L 77.253906 323.675781 L 77.253906 438.667969 L -37.742188 438.667969 Z M -37.742188 323.675781 " fill-opacity="1" fill-rule="nonzero"/></g></g><g clip-path="url(#bb95397e21)"><g clip-path="url(#dfac897a43)"><path fill="#68faf0" d="M -171.089844 124.09375 L 109.515625 124.09375 L 109.515625 404.699219 L -171.089844 404.699219 Z M -171.089844 124.09375 " fill-opacity="1" fill-rule="nonzero"/></g></g><g clip-path="url(#c00c152ede)"><g clip-path="url(#86e93f43d8)"><path fill="#49a3a0" d="M -178.117188 562.632812 L 77.773438 562.632812 L 77.773438 818.523438 L -178.117188 818.523438 Z M -178.117188 562.632812 " fill-opacity="1" fill-rule="nonzero"/></g></g><g clip-path="url(#2879b962f1)"><g clip-path="url(#65bfabdc88)"><path fill="#49a3a0" d="M 725.46875 76.792969 L 857.660156 76.792969 L 857.660156 208.984375 L 725.46875 208.984375 Z M 725.46875 76.792969 " fill-opacity="1" fill-rule="nonzero"/></g></g><g clip-path="url(#96fc960d9f)"><path fill="#5e666a" d="M -31.304688 -140.382812 L 796.621094 -140.382812 L 796.621094 36 L -31.304688 36 Z M -31.304688 -140.382812 " fill-opacity="1" fill-rule="nonzero"/></g><g clip-path="url(#31a39c4508)"><g clip-path="url(#7ed0f6dbb7)"><path fill="#68faf0" d="M -127.4375 1254.828125 L 84.828125 1254.828125 L 84.828125 1467.09375 L -127.4375 1467.09375 Z M -127.4375 1254.828125 " fill-opacity="1" fill-rule="nonzero"/></g></g><g clip-path="url(#b3dcd3b3f8)"><g clip-path="url(#f418a096c6)"><path fill="#68faf0" d="M -139.4375 941.890625 L 77.632812 941.890625 L 77.632812 1158.960938 L -139.4375 1158.960938 Z M -139.4375 941.890625 " fill-opacity="1" fill-rule="nonzero"/></g></g><g clip-path="url(#a584d9bc17)"><g clip-path="url(#d0bf5d767b)"><path fill="#49a3a0" d="M -230.832031 1312.476562 L 77.972656 1312.476562 L 77.972656 1621.28125 L -230.832031 1621.28125 Z M -230.832031 1312.476562 " fill-opacity="1" fill-rule="nonzero"/></g></g><g clip-path="url(#f758a2151e)"><g clip-path="url(#27a7047543)"><path fill="#68faf0" d="M -119.066406 1684.929688 L 77.554688 1684.929688 L 77.554688 1881.550781 L -119.066406 1881.550781 Z M -119.066406 1684.929688 " fill-opacity="1" fill-rule="nonzero"/></g></g><g clip-path="url(#c8b7a1dae8)"><g clip-path="url(#3b6cc53a3c)"><path fill="#49a3a0" d="M 639.96875 1467.726562 L 1075.992188 1467.726562 L 1075.992188 1903.75 L 639.96875 1903.75 Z M 639.96875 1467.726562 " fill-opacity="1" fill-rule="nonzero"/></g></g><g clip-path="url(#2a901c72e5)"><g clip-path="url(#17abc0d2f5)"><path fill="#68faf0" d="M -43.550781 758.6875 L 43.941406 758.6875 L 43.941406 846.179688 L -43.550781 846.179688 Z M -43.550781 758.6875 " fill-opacity="1" fill-rule="nonzero"/></g></g><g clip-path="url(#c8febe1d70)"><g clip-path="url(#7c9bf77dc9)"><path fill="#49a3a0" d="M 706.890625 644.847656 L 876.378906 644.847656 L 876.378906 814.339844 L 706.890625 814.339844 Z M 706.890625 644.847656 " fill-opacity="1" fill-rule="nonzero"/></g></g><g clip-path="url(#dd2bda917a)"><g clip-path="url(#ce853a7d0e)"><path fill="#68faf0" d="M 725.46875 832.492188 L 853.144531 832.492188 L 853.144531 960.167969 L 725.46875 960.167969 Z M 725.46875 832.492188 " fill-opacity="1" fill-rule="nonzero"/></g></g><g clip-path="url(#4f84a780be)"><g clip-path="url(#03b99246f5)"><path fill="#68faf0" d="M 725.46875 2189.613281 L 965.6875 2189.613281 L 965.6875 2429.832031 L 725.46875 2429.832031 Z M 725.46875 2189.613281 " fill-opacity="1" fill-rule="nonzero"/></g></g><g clip-path="url(#44561af1d8)"><g clip-path="url(#29edab54b9)"><path fill="#49a3a0" d="M -37.742188 2201.8125 L 77.253906 2201.8125 L 77.253906 2316.804688 L -37.742188 2316.804688 Z M -37.742188 2201.8125 " fill-opacity="1" fill-rule="nonzero"/></g></g><g clip-path="url(#099787382c)"><g clip-path="url(#156f6a42fa)"><path fill="#68faf0" d="M -171.089844 2002.230469 L 109.515625 2002.230469 L 109.515625 2282.835938 L -171.089844 2282.835938 Z M -171.089844 2002.230469 " fill-opacity="1" fill-rule="nonzero"/></g></g><g clip-path="url(#12809d2672)"><g clip-path="url(#47b6ff6a45)"><path fill="#49a3a0" d="M -178.117188 2440.769531 L 77.773438 2440.769531 L 77.773438 2696.660156 L -178.117188 2696.660156 Z M -178.117188 2440.769531 " fill-opacity="1" fill-rule="nonzero"/></g></g><g clip-path="url(#8053bafc2f)"><g clip-path="url(#c2aa1ad3be)"><path fill="#49a3a0" d="M 725.46875 1954.929688 L 857.660156 1954.929688 L 857.660156 2087.121094 L 725.46875 2087.121094 Z M 725.46875 1954.929688 " fill-opacity="1" fill-rule="nonzero"/></g></g><g clip-path="url(#593dbaa0a8)"><g clip-path="url(#eef5634be9)"><path fill="#49a3a0" d="M 725.46875 2972.832031 L 894.960938 2972.832031 L 894.960938 3142.324219 L 725.46875 3142.324219 Z M 725.46875 2972.832031 " fill-opacity="1" fill-rule="nonzero"/></g></g><g clip-path="url(#de3f3f2b8a)"><g clip-path="url(#5d38a2afce)"><path fill="#68faf0" d="M -139.4375 2820.027344 L 77.632812 2820.027344 L 77.632812 3037.097656 L -139.4375 3037.097656 Z M -139.4375 2820.027344 " fill-opacity="1" fill-rule="nonzero"/></g></g><g clip-path="url(#f199822c3c)"><g clip-path="url(#fe53ce2dd4)"><path fill="#68faf0" d="M -43.550781 2636.824219 L 43.941406 2636.824219 L 43.941406 2724.316406 L -43.550781 2724.316406 Z M -43.550781 2636.824219 " fill-opacity="1" fill-rule="nonzero"/></g></g><g clip-path="url(#9aa2288c6c)"><g clip-path="url(#add3687816)"><path fill="#68faf0" d="M 725.46875 2710.628906 L 853.144531 2710.628906 L 853.144531 2838.304688 L 725.46875 2838.304688 Z M 725.46875 2710.628906 " fill-opacity="1" fill-rule="nonzero"/></g></g><g clip-path="url(#c290873386)"><g clip-path="url(#04dcd52c54)"><path fill="#68faf0" d="M 725.46875 3511.367188 L 965.6875 3511.367188 L 965.6875 3751.585938 L 725.46875 3751.585938 Z M 725.46875 3511.367188 " fill-opacity="1" fill-rule="nonzero"/></g></g><g clip-path="url(#e3159464ef)"><g clip-path="url(#0baadfaad0)"><path fill="#49a3a0" d="M -37.742188 3523.566406 L 77.253906 3523.566406 L 77.253906 3638.558594 L -37.742188 3638.558594 Z M -37.742188 3523.566406 " fill-opacity="1" fill-rule="nonzero"/></g></g><g clip-path="url(#a5423b4021)"><g clip-path="url(#e4a450795a)"><path fill="#68faf0" d="M -171.089844 3323.984375 L 109.515625 3323.984375 L 109.515625 3604.589844 L -171.089844 3604.589844 Z M -171.089844 3323.984375 " fill-opacity="1" fill-rule="nonzero"/></g></g><g clip-path="url(#7364e812da)"><g clip-path="url(#19966176a9)"><path fill="#49a3a0" d="M -178.117188 3762.523438 L 77.773438 3762.523438 L 77.773438 4018.414062 L -178.117188 4018.414062 Z M -178.117188 3762.523438 " fill-opacity="1" fill-rule="nonzero"/></g></g><g clip-path="url(#2ca29f5129)"><g clip-path="url(#e45bfeb2a3)"><path fill="#49a3a0" d="M 725.46875 3276.683594 L 857.660156 3276.683594 L 857.660156 3408.875 L 725.46875 3408.875 Z M 725.46875 3276.683594 " fill-opacity="1" fill-rule="nonzero"/></g></g><g clip-path="url(#9b43938c7e)"><g clip-path="url(#2c9f767a96)"><path fill="#68faf0" d="M -127.4375 4454.71875 L 84.828125 4454.71875 L 84.828125 4666.984375 L -127.4375 4666.984375 Z M -127.4375 4454.71875 " fill-opacity="1" fill-rule="nonzero"/></g></g><g clip-path="url(#eb5c042b6d)"><g clip-path="url(#3f71a64d24)"><path fill="#68faf0" d="M -139.4375 4141.78125 L 77.632812 4141.78125 L 77.632812 4358.851562 L -139.4375 4358.851562 Z M -139.4375 4141.78125 " fill-opacity="1" fill-rule="nonzero"/></g></g><g clip-path="url(#e322e5f212)"><g clip-path="url(#fd49292071)"><path fill="#68faf0" d="M 706.890625 4398.582031 L 923.960938 4398.582031 L 923.960938 4615.652344 L 706.890625 4615.652344 Z M 706.890625 4398.582031 " fill-opacity="1" fill-rule="nonzero"/></g></g><g clip-path="url(#add003eebb)"><g clip-path="url(#30973d1db1)"><path fill="#49a3a0" d="M -230.832031 4512.367188 L 77.972656 4512.367188 L 77.972656 4821.171875 L -230.832031 4821.171875 Z M -230.832031 4512.367188 " fill-opacity="1" fill-rule="nonzero"/></g></g><g clip-path="url(#efab44f6f2)"><g clip-path="url(#70f7985f8c)"><path fill="#49a3a0" d="M 658.546875 4685.066406 L 1094.570312 4685.066406 L 1094.570312 5121.09375 L 658.546875 5121.09375 Z M 658.546875 4685.066406 " fill-opacity="1" fill-rule="nonzero"/></g></g><g clip-path="url(#a66cf08dc3)"><g clip-path="url(#bb0c9a7b94)"><path fill="#68faf0" d="M -43.550781 3958.578125 L 43.941406 3958.578125 L 43.941406 4046.070312 L -43.550781 4046.070312 Z M -43.550781 3958.578125 " fill-opacity="1" fill-rule="nonzero"/></g></g><g clip-path="url(#a9b0b18b74)"><g clip-path="url(#8c4174711d)"><path fill="#49a3a0" d="M 706.890625 3844.738281 L 876.378906 3844.738281 L 876.378906 4014.230469 L 706.890625 4014.230469 Z M 706.890625 3844.738281 " fill-opacity="1" fill-rule="nonzero"/></g></g><g clip-path="url(#efa82ce9e7)"><g clip-path="url(#6100899636)"><path fill="#68faf0" d="M 725.46875 4032.382812 L 853.144531 4032.382812 L 853.144531 4160.058594 L 725.46875 4160.058594 Z M 725.46875 4032.382812 " fill-opacity="1" fill-rule="nonzero"/></g></g><g clip-path="url(#ce2736a828)"><g clip-path="url(#59c70a513b)"><path fill="#68faf0" d="M 725.46875 5189.699219 L 965.6875 5189.699219 L 965.6875 5429.917969 L 725.46875 5429.917969 Z M 725.46875 5189.699219 " fill-opacity="1" fill-rule="nonzero"/></g></g><g clip-path="url(#ae5c3719b3)"><g clip-path="url(#b478b84b78)"><path fill="#49a3a0" d="M -37.742188 5201.898438 L 77.253906 5201.898438 L 77.253906 5316.890625 L -37.742188 5316.890625 Z M -37.742188 5201.898438 " fill-opacity="1" fill-rule="nonzero"/></g></g><g clip-path="url(#98caf4b171)"><g clip-path="url(#9775795ccf)"><path fill="#68faf0" d="M -171.089844 5002.316406 L 109.515625 5002.316406 L 109.515625 5282.921875 L -171.089844 5282.921875 Z M -171.089844 5002.316406 " fill-opacity="1" fill-rule="nonzero"/></g></g><g clip-path="url(#d145128117)"><g clip-path="url(#fe807459e4)"><path fill="#49a3a0" d="M -178.117188 5440.851562 L 77.773438 5440.851562 L 77.773438 5696.746094 L -178.117188 5696.746094 Z M -178.117188 5440.851562 " fill-opacity="1" fill-rule="nonzero"/></g></g><g clip-path="url(#d42c44af75)"><g clip-path="url(#1e7f178106)"><path fill="#68faf0" d="M -43.550781 5636.910156 L 43.941406 5636.910156 L 43.941406 5724.398438 L -43.550781 5724.398438 Z M -43.550781 5636.910156 " fill-opacity="1" fill-rule="nonzero"/></g></g><g clip-path="url(#4ea8c197d9)"><g clip-path="url(#cb507c7e8a)"><path fill="#49a3a0" d="M 706.890625 5523.070312 L 876.378906 5523.070312 L 876.378906 5692.558594 L 706.890625 5692.558594 Z M 706.890625 5523.070312 " fill-opacity="1" fill-rule="nonzero"/></g></g><g clip-path="url(#c4118d7d8b)"><g clip-path="url(#6a34273beb)"><path fill="#68faf0" d="M 691.171875 1116.472656 L 908.242188 1116.472656 L 908.242188 1333.542969 L 691.171875 1333.542969 Z M 691.171875 1116.472656 " fill-opacity="1" fill-rule="nonzero"/></g></g></svg>