<svg xmlns="http://www.w3.org/2000/svg" xmlns:xlink="http://www.w3.org/1999/xlink" width="1024" zoomAndPan="magnify" viewBox="0 0 768 809.999993" height="1080" preserveAspectRatio="xMidYMid meet" version="1.0"><defs><clipPath id="3cd4c94b42"><path d="M 0 0 L 637 0 L 637 150 L 0 150 Z M 0 0 " clip-rule="nonzero"/></clipPath><clipPath id="f4611fb19d"><path d="M -177.058594 -17.449219 L 594.144531 -227.132812 L 639.480469 -60.382812 L -131.722656 149.296875 Z M -177.058594 -17.449219 " clip-rule="nonzero"/></clipPath><clipPath id="683d688659"><path d="M -177.058594 -17.449219 L 591.613281 -226.441406 L 636.949219 -59.695312 L -131.722656 149.296875 Z M -177.058594 -17.449219 " clip-rule="nonzero"/></clipPath><clipPath id="5b12b81f6a"><path d="M 0 275 L 768 275 L 768 652 L 0 652 Z M 0 275 " clip-rule="nonzero"/></clipPath><clipPath id="48b67568da"><path d="M -151.257812 482.746094 L 858.972656 274.859375 L 893.804688 444.113281 L -116.429688 652 Z M -151.257812 482.746094 " clip-rule="nonzero"/></clipPath><clipPath id="b1624f17d5"><path d="M -151.257812 482.746094 L 858.015625 275.054688 L 892.84375 444.308594 L -116.429688 652 Z M -151.257812 482.746094 " clip-rule="nonzero"/></clipPath><clipPath id="e5ab7a41cb"><path d="M 0 0 L 768 0 L 768 140 L 0 140 Z M 0 0 " clip-rule="nonzero"/></clipPath><clipPath id="39347b2beb"><path d="M -151.257812 -29.945312 L 858.972656 -237.832031 L 893.804688 -68.578125 L -116.429688 139.308594 Z M -151.257812 -29.945312 " clip-rule="nonzero"/></clipPath><clipPath id="736364e5f0"><path d="M -151.257812 -29.945312 L 858.015625 -237.632812 L 892.84375 -68.378906 L -116.429688 139.308594 Z M -151.257812 -29.945312 " clip-rule="nonzero"/></clipPath></defs><rect x="-76.8" width="921.6" fill="#ffffff" y="-80.999999" height="971.999992" fill-opacity="1"/><rect x="-76.8" width="921.6" fill="#ffffff" y="-80.999999" height="971.999992" fill-opacity="1"/><rect x="-76.8" width="921.6" fill="#000000" y="-80.999999" height="971.999992" fill-opacity="1"/><g clip-path="url(#3cd4c94b42)"><g clip-path="url(#f4611fb19d)"><g clip-path="url(#683d688659)"><path fill="#5e666a" d="M -177.058594 -17.449219 L 591.539062 -226.421875 L 636.875 -59.675781 L -131.722656 149.296875 Z M -177.058594 -17.449219 " fill-opacity="1" fill-rule="nonzero"/></g></g></g><g clip-path="url(#5b12b81f6a)"><g clip-path="url(#48b67568da)"><g clip-path="url(#b1624f17d5)"><path fill="#5e666a" d="M -151.257812 482.746094 L 858.972656 274.859375 L 893.804688 444.113281 L -116.429688 652 Z M -151.257812 482.746094 " fill-opacity="1" fill-rule="nonzero"/></g></g></g><g clip-path="url(#e5ab7a41cb)"><g clip-path="url(#39347b2beb)"><g clip-path="url(#736364e5f0)"><path fill="#5e666a" d="M -151.257812 -29.945312 L 858.972656 -237.832031 L 893.804688 -68.578125 L -116.429688 139.308594 Z M -151.257812 -29.945312 " fill-opacity="1" fill-rule="nonzero"/></g></g></g></svg>