<svg xmlns="http://www.w3.org/2000/svg" xmlns:xlink="http://www.w3.org/1999/xlink" width="1920" zoomAndPan="magnify" viewBox="0 0 1440 5692.49983" height="7590" preserveAspectRatio="xMidYMid meet" version="1.0"><defs><clipPath id="6a61105b22"><path d="M 0.0625 0 L 1439.9375 0 L 1439.9375 5692 L 0.0625 5692 Z M 0.0625 0 " clip-rule="nonzero"/></clipPath><clipPath id="917ab12566"><path d="M 1233.703125 584.019531 L 1439.9375 584.019531 L 1439.9375 1033 L 1233.703125 1033 Z M 1233.703125 584.019531 " clip-rule="nonzero"/></clipPath><clipPath id="b11d07a1b2"><path d="M 1457.910156 1032.761719 C 1334.464844 1032.761719 1233.703125 932.003906 1233.703125 808.222656 C 1233.703125 684.777344 1334.464844 584.019531 1457.910156 584.019531 C 1581.691406 584.019531 1682.113281 684.777344 1682.113281 808.222656 C 1682.449219 932.003906 1581.691406 1032.761719 1457.910156 1032.761719 Z M 1457.910156 707.464844 C 1402.527344 707.464844 1357.152344 752.839844 1357.152344 808.222656 C 1357.152344 863.605469 1402.527344 908.980469 1457.910156 908.980469 C 1513.292969 908.980469 1558.667969 863.605469 1558.667969 808.222656 C 1558.667969 752.839844 1513.628906 707.464844 1457.910156 707.464844 Z M 1457.910156 707.464844 " clip-rule="nonzero"/></clipPath><clipPath id="c54f48602c"><path d="M 0.0625 606.890625 L 144 606.890625 L 144 822 L 0.0625 822 Z M 0.0625 606.890625 " clip-rule="nonzero"/></clipPath><clipPath id="167f94e1ff"><path d="M 36.5625 821.707031 C -22.53125 821.707031 -70.765625 773.472656 -70.765625 714.21875 C -70.765625 655.125 -22.53125 606.890625 36.5625 606.890625 C 95.816406 606.890625 143.890625 655.125 143.890625 714.21875 C 144.050781 773.472656 95.816406 821.707031 36.5625 821.707031 Z M 36.5625 665.984375 C 10.050781 665.984375 -11.667969 687.707031 -11.667969 714.21875 C -11.667969 740.730469 10.050781 762.453125 36.5625 762.453125 C 63.074219 762.453125 84.796875 740.730469 84.796875 714.21875 C 84.796875 687.707031 63.234375 665.984375 36.5625 665.984375 Z M 36.5625 665.984375 " clip-rule="nonzero"/></clipPath><clipPath id="016966bc28"><path d="M 0.0625 232.675781 L 204 232.675781 L 204 757 L 0.0625 757 Z M 0.0625 232.675781 " clip-rule="nonzero"/></clipPath><clipPath id="5389eb3bc5"><path d="M -58.894531 756.863281 C -203.09375 756.863281 -320.792969 639.164062 -320.792969 494.574219 C -320.792969 350.375 -203.09375 232.675781 -58.894531 232.675781 C 85.695312 232.675781 203.007812 350.375 203.007812 494.574219 C 203.394531 639.164062 85.695312 756.863281 -58.894531 756.863281 Z M -58.894531 376.875 C -123.589844 376.875 -176.59375 429.878906 -176.59375 494.574219 C -176.59375 559.269531 -123.589844 612.273438 -58.894531 612.273438 C 5.800781 612.273438 58.804688 559.269531 58.804688 494.574219 C 58.804688 429.878906 6.191406 376.875 -58.894531 376.875 Z M -58.894531 376.875 " clip-rule="nonzero"/></clipPath><clipPath id="605499ca8e"><path d="M 0.0625 1054.933594 L 144 1054.933594 L 144 1533 L 0.0625 1533 Z M 0.0625 1054.933594 " clip-rule="nonzero"/></clipPath><clipPath id="1d79fafb32"><path d="M -95.136719 1532.953125 C -226.636719 1532.953125 -333.96875 1425.621094 -333.96875 1293.765625 C -333.96875 1162.265625 -226.636719 1054.933594 -95.136719 1054.933594 C 36.71875 1054.933594 143.695312 1162.265625 143.695312 1293.765625 C 144.050781 1425.621094 36.71875 1532.953125 -95.136719 1532.953125 Z M -95.136719 1186.433594 C -154.132812 1186.433594 -202.46875 1234.769531 -202.46875 1293.765625 C -202.46875 1352.761719 -154.132812 1401.097656 -95.136719 1401.097656 C -36.140625 1401.097656 12.195312 1352.761719 12.195312 1293.765625 C 12.195312 1234.769531 -35.785156 1186.433594 -95.136719 1186.433594 Z M -95.136719 1186.433594 " clip-rule="nonzero"/></clipPath><clipPath id="2e1048bc3c"><path d="M 1233.703125 143.988281 L 1439.9375 143.988281 L 1439.9375 391 L 1233.703125 391 Z M 1233.703125 143.988281 " clip-rule="nonzero"/></clipPath><clipPath id="541ea9b1c3"><path d="M 1357.082031 390.929688 C 1289.152344 390.929688 1233.703125 335.480469 1233.703125 267.367188 C 1233.703125 199.433594 1289.152344 143.988281 1357.082031 143.988281 C 1425.199219 143.988281 1480.460938 199.433594 1480.460938 267.367188 C 1480.648438 335.480469 1425.199219 390.929688 1357.082031 390.929688 Z M 1357.082031 211.917969 C 1326.605469 211.917969 1301.636719 236.890625 1301.636719 267.367188 C 1301.636719 297.84375 1326.605469 322.8125 1357.082031 322.8125 C 1387.5625 322.8125 1412.53125 297.84375 1412.53125 267.367188 C 1412.53125 236.890625 1387.746094 211.917969 1357.082031 211.917969 Z M 1357.082031 211.917969 " clip-rule="nonzero"/></clipPath><clipPath id="40bbd1f6f4"><path d="M 0.0625 0 L 1439.9375 0 L 1439.9375 111 L 0.0625 111 Z M 0.0625 0 " clip-rule="nonzero"/></clipPath><clipPath id="3b18956eff"><path d="M 0.0625 2352.800781 L 158 2352.800781 L 158 2750 L 0.0625 2750 Z M 0.0625 2352.800781 " clip-rule="nonzero"/></clipPath><clipPath id="4b35e2eab1"><path d="M -40.832031 2749.324219 C -149.914062 2749.324219 -238.945312 2660.289062 -238.945312 2550.914062 C -238.945312 2441.835938 -149.914062 2352.800781 -40.832031 2352.800781 C 68.542969 2352.800781 157.28125 2441.835938 157.28125 2550.914062 C 157.578125 2660.289062 68.542969 2749.324219 -40.832031 2749.324219 Z M -40.832031 2461.882812 C -89.769531 2461.882812 -129.867188 2501.976562 -129.867188 2550.914062 C -129.867188 2599.855469 -89.769531 2639.949219 -40.832031 2639.949219 C 8.105469 2639.949219 48.199219 2599.855469 48.199219 2550.914062 C 48.199219 2501.976562 8.402344 2461.882812 -40.832031 2461.882812 Z M -40.832031 2461.882812 " clip-rule="nonzero"/></clipPath><clipPath id="85fd094819"><path d="M 1233.703125 2052.558594 L 1439.9375 2052.558594 L 1439.9375 2370 L 1233.703125 2370 Z M 1233.703125 2052.558594 " clip-rule="nonzero"/></clipPath><clipPath id="9a8a726cf1"><path d="M 1391.894531 2369.171875 C 1304.796875 2369.171875 1233.703125 2298.082031 1233.703125 2210.746094 C 1233.703125 2123.648438 1304.796875 2052.558594 1391.894531 2052.558594 C 1479.230469 2052.558594 1550.085938 2123.648438 1550.085938 2210.746094 C 1550.320312 2298.082031 1479.230469 2369.171875 1391.894531 2369.171875 Z M 1391.894531 2139.65625 C 1352.820312 2139.65625 1320.804688 2171.671875 1320.804688 2210.746094 C 1320.804688 2249.824219 1352.820312 2281.839844 1391.894531 2281.839844 C 1430.972656 2281.839844 1462.988281 2249.824219 1462.988281 2210.746094 C 1462.988281 2171.671875 1431.207031 2139.65625 1391.894531 2139.65625 Z M 1391.894531 2139.65625 " clip-rule="nonzero"/></clipPath><clipPath id="17e6fc91e0"><path d="M 0.0625 1766.042969 L 144 1766.042969 L 144 2172 L 0.0625 2172 Z M 0.0625 1766.042969 " clip-rule="nonzero"/></clipPath><clipPath id="fc4c67238a"><path d="M -58.851562 2171.539062 C -170.398438 2171.539062 -261.449219 2080.492188 -261.449219 1968.640625 C -261.449219 1857.089844 -170.398438 1766.042969 -58.851562 1766.042969 C 53 1766.042969 143.75 1857.089844 143.75 1968.640625 C 144.050781 2080.492188 53 2171.539062 -58.851562 2171.539062 Z M -58.851562 1877.589844 C -108.898438 1877.589844 -149.898438 1918.59375 -149.898438 1968.640625 C -149.898438 2018.6875 -108.898438 2059.691406 -58.851562 2059.691406 C -8.804688 2059.691406 32.199219 2018.6875 32.199219 1968.640625 C 32.199219 1918.59375 -8.5 1877.589844 -58.851562 1877.589844 Z M -58.851562 1877.589844 " clip-rule="nonzero"/></clipPath><clipPath id="0cecc515b3"><path d="M 1198.867188 2247.546875 L 1439.9375 2247.546875 L 1439.9375 2654 L 1198.867188 2654 Z M 1198.867188 2247.546875 " clip-rule="nonzero"/></clipPath><clipPath id="0076f9c4d8"><path d="M 1401.464844 2653.046875 C 1289.917969 2653.046875 1198.867188 2561.996094 1198.867188 2450.144531 C 1198.867188 2338.59375 1289.917969 2247.546875 1401.464844 2247.546875 C 1513.316406 2247.546875 1604.066406 2338.59375 1604.066406 2450.144531 C 1604.367188 2561.996094 1513.316406 2653.046875 1401.464844 2653.046875 Z M 1401.464844 2359.097656 C 1351.417969 2359.097656 1310.417969 2400.097656 1310.417969 2450.144531 C 1310.417969 2500.191406 1351.417969 2541.195312 1401.464844 2541.195312 C 1451.511719 2541.195312 1492.515625 2500.191406 1492.515625 2450.144531 C 1492.515625 2400.097656 1451.816406 2359.097656 1401.464844 2359.097656 Z M 1401.464844 2359.097656 " clip-rule="nonzero"/></clipPath><clipPath id="d8ec380f89"><path d="M 0.0625 2460.890625 L 144 2460.890625 L 144 3038 L 0.0625 3038 Z M 0.0625 2460.890625 " clip-rule="nonzero"/></clipPath><clipPath id="406e93f0b4"><path d="M -144.59375 3037.753906 C -303.285156 3037.753906 -432.8125 2908.230469 -432.8125 2749.109375 C -432.8125 2590.417969 -303.285156 2460.890625 -144.59375 2460.890625 C 14.523438 2460.890625 143.621094 2590.417969 143.621094 2749.109375 C 144.050781 2908.230469 14.523438 3037.753906 -144.59375 3037.753906 Z M -144.59375 2619.582031 C -215.792969 2619.582031 -274.121094 2677.914062 -274.121094 2749.109375 C -274.121094 2820.304688 -215.792969 2878.636719 -144.59375 2878.636719 C -73.398438 2878.636719 -15.070312 2820.304688 -15.070312 2749.109375 C -15.070312 2677.914062 -72.96875 2619.582031 -144.59375 2619.582031 Z M -144.59375 2619.582031 " clip-rule="nonzero"/></clipPath><clipPath id="ad6a4b3d3f"><path d="M 0.0625 3159.246094 L 144 3159.246094 L 144 3527 L 0.0625 3527 Z M 0.0625 3159.246094 " clip-rule="nonzero"/></clipPath><clipPath id="304115e773"><path d="M -39.734375 3526.542969 C -140.777344 3526.542969 -223.25 3444.070312 -223.25 3342.757812 C -223.25 3241.714844 -140.777344 3159.246094 -39.734375 3159.246094 C 61.578125 3159.246094 143.777344 3241.714844 143.777344 3342.757812 C 144.050781 3444.070312 61.578125 3526.542969 -39.734375 3526.542969 Z M -39.734375 3260.285156 C -85.066406 3260.285156 -122.207031 3297.425781 -122.207031 3342.757812 C -122.207031 3388.089844 -85.066406 3425.230469 -39.734375 3425.230469 C 5.597656 3425.230469 42.734375 3388.089844 42.734375 3342.757812 C 42.734375 3297.425781 5.871094 3260.285156 -39.734375 3260.285156 Z M -39.734375 3260.285156 " clip-rule="nonzero"/></clipPath><clipPath id="2b693b19a6"><path d="M 1073.386719 2751.984375 L 1439.9375 2751.984375 L 1439.9375 3567 L 1073.386719 3567 Z M 1073.386719 2751.984375 " clip-rule="nonzero"/></clipPath><clipPath id="3249399046"><path d="M 1480.34375 3566.503906 C 1256.277344 3566.503906 1073.386719 3383.613281 1073.386719 3158.941406 C 1073.386719 2934.875 1256.277344 2751.984375 1480.34375 2751.984375 C 1705.015625 2751.984375 1887.300781 2934.875 1887.300781 3158.941406 C 1887.90625 3383.613281 1705.015625 3566.503906 1480.34375 3566.503906 Z M 1480.34375 2976.054688 C 1379.816406 2976.054688 1297.457031 3058.414062 1297.457031 3158.941406 C 1297.457031 3259.46875 1379.816406 3341.828125 1480.34375 3341.828125 C 1580.871094 3341.828125 1663.230469 3259.46875 1663.230469 3158.941406 C 1663.230469 3058.414062 1581.476562 2976.054688 1480.34375 2976.054688 Z M 1480.34375 2976.054688 " clip-rule="nonzero"/></clipPath><clipPath id="c8f2e751c6"><path d="M 0.0625 1422.542969 L 82 1422.542969 L 82 1586 L 0.0625 1586 Z M 0.0625 1422.542969 " clip-rule="nonzero"/></clipPath><clipPath id="67c0e30ae9"><path d="M 0.00390625 1585.976562 C -44.957031 1585.976562 -81.652344 1549.28125 -81.652344 1504.199219 C -81.652344 1459.238281 -44.957031 1422.542969 0.00390625 1422.542969 C 45.082031 1422.542969 81.660156 1459.238281 81.660156 1504.199219 C 81.78125 1549.28125 45.082031 1585.976562 0.00390625 1585.976562 Z M 0.00390625 1467.5 C -20.167969 1467.5 -36.695312 1484.027344 -36.695312 1504.199219 C -36.695312 1524.371094 -20.167969 1540.894531 0.00390625 1540.894531 C 20.171875 1540.894531 36.699219 1524.371094 36.699219 1504.199219 C 36.699219 1484.027344 20.296875 1467.5 0.00390625 1467.5 Z M 0.00390625 1467.5 " clip-rule="nonzero"/></clipPath><clipPath id="f7255c77ac"><path d="M 1198.867188 1209.089844 L 1439.9375 1209.089844 L 1439.9375 1526 L 1198.867188 1526 Z M 1198.867188 1209.089844 " clip-rule="nonzero"/></clipPath><clipPath id="ecd04b1c36"><path d="M 1357.058594 1525.707031 C 1269.960938 1525.707031 1198.867188 1454.617188 1198.867188 1367.28125 C 1198.867188 1280.183594 1269.960938 1209.089844 1357.058594 1209.089844 C 1444.390625 1209.089844 1515.25 1280.183594 1515.25 1367.28125 C 1515.484375 1454.617188 1444.390625 1525.707031 1357.058594 1525.707031 Z M 1357.058594 1296.191406 C 1317.980469 1296.191406 1285.964844 1328.203125 1285.964844 1367.28125 C 1285.964844 1406.359375 1317.980469 1438.371094 1357.058594 1438.371094 C 1396.136719 1438.371094 1428.148438 1406.359375 1428.148438 1367.28125 C 1428.148438 1328.203125 1396.371094 1296.191406 1357.058594 1296.191406 Z M 1357.058594 1296.191406 " clip-rule="nonzero"/></clipPath><clipPath id="513ecd38fa"><path d="M 1233.703125 1560.925781 L 1439.9375 1560.925781 L 1439.9375 1800 L 1233.703125 1800 Z M 1233.703125 1560.925781 " clip-rule="nonzero"/></clipPath><clipPath id="0182659e51"><path d="M 1352.867188 1799.429688 C 1287.257812 1799.429688 1233.703125 1745.875 1233.703125 1680.089844 C 1233.703125 1614.476562 1287.257812 1560.925781 1352.867188 1560.925781 C 1418.65625 1560.925781 1472.03125 1614.476562 1472.03125 1680.089844 C 1472.207031 1745.875 1418.65625 1799.429688 1352.867188 1799.429688 Z M 1352.867188 1626.535156 C 1323.429688 1626.535156 1299.316406 1650.652344 1299.316406 1680.089844 C 1299.316406 1709.523438 1323.429688 1733.640625 1352.867188 1733.640625 C 1382.304688 1733.640625 1406.417969 1709.523438 1406.417969 1680.089844 C 1406.417969 1650.652344 1382.480469 1626.535156 1352.867188 1626.535156 Z M 1352.867188 1626.535156 " clip-rule="nonzero"/></clipPath><clipPath id="67cff546d6"><path d="M 1233.703125 4105.523438 L 1439.9375 4105.523438 L 1439.9375 4555 L 1233.703125 4555 Z M 1233.703125 4105.523438 " clip-rule="nonzero"/></clipPath><clipPath id="35aec77ebc"><path d="M 1457.910156 4554.265625 C 1334.464844 4554.265625 1233.703125 4453.507812 1233.703125 4329.730469 C 1233.703125 4206.285156 1334.464844 4105.523438 1457.910156 4105.523438 C 1581.691406 4105.523438 1682.113281 4206.285156 1682.113281 4329.730469 C 1682.449219 4453.507812 1581.691406 4554.265625 1457.910156 4554.265625 Z M 1457.910156 4228.96875 C 1402.527344 4228.96875 1357.152344 4274.34375 1357.152344 4329.730469 C 1357.152344 4385.113281 1402.527344 4430.488281 1457.910156 4430.488281 C 1513.292969 4430.488281 1558.667969 4385.113281 1558.667969 4329.730469 C 1558.667969 4274.34375 1513.628906 4228.96875 1457.910156 4228.96875 Z M 1457.910156 4228.96875 " clip-rule="nonzero"/></clipPath><clipPath id="06f493c0ed"><path d="M 0.0625 4128.398438 L 144 4128.398438 L 144 4344 L 0.0625 4344 Z M 0.0625 4128.398438 " clip-rule="nonzero"/></clipPath><clipPath id="b3db4f99e4"><path d="M 36.5625 4343.210938 C -22.53125 4343.210938 -70.765625 4294.980469 -70.765625 4235.726562 C -70.765625 4176.632812 -22.53125 4128.398438 36.5625 4128.398438 C 95.816406 4128.398438 143.890625 4176.632812 143.890625 4235.726562 C 144.050781 4294.980469 95.816406 4343.210938 36.5625 4343.210938 Z M 36.5625 4187.492188 C 10.050781 4187.492188 -11.667969 4209.210938 -11.667969 4235.726562 C -11.667969 4262.238281 10.050781 4283.957031 36.5625 4283.957031 C 63.074219 4283.957031 84.796875 4262.238281 84.796875 4235.726562 C 84.796875 4209.210938 63.234375 4187.492188 36.5625 4187.492188 Z M 36.5625 4187.492188 " clip-rule="nonzero"/></clipPath><clipPath id="a2631a3ad2"><path d="M 0.0625 3754.183594 L 204 3754.183594 L 204 4279 L 0.0625 4279 Z M 0.0625 3754.183594 " clip-rule="nonzero"/></clipPath><clipPath id="5aebcdf3e4"><path d="M -58.894531 4278.371094 C -203.09375 4278.371094 -320.792969 4160.671875 -320.792969 4016.082031 C -320.792969 3871.878906 -203.09375 3754.183594 -58.894531 3754.183594 C 85.695312 3754.183594 203.007812 3871.878906 203.007812 4016.082031 C 203.394531 4160.671875 85.695312 4278.371094 -58.894531 4278.371094 Z M -58.894531 3898.382812 C -123.589844 3898.382812 -176.59375 3951.386719 -176.59375 4016.082031 C -176.59375 4080.777344 -123.589844 4133.78125 -58.894531 4133.78125 C 5.800781 4133.78125 58.804688 4080.777344 58.804688 4016.082031 C 58.804688 3951.386719 6.191406 3898.382812 -58.894531 3898.382812 Z M -58.894531 3898.382812 " clip-rule="nonzero"/></clipPath><clipPath id="c2276d20d2"><path d="M 0.0625 4576.441406 L 144 4576.441406 L 144 5055 L 0.0625 5055 Z M 0.0625 4576.441406 " clip-rule="nonzero"/></clipPath><clipPath id="6d9feaa1a4"><path d="M -95.136719 5054.460938 C -226.636719 5054.460938 -333.96875 4947.128906 -333.96875 4815.273438 C -333.96875 4683.773438 -226.636719 4576.441406 -95.136719 4576.441406 C 36.71875 4576.441406 143.695312 4683.773438 143.695312 4815.273438 C 144.050781 4947.128906 36.71875 5054.460938 -95.136719 5054.460938 Z M -95.136719 4707.941406 C -154.132812 4707.941406 -202.46875 4756.277344 -202.46875 4815.273438 C -202.46875 4874.269531 -154.132812 4922.605469 -95.136719 4922.605469 C -36.140625 4922.605469 12.195312 4874.269531 12.195312 4815.273438 C 12.195312 4756.277344 -35.785156 4707.941406 -95.136719 4707.941406 Z M -95.136719 4707.941406 " clip-rule="nonzero"/></clipPath><clipPath id="16113882c7"><path d="M 1233.703125 3665.492188 L 1439.9375 3665.492188 L 1439.9375 3913 L 1233.703125 3913 Z M 1233.703125 3665.492188 " clip-rule="nonzero"/></clipPath><clipPath id="86713d535a"><path d="M 1357.082031 3912.4375 C 1289.152344 3912.4375 1233.703125 3856.988281 1233.703125 3788.875 C 1233.703125 3720.941406 1289.152344 3665.492188 1357.082031 3665.492188 C 1425.199219 3665.492188 1480.460938 3720.941406 1480.460938 3788.875 C 1480.648438 3856.988281 1425.199219 3912.4375 1357.082031 3912.4375 Z M 1357.082031 3733.425781 C 1326.605469 3733.425781 1301.636719 3758.394531 1301.636719 3788.875 C 1301.636719 3819.351562 1326.605469 3844.320312 1357.082031 3844.320312 C 1387.5625 3844.320312 1412.53125 3819.351562 1412.53125 3788.875 C 1412.53125 3758.394531 1387.746094 3733.425781 1357.082031 3733.425781 Z M 1357.082031 3733.425781 " clip-rule="nonzero"/></clipPath><clipPath id="b9e921dde3"><path d="M 1233.703125 5574.0625 L 1439.9375 5574.0625 L 1439.9375 5692 L 1233.703125 5692 Z M 1233.703125 5574.0625 " clip-rule="nonzero"/></clipPath><clipPath id="709112fdb9"><path d="M 1391.894531 5890.679688 C 1304.796875 5890.679688 1233.703125 5819.589844 1233.703125 5732.253906 C 1233.703125 5645.15625 1304.796875 5574.0625 1391.894531 5574.0625 C 1479.230469 5574.0625 1550.085938 5645.15625 1550.085938 5732.253906 C 1550.320312 5819.589844 1479.230469 5890.679688 1391.894531 5890.679688 Z M 1391.894531 5661.164062 C 1352.820312 5661.164062 1320.804688 5693.175781 1320.804688 5732.253906 C 1320.804688 5771.332031 1352.820312 5803.34375 1391.894531 5803.34375 C 1430.972656 5803.34375 1462.988281 5771.332031 1462.988281 5732.253906 C 1462.988281 5693.175781 1431.207031 5661.164062 1391.894531 5661.164062 Z M 1391.894531 5661.164062 " clip-rule="nonzero"/></clipPath><clipPath id="dd738f0601"><path d="M 0.0625 5287.546875 L 144 5287.546875 L 144 5692 L 0.0625 5692 Z M 0.0625 5287.546875 " clip-rule="nonzero"/></clipPath><clipPath id="b49ccfe8fc"><path d="M -58.851562 5693.046875 C -170.398438 5693.046875 -261.449219 5602 -261.449219 5490.148438 C -261.449219 5378.597656 -170.398438 5287.546875 -58.851562 5287.546875 C 53 5287.546875 143.75 5378.597656 143.75 5490.148438 C 144.050781 5602 53 5693.046875 -58.851562 5693.046875 Z M -58.851562 5399.097656 C -108.898438 5399.097656 -149.898438 5440.101562 -149.898438 5490.148438 C -149.898438 5540.195312 -108.898438 5581.195312 -58.851562 5581.195312 C -8.804688 5581.195312 32.199219 5540.195312 32.199219 5490.148438 C 32.199219 5440.101562 -8.5 5399.097656 -58.851562 5399.097656 Z M -58.851562 5399.097656 " clip-rule="nonzero"/></clipPath><clipPath id="41b1753b1b"><path d="M 0.0625 4944.046875 L 82 4944.046875 L 82 5108 L 0.0625 5108 Z M 0.0625 4944.046875 " clip-rule="nonzero"/></clipPath><clipPath id="ee421ce779"><path d="M 0.00390625 5107.484375 C -44.957031 5107.484375 -81.652344 5070.785156 -81.652344 5025.703125 C -81.652344 4980.746094 -44.957031 4944.046875 0.00390625 4944.046875 C 45.082031 4944.046875 81.660156 4980.746094 81.660156 5025.703125 C 81.78125 5070.785156 45.082031 5107.484375 0.00390625 5107.484375 Z M 0.00390625 4989.007812 C -20.167969 4989.007812 -36.695312 5005.535156 -36.695312 5025.703125 C -36.695312 5045.875 -20.167969 5062.402344 0.00390625 5062.402344 C 20.171875 5062.402344 36.699219 5045.875 36.699219 5025.703125 C 36.699219 5005.535156 20.296875 4989.007812 0.00390625 4989.007812 Z M 0.00390625 4989.007812 " clip-rule="nonzero"/></clipPath><clipPath id="f1786cabbb"><path d="M 1198.867188 4730.597656 L 1439.9375 4730.597656 L 1439.9375 5048 L 1198.867188 5048 Z M 1198.867188 4730.597656 " clip-rule="nonzero"/></clipPath><clipPath id="f38f4479b0"><path d="M 1357.058594 5047.214844 C 1269.960938 5047.214844 1198.867188 4976.121094 1198.867188 4888.789062 C 1198.867188 4801.6875 1269.960938 4730.597656 1357.058594 4730.597656 C 1444.390625 4730.597656 1515.25 4801.6875 1515.25 4888.789062 C 1515.484375 4976.121094 1444.390625 5047.214844 1357.058594 5047.214844 Z M 1357.058594 4817.695312 C 1317.980469 4817.695312 1285.964844 4849.710938 1285.964844 4888.789062 C 1285.964844 4927.863281 1317.980469 4959.878906 1357.058594 4959.878906 C 1396.136719 4959.878906 1428.148438 4927.863281 1428.148438 4888.789062 C 1428.148438 4849.710938 1396.371094 4817.695312 1357.058594 4817.695312 Z M 1357.058594 4817.695312 " clip-rule="nonzero"/></clipPath><clipPath id="16ea18907c"><path d="M 1233.703125 5082.433594 L 1439.9375 5082.433594 L 1439.9375 5321 L 1233.703125 5321 Z M 1233.703125 5082.433594 " clip-rule="nonzero"/></clipPath><clipPath id="e26593c375"><path d="M 1352.867188 5320.933594 C 1287.257812 5320.933594 1233.703125 5267.382812 1233.703125 5201.59375 C 1233.703125 5135.984375 1287.257812 5082.433594 1352.867188 5082.433594 C 1418.65625 5082.433594 1472.03125 5135.984375 1472.03125 5201.59375 C 1472.207031 5267.382812 1418.65625 5320.933594 1352.867188 5320.933594 Z M 1352.867188 5148.042969 C 1323.429688 5148.042969 1299.316406 5172.160156 1299.316406 5201.59375 C 1299.316406 5231.03125 1323.429688 5255.148438 1352.867188 5255.148438 C 1382.304688 5255.148438 1406.417969 5231.03125 1406.417969 5201.59375 C 1406.417969 5172.160156 1382.480469 5148.042969 1352.867188 5148.042969 Z M 1352.867188 5148.042969 " clip-rule="nonzero"/></clipPath></defs><g clip-path="url(#6a61105b22)"><path fill="#ffffff" d="M 0.0625 0 L 1439.9375 0 L 1439.9375 5699.5 L 0.0625 5699.5 Z M 0.0625 0 " fill-opacity="1" fill-rule="nonzero"/><path fill="#ffffff" d="M 0.0625 0 L 1439.9375 0 L 1439.9375 5692 L 0.0625 5692 Z M 0.0625 0 " fill-opacity="1" fill-rule="nonzero"/><path fill="#000000" d="M 0.0625 0 L 1439.9375 0 L 1439.9375 5692 L 0.0625 5692 Z M 0.0625 0 " fill-opacity="1" fill-rule="nonzero"/></g><g clip-path="url(#917ab12566)"><g clip-path="url(#b11d07a1b2)"><path fill="#68faf0" d="M 1233.703125 584.019531 L 1684.117188 584.019531 L 1684.117188 1034.429688 L 1233.703125 1034.429688 Z M 1233.703125 584.019531 " fill-opacity="1" fill-rule="nonzero"/></g></g><g clip-path="url(#c54f48602c)"><g clip-path="url(#167f94e1ff)"><path fill="#49a3a0" d="M -70.765625 606.890625 L 144.847656 606.890625 L 144.847656 822.503906 L -70.765625 822.503906 Z M -70.765625 606.890625 " fill-opacity="1" fill-rule="nonzero"/></g></g><g clip-path="url(#016966bc28)"><g clip-path="url(#5389eb3bc5)"><path fill="#68faf0" d="M -320.792969 232.675781 L 205.34375 232.675781 L 205.34375 758.8125 L -320.792969 758.8125 Z M -320.792969 232.675781 " fill-opacity="1" fill-rule="nonzero"/></g></g><g clip-path="url(#605499ca8e)"><g clip-path="url(#1d79fafb32)"><path fill="#49a3a0" d="M -333.96875 1054.933594 L 145.828125 1054.933594 L 145.828125 1534.730469 L -333.96875 1534.730469 Z M -333.96875 1054.933594 " fill-opacity="1" fill-rule="nonzero"/></g></g><g clip-path="url(#2e1048bc3c)"><g clip-path="url(#541ea9b1c3)"><path fill="#49a3a0" d="M 1233.703125 143.988281 L 1481.566406 143.988281 L 1481.566406 391.847656 L 1233.703125 391.847656 Z M 1233.703125 143.988281 " fill-opacity="1" fill-rule="nonzero"/></g></g><g clip-path="url(#40bbd1f6f4)"><path fill="#5e666a" d="M -70.765625 -219.730469 L 1481.601562 -219.730469 L 1481.601562 110.992188 L -70.765625 110.992188 Z M -70.765625 -219.730469 " fill-opacity="1" fill-rule="nonzero"/></g><g clip-path="url(#3b18956eff)"><g clip-path="url(#4b35e2eab1)"><path fill="#68faf0" d="M -238.945312 2352.800781 L 159.050781 2352.800781 L 159.050781 2750.796875 L -238.945312 2750.796875 Z M -238.945312 2352.800781 " fill-opacity="1" fill-rule="nonzero"/></g></g><g clip-path="url(#85fd094819)"><g clip-path="url(#9a8a726cf1)"><path fill="#49a3a0" d="M 1233.703125 2052.558594 L 1551.5 2052.558594 L 1551.5 2370.351562 L 1233.703125 2370.351562 Z M 1233.703125 2052.558594 " fill-opacity="1" fill-rule="nonzero"/></g></g><g clip-path="url(#17e6fc91e0)"><g clip-path="url(#fc4c67238a)"><path fill="#68faf0" d="M -261.449219 1766.042969 L 145.558594 1766.042969 L 145.558594 2173.046875 L -261.449219 2173.046875 Z M -261.449219 1766.042969 " fill-opacity="1" fill-rule="nonzero"/></g></g><g clip-path="url(#0cecc515b3)"><g clip-path="url(#0076f9c4d8)"><path fill="#68faf0" d="M 1198.867188 2247.546875 L 1605.875 2247.546875 L 1605.875 2654.554688 L 1198.867188 2654.554688 Z M 1198.867188 2247.546875 " fill-opacity="1" fill-rule="nonzero"/></g></g><g clip-path="url(#d8ec380f89)"><g clip-path="url(#406e93f0b4)"><path fill="#49a3a0" d="M -432.8125 2460.890625 L 146.195312 2460.890625 L 146.195312 3039.898438 L -432.8125 3039.898438 Z M -432.8125 2460.890625 " fill-opacity="1" fill-rule="nonzero"/></g></g><g clip-path="url(#ad6a4b3d3f)"><g clip-path="url(#304115e773)"><path fill="#68faf0" d="M -223.25 3159.246094 L 145.414062 3159.246094 L 145.414062 3527.910156 L -223.25 3527.910156 Z M -223.25 3159.246094 " fill-opacity="1" fill-rule="nonzero"/></g></g><g clip-path="url(#2b693b19a6)"><g clip-path="url(#3249399046)"><path fill="#49a3a0" d="M 1073.386719 2751.984375 L 1890.933594 2751.984375 L 1890.933594 3569.53125 L 1073.386719 3569.53125 Z M 1073.386719 2751.984375 " fill-opacity="1" fill-rule="nonzero"/></g></g><g clip-path="url(#c8f2e751c6)"><g clip-path="url(#67c0e30ae9)"><path fill="#68faf0" d="M -81.652344 1422.542969 L 82.386719 1422.542969 L 82.386719 1586.585938 L -81.652344 1586.585938 Z M -81.652344 1422.542969 " fill-opacity="1" fill-rule="nonzero"/></g></g><g clip-path="url(#f7255c77ac)"><g clip-path="url(#ecd04b1c36)"><path fill="#49a3a0" d="M 1198.867188 1209.089844 L 1516.660156 1209.089844 L 1516.660156 1526.882812 L 1198.867188 1526.882812 Z M 1198.867188 1209.089844 " fill-opacity="1" fill-rule="nonzero"/></g></g><g clip-path="url(#513ecd38fa)"><g clip-path="url(#0182659e51)"><path fill="#68faf0" d="M 1233.703125 1560.925781 L 1473.09375 1560.925781 L 1473.09375 1800.3125 L 1233.703125 1800.3125 Z M 1233.703125 1560.925781 " fill-opacity="1" fill-rule="nonzero"/></g></g><g clip-path="url(#67cff546d6)"><g clip-path="url(#35aec77ebc)"><path fill="#68faf0" d="M 1233.703125 4105.523438 L 1684.117188 4105.523438 L 1684.117188 4555.9375 L 1233.703125 4555.9375 Z M 1233.703125 4105.523438 " fill-opacity="1" fill-rule="nonzero"/></g></g><g clip-path="url(#06f493c0ed)"><g clip-path="url(#b3db4f99e4)"><path fill="#49a3a0" d="M -70.765625 4128.398438 L 144.847656 4128.398438 L 144.847656 4344.011719 L -70.765625 4344.011719 Z M -70.765625 4128.398438 " fill-opacity="1" fill-rule="nonzero"/></g></g><g clip-path="url(#a2631a3ad2)"><g clip-path="url(#5aebcdf3e4)"><path fill="#68faf0" d="M -320.792969 3754.183594 L 205.34375 3754.183594 L 205.34375 4280.320312 L -320.792969 4280.320312 Z M -320.792969 3754.183594 " fill-opacity="1" fill-rule="nonzero"/></g></g><g clip-path="url(#c2276d20d2)"><g clip-path="url(#6d9feaa1a4)"><path fill="#49a3a0" d="M -333.96875 4576.441406 L 145.828125 4576.441406 L 145.828125 5056.238281 L -333.96875 5056.238281 Z M -333.96875 4576.441406 " fill-opacity="1" fill-rule="nonzero"/></g></g><g clip-path="url(#16113882c7)"><g clip-path="url(#86713d535a)"><path fill="#49a3a0" d="M 1233.703125 3665.492188 L 1481.566406 3665.492188 L 1481.566406 3913.355469 L 1233.703125 3913.355469 Z M 1233.703125 3665.492188 " fill-opacity="1" fill-rule="nonzero"/></g></g><g clip-path="url(#b9e921dde3)"><g clip-path="url(#709112fdb9)"><path fill="#49a3a0" d="M 1233.703125 5574.0625 L 1551.5 5574.0625 L 1551.5 5891.855469 L 1233.703125 5891.855469 Z M 1233.703125 5574.0625 " fill-opacity="1" fill-rule="nonzero"/></g></g><g clip-path="url(#dd738f0601)"><g clip-path="url(#b49ccfe8fc)"><path fill="#68faf0" d="M -261.449219 5287.546875 L 145.558594 5287.546875 L 145.558594 5694.554688 L -261.449219 5694.554688 Z M -261.449219 5287.546875 " fill-opacity="1" fill-rule="nonzero"/></g></g><g clip-path="url(#41b1753b1b)"><g clip-path="url(#ee421ce779)"><path fill="#68faf0" d="M -81.652344 4944.046875 L 82.386719 4944.046875 L 82.386719 5108.089844 L -81.652344 5108.089844 Z M -81.652344 4944.046875 " fill-opacity="1" fill-rule="nonzero"/></g></g><g clip-path="url(#f1786cabbb)"><g clip-path="url(#f38f4479b0)"><path fill="#49a3a0" d="M 1198.867188 4730.597656 L 1516.660156 4730.597656 L 1516.660156 5048.390625 L 1198.867188 5048.390625 Z M 1198.867188 4730.597656 " fill-opacity="1" fill-rule="nonzero"/></g></g><g clip-path="url(#16ea18907c)"><g clip-path="url(#e26593c375)"><path fill="#68faf0" d="M 1233.703125 5082.433594 L 1473.09375 5082.433594 L 1473.09375 5321.820312 L 1233.703125 5321.820312 Z M 1233.703125 5082.433594 " fill-opacity="1" fill-rule="nonzero"/></g></g></svg>