<svg xmlns="http://www.w3.org/2000/svg" xmlns:xlink="http://www.w3.org/1999/xlink" width="1024" zoomAndPan="magnify" viewBox="0 0 768 5692.49983" height="7590" preserveAspectRatio="xMidYMid meet" version="1.0"><defs><clipPath id="3246358a92"><path d="M 0.0351562 0 L 767.964844 0 L 767.964844 5692 L 0.0351562 5692 Z M 0.0351562 0 " clip-rule="nonzero"/></clipPath><clipPath id="750cd64c4e"><path d="M 657.976562 311.476562 L 767.964844 311.476562 L 767.964844 551 L 657.976562 551 Z M 657.976562 311.476562 " clip-rule="nonzero"/></clipPath><clipPath id="21731f9650"><path d="M 777.550781 550.804688 C 711.714844 550.804688 657.976562 497.066406 657.976562 431.050781 C 657.976562 365.214844 711.714844 311.476562 777.550781 311.476562 C 843.566406 311.476562 897.128906 365.214844 897.128906 431.050781 C 897.304688 497.066406 843.566406 550.804688 777.550781 550.804688 Z M 777.550781 377.3125 C 748.015625 377.3125 723.8125 401.515625 723.8125 431.050781 C 723.8125 460.589844 748.015625 484.789062 777.550781 484.789062 C 807.089844 484.789062 831.289062 460.589844 831.289062 431.050781 C 831.289062 401.515625 807.269531 377.3125 777.550781 377.3125 Z M 777.550781 377.3125 " clip-rule="nonzero"/></clipPath><clipPath id="a22e50c48a"><path d="M 0.0351562 323.675781 L 77 323.675781 L 77 438.667969 L 0.0351562 438.667969 Z M 0.0351562 323.675781 " clip-rule="nonzero"/></clipPath><clipPath id="a4f42ae752"><path d="M 19.5 438.242188 C -12.015625 438.242188 -37.742188 412.519531 -37.742188 380.917969 C -37.742188 349.398438 -12.015625 323.675781 19.5 323.675781 C 51.101562 323.675781 76.742188 349.398438 76.742188 380.917969 C 76.828125 412.519531 51.101562 438.242188 19.5 438.242188 Z M 19.5 355.191406 C 5.359375 355.191406 -6.222656 366.777344 -6.222656 380.917969 C -6.222656 395.054688 5.359375 406.640625 19.5 406.640625 C 33.640625 406.640625 45.226562 395.054688 45.226562 380.917969 C 45.226562 366.777344 33.726562 355.191406 19.5 355.191406 Z M 19.5 355.191406 " clip-rule="nonzero"/></clipPath><clipPath id="835dc8ae21"><path d="M 0.0351562 124.09375 L 109 124.09375 L 109 404 L 0.0351562 404 Z M 0.0351562 124.09375 " clip-rule="nonzero"/></clipPath><clipPath id="c170c135de"><path d="M -31.410156 403.660156 C -108.316406 403.660156 -171.089844 340.886719 -171.089844 263.773438 C -171.089844 186.867188 -108.316406 124.09375 -31.410156 124.09375 C 45.703125 124.09375 108.269531 186.867188 108.269531 263.773438 C 108.476562 340.886719 45.703125 403.660156 -31.410156 403.660156 Z M -31.410156 201 C -65.914062 201 -94.183594 229.269531 -94.183594 263.773438 C -94.183594 298.277344 -65.914062 326.546875 -31.410156 326.546875 C 3.09375 326.546875 31.363281 298.277344 31.363281 263.773438 C 31.363281 229.269531 3.300781 201 -31.410156 201 Z M -31.410156 201 " clip-rule="nonzero"/></clipPath><clipPath id="2561bb6c8d"><path d="M 0.0351562 562.632812 L 77 562.632812 L 77 818 L 0.0351562 818 Z M 0.0351562 562.632812 " clip-rule="nonzero"/></clipPath><clipPath id="8e02d1ba2d"><path d="M -50.738281 817.574219 C -120.871094 817.574219 -178.117188 760.332031 -178.117188 690.007812 C -178.117188 619.875 -120.871094 562.632812 -50.738281 562.632812 C 19.582031 562.632812 76.636719 619.875 76.636719 690.007812 C 76.828125 760.332031 19.582031 817.574219 -50.738281 817.574219 Z M -50.738281 632.765625 C -82.203125 632.765625 -107.984375 658.542969 -107.984375 690.007812 C -107.984375 721.472656 -82.203125 747.253906 -50.738281 747.253906 C -19.273438 747.253906 6.503906 721.472656 6.503906 690.007812 C 6.503906 658.542969 -19.085938 632.765625 -50.738281 632.765625 Z M -50.738281 632.765625 " clip-rule="nonzero"/></clipPath><clipPath id="92dee826c2"><path d="M 657.976562 76.792969 L 767.964844 76.792969 L 767.964844 208.984375 L 657.976562 208.984375 Z M 657.976562 76.792969 " clip-rule="nonzero"/></clipPath><clipPath id="97f05e0897"><path d="M 723.777344 208.496094 C 687.546875 208.496094 657.976562 178.921875 657.976562 142.59375 C 657.976562 106.363281 687.546875 76.792969 723.777344 76.792969 C 760.105469 76.792969 789.582031 106.363281 789.582031 142.59375 C 789.679688 178.921875 760.105469 208.496094 723.777344 208.496094 Z M 723.777344 113.023438 C 707.523438 113.023438 694.207031 126.339844 694.207031 142.59375 C 694.207031 158.851562 707.523438 172.167969 723.777344 172.167969 C 740.03125 172.167969 753.351562 158.851562 753.351562 142.59375 C 753.351562 126.339844 740.128906 113.023438 723.777344 113.023438 Z M 723.777344 113.023438 " clip-rule="nonzero"/></clipPath><clipPath id="a1127226cd"><path d="M 0.0351562 0 L 767.964844 0 L 767.964844 49 L 0.0351562 49 Z M 0.0351562 0 " clip-rule="nonzero"/></clipPath><clipPath id="ea169f916e"><path d="M 0.0351562 1254.828125 L 84 1254.828125 L 84 1467 L 0.0351562 1467 Z M 0.0351562 1254.828125 " clip-rule="nonzero"/></clipPath><clipPath id="0c6e24ed8c"><path d="M -21.777344 1466.304688 C -79.953125 1466.304688 -127.4375 1418.820312 -127.4375 1360.488281 C -127.4375 1302.3125 -79.953125 1254.828125 -21.777344 1254.828125 C 36.554688 1254.828125 83.882812 1302.3125 83.882812 1360.488281 C 84.039062 1418.820312 36.554688 1466.304688 -21.777344 1466.304688 Z M -21.777344 1313.003906 C -47.878906 1313.003906 -69.261719 1334.386719 -69.261719 1360.488281 C -69.261719 1386.589844 -47.878906 1407.972656 -21.777344 1407.972656 C 4.324219 1407.972656 25.707031 1386.589844 25.707031 1360.488281 C 25.707031 1334.386719 4.480469 1313.003906 -21.777344 1313.003906 Z M -21.777344 1313.003906 " clip-rule="nonzero"/></clipPath><clipPath id="4bcf669b25"><path d="M 657.976562 1094.695312 L 767.964844 1094.695312 L 767.964844 1264 L 657.976562 1264 Z M 657.976562 1094.695312 " clip-rule="nonzero"/></clipPath><clipPath id="11e02299db"><path d="M 742.34375 1263.558594 C 695.890625 1263.558594 657.976562 1225.644531 657.976562 1179.066406 C 657.976562 1132.613281 695.890625 1094.695312 742.34375 1094.695312 C 788.921875 1094.695312 826.710938 1132.613281 826.710938 1179.066406 C 826.839844 1225.644531 788.921875 1263.558594 742.34375 1263.558594 Z M 742.34375 1141.148438 C 721.503906 1141.148438 704.429688 1158.222656 704.429688 1179.066406 C 704.429688 1199.90625 721.503906 1216.980469 742.34375 1216.980469 C 763.183594 1216.980469 780.257812 1199.90625 780.257812 1179.066406 C 780.257812 1158.222656 763.3125 1141.148438 742.34375 1141.148438 Z M 742.34375 1141.148438 " clip-rule="nonzero"/></clipPath><clipPath id="6cdacb1dcb"><path d="M 0.0351562 941.890625 L 77 941.890625 L 77 1158.960938 L 0.0351562 1158.960938 Z M 0.0351562 941.890625 " clip-rule="nonzero"/></clipPath><clipPath id="6b038fb8b9"><path d="M -31.386719 1158.15625 C -90.878906 1158.15625 -139.4375 1109.59375 -139.4375 1049.941406 C -139.4375 990.449219 -90.878906 941.890625 -31.386719 941.890625 C 28.265625 941.890625 76.667969 990.449219 76.667969 1049.941406 C 76.828125 1109.59375 28.265625 1158.15625 -31.386719 1158.15625 Z M -31.386719 1001.382812 C -58.078125 1001.382812 -79.945312 1023.25 -79.945312 1049.941406 C -79.945312 1076.632812 -58.078125 1098.5 -31.386719 1098.5 C -4.695312 1098.5 17.171875 1076.632812 17.171875 1049.941406 C 17.171875 1023.25 -4.535156 1001.382812 -31.386719 1001.382812 Z M -31.386719 1001.382812 " clip-rule="nonzero"/></clipPath><clipPath id="bad8349ab0"><path d="M 639.394531 1198.691406 L 767.964844 1198.691406 L 767.964844 1415 L 639.394531 1415 Z M 639.394531 1198.691406 " clip-rule="nonzero"/></clipPath><clipPath id="975570813b"><path d="M 747.449219 1414.957031 C 687.957031 1414.957031 639.394531 1366.398438 639.394531 1306.742188 C 639.394531 1247.25 687.957031 1198.691406 747.449219 1198.691406 C 807.101562 1198.691406 855.5 1247.25 855.5 1306.742188 C 855.664062 1366.398438 807.101562 1414.957031 747.449219 1414.957031 Z M 747.449219 1258.183594 C 720.757812 1258.183594 698.890625 1280.050781 698.890625 1306.742188 C 698.890625 1333.433594 720.757812 1355.304688 747.449219 1355.304688 C 774.140625 1355.304688 796.007812 1333.433594 796.007812 1306.742188 C 796.007812 1280.050781 774.300781 1258.183594 747.449219 1258.183594 Z M 747.449219 1258.183594 " clip-rule="nonzero"/></clipPath><clipPath id="6c5fe02d92"><path d="M 0.0351562 1312.476562 L 77 1312.476562 L 77 1621 L 0.0351562 1621 Z M 0.0351562 1312.476562 " clip-rule="nonzero"/></clipPath><clipPath id="ef30f68853"><path d="M -77.117188 1620.136719 C -161.753906 1620.136719 -230.832031 1551.054688 -230.832031 1466.191406 C -230.832031 1381.554688 -161.753906 1312.476562 -77.117188 1312.476562 C 7.746094 1312.476562 76.597656 1381.554688 76.597656 1466.191406 C 76.828125 1551.054688 7.746094 1620.136719 -77.117188 1620.136719 Z M -77.117188 1397.109375 C -115.089844 1397.109375 -146.199219 1428.21875 -146.199219 1466.191406 C -146.199219 1504.164062 -115.089844 1535.273438 -77.117188 1535.273438 C -39.144531 1535.273438 -8.035156 1504.164062 -8.035156 1466.191406 C -8.035156 1428.21875 -38.917969 1397.109375 -77.117188 1397.109375 Z M -77.117188 1397.109375 " clip-rule="nonzero"/></clipPath><clipPath id="11c65bbddc"><path d="M 0.0351562 1684.929688 L 77 1684.929688 L 77 1881 L 0.0351562 1881 Z M 0.0351562 1684.929688 " clip-rule="nonzero"/></clipPath><clipPath id="a446a1f76b"><path d="M -21.191406 1880.824219 C -75.082031 1880.824219 -119.066406 1836.839844 -119.066406 1782.804688 C -119.066406 1728.914062 -75.082031 1684.929688 -21.191406 1684.929688 C 32.84375 1684.929688 76.679688 1728.914062 76.679688 1782.804688 C 76.828125 1836.839844 32.84375 1880.824219 -21.191406 1880.824219 Z M -21.191406 1738.820312 C -45.371094 1738.820312 -65.175781 1758.625 -65.175781 1782.804688 C -65.175781 1806.980469 -45.371094 1826.789062 -21.191406 1826.789062 C 2.984375 1826.789062 22.792969 1806.980469 22.792969 1782.804688 C 22.792969 1758.625 3.128906 1738.820312 -21.191406 1738.820312 Z M -21.191406 1738.820312 " clip-rule="nonzero"/></clipPath><clipPath id="8a37f0615e"><path d="M 572.472656 1467.726562 L 767.964844 1467.726562 L 767.964844 1903 L 572.472656 1903 Z M 572.472656 1467.726562 " clip-rule="nonzero"/></clipPath><clipPath id="f4554148b9"><path d="M 789.515625 1902.136719 C 670.015625 1902.136719 572.472656 1804.59375 572.472656 1684.769531 C 572.472656 1565.265625 670.015625 1467.726562 789.515625 1467.726562 C 909.34375 1467.726562 1006.558594 1565.265625 1006.558594 1684.769531 C 1006.882812 1804.59375 909.34375 1902.136719 789.515625 1902.136719 Z M 789.515625 1587.230469 C 735.902344 1587.230469 691.976562 1631.152344 691.976562 1684.769531 C 691.976562 1738.382812 735.902344 1782.308594 789.515625 1782.308594 C 843.132812 1782.308594 887.058594 1738.382812 887.058594 1684.769531 C 887.058594 1631.152344 843.453125 1587.230469 789.515625 1587.230469 Z M 789.515625 1587.230469 " clip-rule="nonzero"/></clipPath><clipPath id="4fbd6b83e2"><path d="M 0.0351562 758.6875 L 43.941406 758.6875 L 43.941406 846 L 0.0351562 846 Z M 0.0351562 758.6875 " clip-rule="nonzero"/></clipPath><clipPath id="838b5b883b"><path d="M 0 845.855469 C -23.976562 845.855469 -43.550781 826.28125 -43.550781 802.238281 C -43.550781 778.261719 -23.976562 758.6875 0 758.6875 C 24.042969 758.6875 43.550781 778.261719 43.550781 802.238281 C 43.617188 826.28125 24.042969 845.855469 0 845.855469 Z M 0 782.667969 C -10.757812 782.667969 -19.570312 791.480469 -19.570312 802.238281 C -19.570312 812.996094 -10.757812 821.8125 0 821.8125 C 10.757812 821.8125 19.574219 812.996094 19.574219 802.238281 C 19.574219 791.480469 10.824219 782.667969 0 782.667969 Z M 0 782.667969 " clip-rule="nonzero"/></clipPath><clipPath id="324424234f"><path d="M 639.394531 644.847656 L 767.964844 644.847656 L 767.964844 814 L 639.394531 814 Z M 639.394531 644.847656 " clip-rule="nonzero"/></clipPath><clipPath id="201192781e"><path d="M 723.765625 813.710938 C 677.3125 813.710938 639.394531 775.796875 639.394531 729.214844 C 639.394531 682.765625 677.3125 644.847656 723.765625 644.847656 C 770.34375 644.847656 808.132812 682.765625 808.132812 729.214844 C 808.257812 775.796875 770.34375 813.710938 723.765625 813.710938 Z M 723.765625 691.300781 C 702.921875 691.300781 685.847656 708.375 685.847656 729.214844 C 685.847656 750.058594 702.921875 767.132812 723.765625 767.132812 C 744.605469 767.132812 761.679688 750.058594 761.679688 729.214844 C 761.679688 708.375 744.730469 691.300781 723.765625 691.300781 Z M 723.765625 691.300781 " clip-rule="nonzero"/></clipPath><clipPath id="a741ab66b9"><path d="M 657.976562 832.492188 L 767.964844 832.492188 L 767.964844 960 L 657.976562 960 Z M 657.976562 832.492188 " clip-rule="nonzero"/></clipPath><clipPath id="1bb0b4c111"><path d="M 721.527344 959.695312 C 686.535156 959.695312 657.976562 931.132812 657.976562 896.046875 C 657.976562 861.054688 686.535156 832.492188 721.527344 832.492188 C 756.617188 832.492188 785.082031 861.054688 785.082031 896.046875 C 785.175781 931.132812 756.617188 959.695312 721.527344 959.695312 Z M 721.527344 867.484375 C 705.828125 867.484375 692.96875 880.347656 692.96875 896.046875 C 692.96875 911.746094 705.828125 924.609375 721.527344 924.609375 C 737.226562 924.609375 750.089844 911.746094 750.089844 896.046875 C 750.089844 880.347656 737.324219 867.484375 721.527344 867.484375 Z M 721.527344 867.484375 " clip-rule="nonzero"/></clipPath><clipPath id="db1465cce4"><path d="M 657.976562 2189.613281 L 767.964844 2189.613281 L 767.964844 2429 L 657.976562 2429 Z M 657.976562 2189.613281 " clip-rule="nonzero"/></clipPath><clipPath id="637b001d00"><path d="M 777.550781 2428.941406 C 711.714844 2428.941406 657.976562 2375.203125 657.976562 2309.1875 C 657.976562 2243.351562 711.714844 2189.613281 777.550781 2189.613281 C 843.566406 2189.613281 897.128906 2243.351562 897.128906 2309.1875 C 897.304688 2375.203125 843.566406 2428.941406 777.550781 2428.941406 Z M 777.550781 2255.449219 C 748.015625 2255.449219 723.8125 2279.652344 723.8125 2309.1875 C 723.8125 2338.726562 748.015625 2362.925781 777.550781 2362.925781 C 807.089844 2362.925781 831.289062 2338.726562 831.289062 2309.1875 C 831.289062 2279.652344 807.269531 2255.449219 777.550781 2255.449219 Z M 777.550781 2255.449219 " clip-rule="nonzero"/></clipPath><clipPath id="f61dec7551"><path d="M 0.0351562 2201.8125 L 77 2201.8125 L 77 2316.804688 L 0.0351562 2316.804688 Z M 0.0351562 2201.8125 " clip-rule="nonzero"/></clipPath><clipPath id="a75bd6187a"><path d="M 19.5 2316.378906 C -12.015625 2316.378906 -37.742188 2290.65625 -37.742188 2259.054688 C -37.742188 2227.535156 -12.015625 2201.8125 19.5 2201.8125 C 51.101562 2201.8125 76.742188 2227.535156 76.742188 2259.054688 C 76.828125 2290.65625 51.101562 2316.378906 19.5 2316.378906 Z M 19.5 2233.328125 C 5.359375 2233.328125 -6.222656 2244.914062 -6.222656 2259.054688 C -6.222656 2273.191406 5.359375 2284.777344 19.5 2284.777344 C 33.640625 2284.777344 45.226562 2273.191406 45.226562 2259.054688 C 45.226562 2244.914062 33.726562 2233.328125 19.5 2233.328125 Z M 19.5 2233.328125 " clip-rule="nonzero"/></clipPath><clipPath id="5c6f3e2f3f"><path d="M 0.0351562 2002.230469 L 109 2002.230469 L 109 2282 L 0.0351562 2282 Z M 0.0351562 2002.230469 " clip-rule="nonzero"/></clipPath><clipPath id="2c445a360a"><path d="M -31.410156 2281.796875 C -108.316406 2281.796875 -171.089844 2219.023438 -171.089844 2141.910156 C -171.089844 2065.003906 -108.316406 2002.230469 -31.410156 2002.230469 C 45.703125 2002.230469 108.269531 2065.003906 108.269531 2141.910156 C 108.476562 2219.023438 45.703125 2281.796875 -31.410156 2281.796875 Z M -31.410156 2079.136719 C -65.914062 2079.136719 -94.183594 2107.40625 -94.183594 2141.910156 C -94.183594 2176.414062 -65.914062 2204.683594 -31.410156 2204.683594 C 3.09375 2204.683594 31.363281 2176.414062 31.363281 2141.910156 C 31.363281 2107.40625 3.300781 2079.136719 -31.410156 2079.136719 Z M -31.410156 2079.136719 " clip-rule="nonzero"/></clipPath><clipPath id="be42827911"><path d="M 0.0351562 2440.769531 L 77 2440.769531 L 77 2696 L 0.0351562 2696 Z M 0.0351562 2440.769531 " clip-rule="nonzero"/></clipPath><clipPath id="861c8568e4"><path d="M -50.738281 2695.710938 C -120.871094 2695.710938 -178.117188 2638.46875 -178.117188 2568.144531 C -178.117188 2498.011719 -120.871094 2440.769531 -50.738281 2440.769531 C 19.582031 2440.769531 76.636719 2498.011719 76.636719 2568.144531 C 76.828125 2638.46875 19.582031 2695.710938 -50.738281 2695.710938 Z M -50.738281 2510.902344 C -82.203125 2510.902344 -107.984375 2536.679688 -107.984375 2568.144531 C -107.984375 2599.609375 -82.203125 2625.390625 -50.738281 2625.390625 C -19.273438 2625.390625 6.503906 2599.609375 6.503906 2568.144531 C 6.503906 2536.679688 -19.085938 2510.902344 -50.738281 2510.902344 Z M -50.738281 2510.902344 " clip-rule="nonzero"/></clipPath><clipPath id="be78535116"><path d="M 657.976562 1954.929688 L 767.964844 1954.929688 L 767.964844 2087 L 657.976562 2087 Z M 657.976562 1954.929688 " clip-rule="nonzero"/></clipPath><clipPath id="86c9cc3b14"><path d="M 723.777344 2086.632812 C 687.546875 2086.632812 657.976562 2057.0625 657.976562 2020.734375 C 657.976562 1984.503906 687.546875 1954.929688 723.777344 1954.929688 C 760.105469 1954.929688 789.582031 1984.503906 789.582031 2020.734375 C 789.679688 2057.0625 760.105469 2086.632812 723.777344 2086.632812 Z M 723.777344 1991.160156 C 707.523438 1991.160156 694.207031 2004.476562 694.207031 2020.734375 C 694.207031 2036.988281 707.523438 2050.304688 723.777344 2050.304688 C 740.03125 2050.304688 753.351562 2036.988281 753.351562 2020.734375 C 753.351562 2004.476562 740.128906 1991.160156 723.777344 1991.160156 Z M 723.777344 1991.160156 " clip-rule="nonzero"/></clipPath><clipPath id="8c5ea15fb0"><path d="M 657.976562 2972.832031 L 767.964844 2972.832031 L 767.964844 3142 L 657.976562 3142 Z M 657.976562 2972.832031 " clip-rule="nonzero"/></clipPath><clipPath id="42b9189980"><path d="M 742.34375 3141.695312 C 695.890625 3141.695312 657.976562 3103.78125 657.976562 3057.203125 C 657.976562 3010.75 695.890625 2972.832031 742.34375 2972.832031 C 788.921875 2972.832031 826.710938 3010.75 826.710938 3057.203125 C 826.839844 3103.78125 788.921875 3141.695312 742.34375 3141.695312 Z M 742.34375 3019.285156 C 721.503906 3019.285156 704.429688 3036.359375 704.429688 3057.203125 C 704.429688 3078.042969 721.503906 3095.117188 742.34375 3095.117188 C 763.183594 3095.117188 780.257812 3078.042969 780.257812 3057.203125 C 780.257812 3036.359375 763.3125 3019.285156 742.34375 3019.285156 Z M 742.34375 3019.285156 " clip-rule="nonzero"/></clipPath><clipPath id="c02f7a5e67"><path d="M 0.0351562 2820.027344 L 77 2820.027344 L 77 3037 L 0.0351562 3037 Z M 0.0351562 2820.027344 " clip-rule="nonzero"/></clipPath><clipPath id="0b5178c065"><path d="M -31.386719 3036.292969 C -90.878906 3036.292969 -139.4375 2987.734375 -139.4375 2928.078125 C -139.4375 2868.585938 -90.878906 2820.027344 -31.386719 2820.027344 C 28.265625 2820.027344 76.667969 2868.585938 76.667969 2928.078125 C 76.828125 2987.734375 28.265625 3036.292969 -31.386719 3036.292969 Z M -31.386719 2879.519531 C -58.078125 2879.519531 -79.945312 2901.386719 -79.945312 2928.078125 C -79.945312 2954.769531 -58.078125 2976.636719 -31.386719 2976.636719 C -4.695312 2976.636719 17.171875 2954.769531 17.171875 2928.078125 C 17.171875 2901.386719 -4.535156 2879.519531 -31.386719 2879.519531 Z M -31.386719 2879.519531 " clip-rule="nonzero"/></clipPath><clipPath id="f01873e332"><path d="M 0.0351562 2636.824219 L 43.941406 2636.824219 L 43.941406 2724 L 0.0351562 2724 Z M 0.0351562 2636.824219 " clip-rule="nonzero"/></clipPath><clipPath id="adc7e42eab"><path d="M 0 2723.992188 C -23.976562 2723.992188 -43.550781 2704.417969 -43.550781 2680.375 C -43.550781 2656.398438 -23.976562 2636.824219 0 2636.824219 C 24.042969 2636.824219 43.550781 2656.398438 43.550781 2680.375 C 43.617188 2704.417969 24.042969 2723.992188 0 2723.992188 Z M 0 2660.804688 C -10.757812 2660.804688 -19.570312 2669.617188 -19.570312 2680.375 C -19.570312 2691.132812 -10.757812 2699.949219 0 2699.949219 C 10.757812 2699.949219 19.574219 2691.132812 19.574219 2680.375 C 19.574219 2669.617188 10.824219 2660.804688 0 2660.804688 Z M 0 2660.804688 " clip-rule="nonzero"/></clipPath><clipPath id="78b6427ef0"><path d="M 639.394531 2522.984375 L 767.964844 2522.984375 L 767.964844 2692 L 639.394531 2692 Z M 639.394531 2522.984375 " clip-rule="nonzero"/></clipPath><clipPath id="485abd76ce"><path d="M 723.765625 2691.847656 C 677.3125 2691.847656 639.394531 2653.933594 639.394531 2607.355469 C 639.394531 2560.902344 677.3125 2522.984375 723.765625 2522.984375 C 770.34375 2522.984375 808.132812 2560.902344 808.132812 2607.355469 C 808.257812 2653.933594 770.34375 2691.847656 723.765625 2691.847656 Z M 723.765625 2569.4375 C 702.921875 2569.4375 685.847656 2586.511719 685.847656 2607.355469 C 685.847656 2628.195312 702.921875 2645.269531 723.765625 2645.269531 C 744.605469 2645.269531 761.679688 2628.195312 761.679688 2607.355469 C 761.679688 2586.511719 744.730469 2569.4375 723.765625 2569.4375 Z M 723.765625 2569.4375 " clip-rule="nonzero"/></clipPath><clipPath id="6854d7fea6"><path d="M 657.976562 2710.628906 L 767.964844 2710.628906 L 767.964844 2838 L 657.976562 2838 Z M 657.976562 2710.628906 " clip-rule="nonzero"/></clipPath><clipPath id="e68172a2fb"><path d="M 721.527344 2837.832031 C 686.535156 2837.832031 657.976562 2809.269531 657.976562 2774.183594 C 657.976562 2739.191406 686.535156 2710.628906 721.527344 2710.628906 C 756.617188 2710.628906 785.082031 2739.191406 785.082031 2774.183594 C 785.175781 2809.269531 756.617188 2837.832031 721.527344 2837.832031 Z M 721.527344 2745.621094 C 705.828125 2745.621094 692.96875 2758.484375 692.96875 2774.183594 C 692.96875 2789.882812 705.828125 2802.746094 721.527344 2802.746094 C 737.226562 2802.746094 750.089844 2789.882812 750.089844 2774.183594 C 750.089844 2758.484375 737.324219 2745.621094 721.527344 2745.621094 Z M 721.527344 2745.621094 " clip-rule="nonzero"/></clipPath><clipPath id="e73d3cea29"><path d="M 657.976562 3511.367188 L 767.964844 3511.367188 L 767.964844 3751 L 657.976562 3751 Z M 657.976562 3511.367188 " clip-rule="nonzero"/></clipPath><clipPath id="f035cc8c1e"><path d="M 777.550781 3750.695312 C 711.714844 3750.695312 657.976562 3696.957031 657.976562 3630.941406 C 657.976562 3565.105469 711.714844 3511.367188 777.550781 3511.367188 C 843.566406 3511.367188 897.128906 3565.105469 897.128906 3630.941406 C 897.304688 3696.957031 843.566406 3750.695312 777.550781 3750.695312 Z M 777.550781 3577.203125 C 748.015625 3577.203125 723.8125 3601.40625 723.8125 3630.941406 C 723.8125 3660.480469 748.015625 3684.679688 777.550781 3684.679688 C 807.089844 3684.679688 831.289062 3660.480469 831.289062 3630.941406 C 831.289062 3601.40625 807.269531 3577.203125 777.550781 3577.203125 Z M 777.550781 3577.203125 " clip-rule="nonzero"/></clipPath><clipPath id="32b115b841"><path d="M 0.0351562 3523.566406 L 77 3523.566406 L 77 3638.558594 L 0.0351562 3638.558594 Z M 0.0351562 3523.566406 " clip-rule="nonzero"/></clipPath><clipPath id="31e3977bb5"><path d="M 19.5 3638.132812 C -12.015625 3638.132812 -37.742188 3612.410156 -37.742188 3580.808594 C -37.742188 3549.289062 -12.015625 3523.566406 19.5 3523.566406 C 51.101562 3523.566406 76.742188 3549.289062 76.742188 3580.808594 C 76.828125 3612.410156 51.101562 3638.132812 19.5 3638.132812 Z M 19.5 3555.082031 C 5.359375 3555.082031 -6.222656 3566.667969 -6.222656 3580.808594 C -6.222656 3594.945312 5.359375 3606.53125 19.5 3606.53125 C 33.640625 3606.53125 45.226562 3594.945312 45.226562 3580.808594 C 45.226562 3566.667969 33.726562 3555.082031 19.5 3555.082031 Z M 19.5 3555.082031 " clip-rule="nonzero"/></clipPath><clipPath id="8aa3562257"><path d="M 0.0351562 3323.984375 L 109 3323.984375 L 109 3604 L 0.0351562 3604 Z M 0.0351562 3323.984375 " clip-rule="nonzero"/></clipPath><clipPath id="dde8ea90e2"><path d="M -31.410156 3603.550781 C -108.316406 3603.550781 -171.089844 3540.777344 -171.089844 3463.664062 C -171.089844 3386.757812 -108.316406 3323.984375 -31.410156 3323.984375 C 45.703125 3323.984375 108.269531 3386.757812 108.269531 3463.664062 C 108.476562 3540.777344 45.703125 3603.550781 -31.410156 3603.550781 Z M -31.410156 3400.890625 C -65.914062 3400.890625 -94.183594 3429.160156 -94.183594 3463.664062 C -94.183594 3498.167969 -65.914062 3526.4375 -31.410156 3526.4375 C 3.09375 3526.4375 31.363281 3498.167969 31.363281 3463.664062 C 31.363281 3429.160156 3.300781 3400.890625 -31.410156 3400.890625 Z M -31.410156 3400.890625 " clip-rule="nonzero"/></clipPath><clipPath id="ccd96cc785"><path d="M 0.0351562 3762.523438 L 77 3762.523438 L 77 4018 L 0.0351562 4018 Z M 0.0351562 3762.523438 " clip-rule="nonzero"/></clipPath><clipPath id="6094d7ce80"><path d="M -50.738281 4017.464844 C -120.871094 4017.464844 -178.117188 3960.222656 -178.117188 3889.898438 C -178.117188 3819.765625 -120.871094 3762.523438 -50.738281 3762.523438 C 19.582031 3762.523438 76.636719 3819.765625 76.636719 3889.898438 C 76.828125 3960.222656 19.582031 4017.464844 -50.738281 4017.464844 Z M -50.738281 3832.65625 C -82.203125 3832.65625 -107.984375 3858.433594 -107.984375 3889.898438 C -107.984375 3921.363281 -82.203125 3947.144531 -50.738281 3947.144531 C -19.273438 3947.144531 6.503906 3921.363281 6.503906 3889.898438 C 6.503906 3858.433594 -19.085938 3832.65625 -50.738281 3832.65625 Z M -50.738281 3832.65625 " clip-rule="nonzero"/></clipPath><clipPath id="14e14a31c7"><path d="M 657.976562 3276.683594 L 767.964844 3276.683594 L 767.964844 3408.875 L 657.976562 3408.875 Z M 657.976562 3276.683594 " clip-rule="nonzero"/></clipPath><clipPath id="78e1891a86"><path d="M 723.777344 3408.386719 C 687.546875 3408.386719 657.976562 3378.8125 657.976562 3342.484375 C 657.976562 3306.253906 687.546875 3276.683594 723.777344 3276.683594 C 760.105469 3276.683594 789.582031 3306.253906 789.582031 3342.484375 C 789.679688 3378.8125 760.105469 3408.386719 723.777344 3408.386719 Z M 723.777344 3312.914062 C 707.523438 3312.914062 694.207031 3326.230469 694.207031 3342.484375 C 694.207031 3358.742188 707.523438 3372.058594 723.777344 3372.058594 C 740.03125 3372.058594 753.351562 3358.742188 753.351562 3342.484375 C 753.351562 3326.230469 740.128906 3312.914062 723.777344 3312.914062 Z M 723.777344 3312.914062 " clip-rule="nonzero"/></clipPath><clipPath id="03ca30eb4c"><path d="M 0.0351562 4454.71875 L 84 4454.71875 L 84 4666.984375 L 0.0351562 4666.984375 Z M 0.0351562 4454.71875 " clip-rule="nonzero"/></clipPath><clipPath id="5e95858fa9"><path d="M -21.777344 4666.195312 C -79.953125 4666.195312 -127.4375 4618.710938 -127.4375 4560.378906 C -127.4375 4502.203125 -79.953125 4454.71875 -21.777344 4454.71875 C 36.554688 4454.71875 83.882812 4502.203125 83.882812 4560.378906 C 84.039062 4618.710938 36.554688 4666.195312 -21.777344 4666.195312 Z M -21.777344 4512.894531 C -47.878906 4512.894531 -69.261719 4534.277344 -69.261719 4560.378906 C -69.261719 4586.480469 -47.878906 4607.863281 -21.777344 4607.863281 C 4.324219 4607.863281 25.707031 4586.480469 25.707031 4560.378906 C 25.707031 4534.277344 4.480469 4512.894531 -21.777344 4512.894531 Z M -21.777344 4512.894531 " clip-rule="nonzero"/></clipPath><clipPath id="67269881de"><path d="M 657.976562 4294.585938 L 767.964844 4294.585938 L 767.964844 4464 L 657.976562 4464 Z M 657.976562 4294.585938 " clip-rule="nonzero"/></clipPath><clipPath id="1efb20ed65"><path d="M 742.34375 4463.449219 C 695.890625 4463.449219 657.976562 4425.535156 657.976562 4378.957031 C 657.976562 4332.503906 695.890625 4294.585938 742.34375 4294.585938 C 788.921875 4294.585938 826.710938 4332.503906 826.710938 4378.957031 C 826.839844 4425.535156 788.921875 4463.449219 742.34375 4463.449219 Z M 742.34375 4341.039062 C 721.503906 4341.039062 704.429688 4358.113281 704.429688 4378.957031 C 704.429688 4399.796875 721.503906 4416.871094 742.34375 4416.871094 C 763.183594 4416.871094 780.257812 4399.796875 780.257812 4378.957031 C 780.257812 4358.113281 763.3125 4341.039062 742.34375 4341.039062 Z M 742.34375 4341.039062 " clip-rule="nonzero"/></clipPath><clipPath id="4f33bb1354"><path d="M 0.0351562 4141.78125 L 77 4141.78125 L 77 4358.851562 L 0.0351562 4358.851562 Z M 0.0351562 4141.78125 " clip-rule="nonzero"/></clipPath><clipPath id="2ecc123684"><path d="M -31.386719 4358.046875 C -90.878906 4358.046875 -139.4375 4309.484375 -139.4375 4249.832031 C -139.4375 4190.339844 -90.878906 4141.78125 -31.386719 4141.78125 C 28.265625 4141.78125 76.667969 4190.339844 76.667969 4249.832031 C 76.828125 4309.484375 28.265625 4358.046875 -31.386719 4358.046875 Z M -31.386719 4201.273438 C -58.078125 4201.273438 -79.945312 4223.140625 -79.945312 4249.832031 C -79.945312 4276.523438 -58.078125 4298.390625 -31.386719 4298.390625 C -4.695312 4298.390625 17.171875 4276.523438 17.171875 4249.832031 C 17.171875 4223.140625 -4.535156 4201.273438 -31.386719 4201.273438 Z M -31.386719 4201.273438 " clip-rule="nonzero"/></clipPath><clipPath id="60f1c21056"><path d="M 639.394531 4398.582031 L 767.964844 4398.582031 L 767.964844 4615 L 639.394531 4615 Z M 639.394531 4398.582031 " clip-rule="nonzero"/></clipPath><clipPath id="6a72832882"><path d="M 747.449219 4614.847656 C 687.957031 4614.847656 639.394531 4566.289062 639.394531 4506.632812 C 639.394531 4447.140625 687.957031 4398.582031 747.449219 4398.582031 C 807.101562 4398.582031 855.5 4447.140625 855.5 4506.632812 C 855.664062 4566.289062 807.101562 4614.847656 747.449219 4614.847656 Z M 747.449219 4458.074219 C 720.757812 4458.074219 698.890625 4479.941406 698.890625 4506.632812 C 698.890625 4533.328125 720.757812 4555.195312 747.449219 4555.195312 C 774.140625 4555.195312 796.007812 4533.328125 796.007812 4506.632812 C 796.007812 4479.941406 774.300781 4458.074219 747.449219 4458.074219 Z M 747.449219 4458.074219 " clip-rule="nonzero"/></clipPath><clipPath id="7e356b1f4a"><path d="M 0.0351562 4512.367188 L 77 4512.367188 L 77 4821 L 0.0351562 4821 Z M 0.0351562 4512.367188 " clip-rule="nonzero"/></clipPath><clipPath id="b0f05d1bc8"><path d="M -77.117188 4820.027344 C -161.753906 4820.027344 -230.832031 4750.945312 -230.832031 4666.082031 C -230.832031 4581.449219 -161.753906 4512.367188 -77.117188 4512.367188 C 7.746094 4512.367188 76.597656 4581.449219 76.597656 4666.082031 C 76.828125 4750.945312 7.746094 4820.027344 -77.117188 4820.027344 Z M -77.117188 4597.003906 C -115.089844 4597.003906 -146.199219 4628.109375 -146.199219 4666.082031 C -146.199219 4704.054688 -115.089844 4735.164062 -77.117188 4735.164062 C -39.144531 4735.164062 -8.035156 4704.054688 -8.035156 4666.082031 C -8.035156 4628.109375 -38.917969 4597.003906 -77.117188 4597.003906 Z M -77.117188 4597.003906 " clip-rule="nonzero"/></clipPath><clipPath id="1314b36289"><path d="M 572.472656 4667.617188 L 767.964844 4667.617188 L 767.964844 5103 L 572.472656 5103 Z M 572.472656 4667.617188 " clip-rule="nonzero"/></clipPath><clipPath id="c669dd7008"><path d="M 789.515625 5102.027344 C 670.015625 5102.027344 572.472656 5004.484375 572.472656 4884.660156 C 572.472656 4765.15625 670.015625 4667.617188 789.515625 4667.617188 C 909.34375 4667.617188 1006.558594 4765.15625 1006.558594 4884.660156 C 1006.882812 5004.484375 909.34375 5102.027344 789.515625 5102.027344 Z M 789.515625 4787.121094 C 735.902344 4787.121094 691.976562 4831.042969 691.976562 4884.660156 C 691.976562 4938.273438 735.902344 4982.199219 789.515625 4982.199219 C 843.132812 4982.199219 887.058594 4938.273438 887.058594 4884.660156 C 887.058594 4831.042969 843.453125 4787.121094 789.515625 4787.121094 Z M 789.515625 4787.121094 " clip-rule="nonzero"/></clipPath><clipPath id="204dace751"><path d="M 0.0351562 3958.578125 L 43.941406 3958.578125 L 43.941406 4046 L 0.0351562 4046 Z M 0.0351562 3958.578125 " clip-rule="nonzero"/></clipPath><clipPath id="86c73af9c5"><path d="M 0 4045.746094 C -23.976562 4045.746094 -43.550781 4026.171875 -43.550781 4002.128906 C -43.550781 3978.152344 -23.976562 3958.578125 0 3958.578125 C 24.042969 3958.578125 43.550781 3978.152344 43.550781 4002.128906 C 43.617188 4026.171875 24.042969 4045.746094 0 4045.746094 Z M 0 3982.558594 C -10.757812 3982.558594 -19.570312 3991.371094 -19.570312 4002.128906 C -19.570312 4012.886719 -10.757812 4021.703125 0 4021.703125 C 10.757812 4021.703125 19.574219 4012.886719 19.574219 4002.128906 C 19.574219 3991.371094 10.824219 3982.558594 0 3982.558594 Z M 0 3982.558594 " clip-rule="nonzero"/></clipPath><clipPath id="b56e4f4118"><path d="M 639.394531 3844.738281 L 767.964844 3844.738281 L 767.964844 4014 L 639.394531 4014 Z M 639.394531 3844.738281 " clip-rule="nonzero"/></clipPath><clipPath id="955caeecd6"><path d="M 723.765625 4013.601562 C 677.3125 4013.601562 639.394531 3975.683594 639.394531 3929.105469 C 639.394531 3882.65625 677.3125 3844.738281 723.765625 3844.738281 C 770.34375 3844.738281 808.132812 3882.65625 808.132812 3929.105469 C 808.257812 3975.683594 770.34375 4013.601562 723.765625 4013.601562 Z M 723.765625 3891.191406 C 702.921875 3891.191406 685.847656 3908.265625 685.847656 3929.105469 C 685.847656 3949.949219 702.921875 3967.023438 723.765625 3967.023438 C 744.605469 3967.023438 761.679688 3949.949219 761.679688 3929.105469 C 761.679688 3908.265625 744.730469 3891.191406 723.765625 3891.191406 Z M 723.765625 3891.191406 " clip-rule="nonzero"/></clipPath><clipPath id="a1db401b07"><path d="M 657.976562 4032.382812 L 767.964844 4032.382812 L 767.964844 4160 L 657.976562 4160 Z M 657.976562 4032.382812 " clip-rule="nonzero"/></clipPath><clipPath id="084c9945b0"><path d="M 721.527344 4159.585938 C 686.535156 4159.585938 657.976562 4131.023438 657.976562 4095.9375 C 657.976562 4060.945312 686.535156 4032.382812 721.527344 4032.382812 C 756.617188 4032.382812 785.082031 4060.945312 785.082031 4095.9375 C 785.175781 4131.023438 756.617188 4159.585938 721.527344 4159.585938 Z M 721.527344 4067.375 C 705.828125 4067.375 692.96875 4080.238281 692.96875 4095.9375 C 692.96875 4111.636719 705.828125 4124.5 721.527344 4124.5 C 737.226562 4124.5 750.089844 4111.636719 750.089844 4095.9375 C 750.089844 4080.238281 737.324219 4067.375 721.527344 4067.375 Z M 721.527344 4067.375 " clip-rule="nonzero"/></clipPath><clipPath id="431bbdd735"><path d="M 657.976562 5189.699219 L 767.964844 5189.699219 L 767.964844 5429.917969 L 657.976562 5429.917969 Z M 657.976562 5189.699219 " clip-rule="nonzero"/></clipPath><clipPath id="d5ef5732cc"><path d="M 777.550781 5429.027344 C 711.714844 5429.027344 657.976562 5375.289062 657.976562 5309.273438 C 657.976562 5243.433594 711.714844 5189.699219 777.550781 5189.699219 C 843.566406 5189.699219 897.128906 5243.433594 897.128906 5309.273438 C 897.304688 5375.289062 843.566406 5429.027344 777.550781 5429.027344 Z M 777.550781 5255.535156 C 748.015625 5255.535156 723.8125 5279.734375 723.8125 5309.273438 C 723.8125 5338.8125 748.015625 5363.011719 777.550781 5363.011719 C 807.089844 5363.011719 831.289062 5338.8125 831.289062 5309.273438 C 831.289062 5279.734375 807.269531 5255.535156 777.550781 5255.535156 Z M 777.550781 5255.535156 " clip-rule="nonzero"/></clipPath><clipPath id="b64aa94010"><path d="M 0.0351562 5201.898438 L 77 5201.898438 L 77 5316.890625 L 0.0351562 5316.890625 Z M 0.0351562 5201.898438 " clip-rule="nonzero"/></clipPath><clipPath id="0a1c253aca"><path d="M 19.5 5316.464844 C -12.015625 5316.464844 -37.742188 5290.738281 -37.742188 5259.136719 C -37.742188 5227.621094 -12.015625 5201.898438 19.5 5201.898438 C 51.101562 5201.898438 76.742188 5227.621094 76.742188 5259.136719 C 76.828125 5290.738281 51.101562 5316.464844 19.5 5316.464844 Z M 19.5 5233.414062 C 5.359375 5233.414062 -6.222656 5244.996094 -6.222656 5259.136719 C -6.222656 5273.277344 5.359375 5284.863281 19.5 5284.863281 C 33.640625 5284.863281 45.226562 5273.277344 45.226562 5259.136719 C 45.226562 5244.996094 33.726562 5233.414062 19.5 5233.414062 Z M 19.5 5233.414062 " clip-rule="nonzero"/></clipPath><clipPath id="6a6df78b41"><path d="M 0.0351562 5002.316406 L 109 5002.316406 L 109 5282 L 0.0351562 5282 Z M 0.0351562 5002.316406 " clip-rule="nonzero"/></clipPath><clipPath id="137eddea8c"><path d="M -31.410156 5281.882812 C -108.316406 5281.882812 -171.089844 5219.109375 -171.089844 5141.996094 C -171.089844 5065.089844 -108.316406 5002.316406 -31.410156 5002.316406 C 45.703125 5002.316406 108.269531 5065.089844 108.269531 5141.996094 C 108.476562 5219.109375 45.703125 5281.882812 -31.410156 5281.882812 Z M -31.410156 5079.222656 C -65.914062 5079.222656 -94.183594 5107.492188 -94.183594 5141.996094 C -94.183594 5176.5 -65.914062 5204.769531 -31.410156 5204.769531 C 3.09375 5204.769531 31.363281 5176.5 31.363281 5141.996094 C 31.363281 5107.492188 3.300781 5079.222656 -31.410156 5079.222656 Z M -31.410156 5079.222656 " clip-rule="nonzero"/></clipPath><clipPath id="39aefd2497"><path d="M 0.0351562 5440.851562 L 77 5440.851562 L 77 5692 L 0.0351562 5692 Z M 0.0351562 5440.851562 " clip-rule="nonzero"/></clipPath><clipPath id="5170dabd46"><path d="M -50.738281 5695.796875 C -120.871094 5695.796875 -178.117188 5638.554688 -178.117188 5568.230469 C -178.117188 5498.097656 -120.871094 5440.851562 -50.738281 5440.851562 C 19.582031 5440.851562 76.636719 5498.097656 76.636719 5568.230469 C 76.828125 5638.554688 19.582031 5695.796875 -50.738281 5695.796875 Z M -50.738281 5510.984375 C -82.203125 5510.984375 -107.984375 5536.765625 -107.984375 5568.230469 C -107.984375 5599.695312 -82.203125 5625.472656 -50.738281 5625.472656 C -19.273438 5625.472656 6.503906 5599.695312 6.503906 5568.230469 C 6.503906 5536.765625 -19.085938 5510.984375 -50.738281 5510.984375 Z M -50.738281 5510.984375 " clip-rule="nonzero"/></clipPath><clipPath id="3720ec5b1d"><path d="M 0.0351562 5636.910156 L 43.941406 5636.910156 L 43.941406 5692 L 0.0351562 5692 Z M 0.0351562 5636.910156 " clip-rule="nonzero"/></clipPath><clipPath id="eaee4f80b0"><path d="M 0 5724.074219 C -23.976562 5724.074219 -43.550781 5704.503906 -43.550781 5680.460938 C -43.550781 5656.480469 -23.976562 5636.910156 0 5636.910156 C 24.042969 5636.910156 43.550781 5656.480469 43.550781 5680.460938 C 43.617188 5704.503906 24.042969 5724.074219 0 5724.074219 Z M 0 5660.890625 C -10.757812 5660.890625 -19.570312 5669.703125 -19.570312 5680.460938 C -19.570312 5691.21875 -10.757812 5700.03125 0 5700.03125 C 10.757812 5700.03125 19.574219 5691.21875 19.574219 5680.460938 C 19.574219 5669.703125 10.824219 5660.890625 0 5660.890625 Z M 0 5660.890625 " clip-rule="nonzero"/></clipPath><clipPath id="6f0af6177e"><path d="M 639.394531 5523.070312 L 767.964844 5523.070312 L 767.964844 5692 L 639.394531 5692 Z M 639.394531 5523.070312 " clip-rule="nonzero"/></clipPath><clipPath id="17d468902e"><path d="M 723.765625 5691.933594 C 677.3125 5691.933594 639.394531 5654.015625 639.394531 5607.4375 C 639.394531 5560.984375 677.3125 5523.070312 723.765625 5523.070312 C 770.34375 5523.070312 808.132812 5560.984375 808.132812 5607.4375 C 808.257812 5654.015625 770.34375 5691.933594 723.765625 5691.933594 Z M 723.765625 5569.523438 C 702.921875 5569.523438 685.847656 5586.597656 685.847656 5607.4375 C 685.847656 5628.277344 702.921875 5645.355469 723.765625 5645.355469 C 744.605469 5645.355469 761.679688 5628.277344 761.679688 5607.4375 C 761.679688 5586.597656 744.730469 5569.523438 723.765625 5569.523438 Z M 723.765625 5569.523438 " clip-rule="nonzero"/></clipPath></defs><g clip-path="url(#3246358a92)"><path fill="#ffffff" d="M 0.0351562 0 L 767.964844 0 L 767.964844 5699.5 L 0.0351562 5699.5 Z M 0.0351562 0 " fill-opacity="1" fill-rule="nonzero"/><path fill="#ffffff" d="M 0.0351562 0 L 767.964844 0 L 767.964844 5692 L 0.0351562 5692 Z M 0.0351562 0 " fill-opacity="1" fill-rule="nonzero"/><path fill="#000000" d="M 0.0351562 0 L 767.964844 0 L 767.964844 5692 L 0.0351562 5692 Z M 0.0351562 0 " fill-opacity="1" fill-rule="nonzero"/></g><g clip-path="url(#750cd64c4e)"><g clip-path="url(#21731f9650)"><path fill="#68faf0" d="M 657.976562 311.476562 L 898.195312 311.476562 L 898.195312 551.695312 L 657.976562 551.695312 Z M 657.976562 311.476562 " fill-opacity="1" fill-rule="nonzero"/></g></g><g clip-path="url(#a22e50c48a)"><g clip-path="url(#a4f42ae752)"><path fill="#49a3a0" d="M -37.742188 323.675781 L 77.253906 323.675781 L 77.253906 438.667969 L -37.742188 438.667969 Z M -37.742188 323.675781 " fill-opacity="1" fill-rule="nonzero"/></g></g><g clip-path="url(#835dc8ae21)"><g clip-path="url(#c170c135de)"><path fill="#68faf0" d="M -171.089844 124.09375 L 109.515625 124.09375 L 109.515625 404.699219 L -171.089844 404.699219 Z M -171.089844 124.09375 " fill-opacity="1" fill-rule="nonzero"/></g></g><g clip-path="url(#2561bb6c8d)"><g clip-path="url(#8e02d1ba2d)"><path fill="#49a3a0" d="M -178.117188 562.632812 L 77.773438 562.632812 L 77.773438 818.523438 L -178.117188 818.523438 Z M -178.117188 562.632812 " fill-opacity="1" fill-rule="nonzero"/></g></g><g clip-path="url(#92dee826c2)"><g clip-path="url(#97f05e0897)"><path fill="#49a3a0" d="M 657.976562 76.792969 L 790.167969 76.792969 L 790.167969 208.984375 L 657.976562 208.984375 Z M 657.976562 76.792969 " fill-opacity="1" fill-rule="nonzero"/></g></g><g clip-path="url(#a1127226cd)"><path fill="#5e666a" d="M -31.304688 -127.632812 L 796.621094 -127.632812 L 796.621094 48.75 L -31.304688 48.75 Z M -31.304688 -127.632812 " fill-opacity="1" fill-rule="nonzero"/></g><g clip-path="url(#ea169f916e)"><g clip-path="url(#0c6e24ed8c)"><path fill="#68faf0" d="M -127.4375 1254.828125 L 84.828125 1254.828125 L 84.828125 1467.09375 L -127.4375 1467.09375 Z M -127.4375 1254.828125 " fill-opacity="1" fill-rule="nonzero"/></g></g><g clip-path="url(#4bcf669b25)"><g clip-path="url(#11e02299db)"><path fill="#49a3a0" d="M 657.976562 1094.695312 L 827.464844 1094.695312 L 827.464844 1264.1875 L 657.976562 1264.1875 Z M 657.976562 1094.695312 " fill-opacity="1" fill-rule="nonzero"/></g></g><g clip-path="url(#6cdacb1dcb)"><g clip-path="url(#6b038fb8b9)"><path fill="#68faf0" d="M -139.4375 941.890625 L 77.632812 941.890625 L 77.632812 1158.960938 L -139.4375 1158.960938 Z M -139.4375 941.890625 " fill-opacity="1" fill-rule="nonzero"/></g></g><g clip-path="url(#bad8349ab0)"><g clip-path="url(#975570813b)"><path fill="#68faf0" d="M 639.394531 1198.691406 L 856.464844 1198.691406 L 856.464844 1415.761719 L 639.394531 1415.761719 Z M 639.394531 1198.691406 " fill-opacity="1" fill-rule="nonzero"/></g></g><g clip-path="url(#6c5fe02d92)"><g clip-path="url(#ef30f68853)"><path fill="#49a3a0" d="M -230.832031 1312.476562 L 77.972656 1312.476562 L 77.972656 1621.28125 L -230.832031 1621.28125 Z M -230.832031 1312.476562 " fill-opacity="1" fill-rule="nonzero"/></g></g><g clip-path="url(#11c65bbddc)"><g clip-path="url(#a446a1f76b)"><path fill="#68faf0" d="M -119.066406 1684.929688 L 77.554688 1684.929688 L 77.554688 1881.550781 L -119.066406 1881.550781 Z M -119.066406 1684.929688 " fill-opacity="1" fill-rule="nonzero"/></g></g><g clip-path="url(#8a37f0615e)"><g clip-path="url(#f4554148b9)"><path fill="#49a3a0" d="M 572.472656 1467.726562 L 1008.496094 1467.726562 L 1008.496094 1903.75 L 572.472656 1903.75 Z M 572.472656 1467.726562 " fill-opacity="1" fill-rule="nonzero"/></g></g><g clip-path="url(#4fbd6b83e2)"><g clip-path="url(#838b5b883b)"><path fill="#68faf0" d="M -43.550781 758.6875 L 43.941406 758.6875 L 43.941406 846.179688 L -43.550781 846.179688 Z M -43.550781 758.6875 " fill-opacity="1" fill-rule="nonzero"/></g></g><g clip-path="url(#324424234f)"><g clip-path="url(#201192781e)"><path fill="#49a3a0" d="M 639.394531 644.847656 L 808.886719 644.847656 L 808.886719 814.339844 L 639.394531 814.339844 Z M 639.394531 644.847656 " fill-opacity="1" fill-rule="nonzero"/></g></g><g clip-path="url(#a741ab66b9)"><g clip-path="url(#1bb0b4c111)"><path fill="#68faf0" d="M 657.976562 832.492188 L 785.648438 832.492188 L 785.648438 960.167969 L 657.976562 960.167969 Z M 657.976562 832.492188 " fill-opacity="1" fill-rule="nonzero"/></g></g><g clip-path="url(#db1465cce4)"><g clip-path="url(#637b001d00)"><path fill="#68faf0" d="M 657.976562 2189.613281 L 898.195312 2189.613281 L 898.195312 2429.832031 L 657.976562 2429.832031 Z M 657.976562 2189.613281 " fill-opacity="1" fill-rule="nonzero"/></g></g><g clip-path="url(#f61dec7551)"><g clip-path="url(#a75bd6187a)"><path fill="#49a3a0" d="M -37.742188 2201.8125 L 77.253906 2201.8125 L 77.253906 2316.804688 L -37.742188 2316.804688 Z M -37.742188 2201.8125 " fill-opacity="1" fill-rule="nonzero"/></g></g><g clip-path="url(#5c6f3e2f3f)"><g clip-path="url(#2c445a360a)"><path fill="#68faf0" d="M -171.089844 2002.230469 L 109.515625 2002.230469 L 109.515625 2282.835938 L -171.089844 2282.835938 Z M -171.089844 2002.230469 " fill-opacity="1" fill-rule="nonzero"/></g></g><g clip-path="url(#be42827911)"><g clip-path="url(#861c8568e4)"><path fill="#49a3a0" d="M -178.117188 2440.769531 L 77.773438 2440.769531 L 77.773438 2696.660156 L -178.117188 2696.660156 Z M -178.117188 2440.769531 " fill-opacity="1" fill-rule="nonzero"/></g></g><g clip-path="url(#be78535116)"><g clip-path="url(#86c9cc3b14)"><path fill="#49a3a0" d="M 657.976562 1954.929688 L 790.167969 1954.929688 L 790.167969 2087.121094 L 657.976562 2087.121094 Z M 657.976562 1954.929688 " fill-opacity="1" fill-rule="nonzero"/></g></g><g clip-path="url(#8c5ea15fb0)"><g clip-path="url(#42b9189980)"><path fill="#49a3a0" d="M 657.976562 2972.832031 L 827.464844 2972.832031 L 827.464844 3142.324219 L 657.976562 3142.324219 Z M 657.976562 2972.832031 " fill-opacity="1" fill-rule="nonzero"/></g></g><g clip-path="url(#c02f7a5e67)"><g clip-path="url(#0b5178c065)"><path fill="#68faf0" d="M -139.4375 2820.027344 L 77.632812 2820.027344 L 77.632812 3037.097656 L -139.4375 3037.097656 Z M -139.4375 2820.027344 " fill-opacity="1" fill-rule="nonzero"/></g></g><g clip-path="url(#f01873e332)"><g clip-path="url(#adc7e42eab)"><path fill="#68faf0" d="M -43.550781 2636.824219 L 43.941406 2636.824219 L 43.941406 2724.316406 L -43.550781 2724.316406 Z M -43.550781 2636.824219 " fill-opacity="1" fill-rule="nonzero"/></g></g><g clip-path="url(#78b6427ef0)"><g clip-path="url(#485abd76ce)"><path fill="#49a3a0" d="M 639.394531 2522.984375 L 808.886719 2522.984375 L 808.886719 2692.476562 L 639.394531 2692.476562 Z M 639.394531 2522.984375 " fill-opacity="1" fill-rule="nonzero"/></g></g><g clip-path="url(#6854d7fea6)"><g clip-path="url(#e68172a2fb)"><path fill="#68faf0" d="M 657.976562 2710.628906 L 785.648438 2710.628906 L 785.648438 2838.304688 L 657.976562 2838.304688 Z M 657.976562 2710.628906 " fill-opacity="1" fill-rule="nonzero"/></g></g><g clip-path="url(#e73d3cea29)"><g clip-path="url(#f035cc8c1e)"><path fill="#68faf0" d="M 657.976562 3511.367188 L 898.195312 3511.367188 L 898.195312 3751.585938 L 657.976562 3751.585938 Z M 657.976562 3511.367188 " fill-opacity="1" fill-rule="nonzero"/></g></g><g clip-path="url(#32b115b841)"><g clip-path="url(#31e3977bb5)"><path fill="#49a3a0" d="M -37.742188 3523.566406 L 77.253906 3523.566406 L 77.253906 3638.558594 L -37.742188 3638.558594 Z M -37.742188 3523.566406 " fill-opacity="1" fill-rule="nonzero"/></g></g><g clip-path="url(#8aa3562257)"><g clip-path="url(#dde8ea90e2)"><path fill="#68faf0" d="M -171.089844 3323.984375 L 109.515625 3323.984375 L 109.515625 3604.589844 L -171.089844 3604.589844 Z M -171.089844 3323.984375 " fill-opacity="1" fill-rule="nonzero"/></g></g><g clip-path="url(#ccd96cc785)"><g clip-path="url(#6094d7ce80)"><path fill="#49a3a0" d="M -178.117188 3762.523438 L 77.773438 3762.523438 L 77.773438 4018.414062 L -178.117188 4018.414062 Z M -178.117188 3762.523438 " fill-opacity="1" fill-rule="nonzero"/></g></g><g clip-path="url(#14e14a31c7)"><g clip-path="url(#78e1891a86)"><path fill="#49a3a0" d="M 657.976562 3276.683594 L 790.167969 3276.683594 L 790.167969 3408.875 L 657.976562 3408.875 Z M 657.976562 3276.683594 " fill-opacity="1" fill-rule="nonzero"/></g></g><g clip-path="url(#03ca30eb4c)"><g clip-path="url(#5e95858fa9)"><path fill="#68faf0" d="M -127.4375 4454.71875 L 84.828125 4454.71875 L 84.828125 4666.984375 L -127.4375 4666.984375 Z M -127.4375 4454.71875 " fill-opacity="1" fill-rule="nonzero"/></g></g><g clip-path="url(#67269881de)"><g clip-path="url(#1efb20ed65)"><path fill="#49a3a0" d="M 657.976562 4294.585938 L 827.464844 4294.585938 L 827.464844 4464.078125 L 657.976562 4464.078125 Z M 657.976562 4294.585938 " fill-opacity="1" fill-rule="nonzero"/></g></g><g clip-path="url(#4f33bb1354)"><g clip-path="url(#2ecc123684)"><path fill="#68faf0" d="M -139.4375 4141.78125 L 77.632812 4141.78125 L 77.632812 4358.851562 L -139.4375 4358.851562 Z M -139.4375 4141.78125 " fill-opacity="1" fill-rule="nonzero"/></g></g><g clip-path="url(#60f1c21056)"><g clip-path="url(#6a72832882)"><path fill="#68faf0" d="M 639.394531 4398.582031 L 856.464844 4398.582031 L 856.464844 4615.652344 L 639.394531 4615.652344 Z M 639.394531 4398.582031 " fill-opacity="1" fill-rule="nonzero"/></g></g><g clip-path="url(#7e356b1f4a)"><g clip-path="url(#b0f05d1bc8)"><path fill="#49a3a0" d="M -230.832031 4512.367188 L 77.972656 4512.367188 L 77.972656 4821.171875 L -230.832031 4821.171875 Z M -230.832031 4512.367188 " fill-opacity="1" fill-rule="nonzero"/></g></g><g clip-path="url(#1314b36289)"><g clip-path="url(#c669dd7008)"><path fill="#49a3a0" d="M 572.472656 4667.617188 L 1008.496094 4667.617188 L 1008.496094 5103.640625 L 572.472656 5103.640625 Z M 572.472656 4667.617188 " fill-opacity="1" fill-rule="nonzero"/></g></g><g clip-path="url(#204dace751)"><g clip-path="url(#86c73af9c5)"><path fill="#68faf0" d="M -43.550781 3958.578125 L 43.941406 3958.578125 L 43.941406 4046.070312 L -43.550781 4046.070312 Z M -43.550781 3958.578125 " fill-opacity="1" fill-rule="nonzero"/></g></g><g clip-path="url(#b56e4f4118)"><g clip-path="url(#955caeecd6)"><path fill="#49a3a0" d="M 639.394531 3844.738281 L 808.886719 3844.738281 L 808.886719 4014.230469 L 639.394531 4014.230469 Z M 639.394531 3844.738281 " fill-opacity="1" fill-rule="nonzero"/></g></g><g clip-path="url(#a1db401b07)"><g clip-path="url(#084c9945b0)"><path fill="#68faf0" d="M 657.976562 4032.382812 L 785.648438 4032.382812 L 785.648438 4160.058594 L 657.976562 4160.058594 Z M 657.976562 4032.382812 " fill-opacity="1" fill-rule="nonzero"/></g></g><g clip-path="url(#431bbdd735)"><g clip-path="url(#d5ef5732cc)"><path fill="#68faf0" d="M 657.976562 5189.699219 L 898.195312 5189.699219 L 898.195312 5429.917969 L 657.976562 5429.917969 Z M 657.976562 5189.699219 " fill-opacity="1" fill-rule="nonzero"/></g></g><g clip-path="url(#b64aa94010)"><g clip-path="url(#0a1c253aca)"><path fill="#49a3a0" d="M -37.742188 5201.898438 L 77.253906 5201.898438 L 77.253906 5316.890625 L -37.742188 5316.890625 Z M -37.742188 5201.898438 " fill-opacity="1" fill-rule="nonzero"/></g></g><g clip-path="url(#6a6df78b41)"><g clip-path="url(#137eddea8c)"><path fill="#68faf0" d="M -171.089844 5002.316406 L 109.515625 5002.316406 L 109.515625 5282.921875 L -171.089844 5282.921875 Z M -171.089844 5002.316406 " fill-opacity="1" fill-rule="nonzero"/></g></g><g clip-path="url(#39aefd2497)"><g clip-path="url(#5170dabd46)"><path fill="#49a3a0" d="M -178.117188 5440.851562 L 77.773438 5440.851562 L 77.773438 5696.746094 L -178.117188 5696.746094 Z M -178.117188 5440.851562 " fill-opacity="1" fill-rule="nonzero"/></g></g><g clip-path="url(#3720ec5b1d)"><g clip-path="url(#eaee4f80b0)"><path fill="#68faf0" d="M -43.550781 5636.910156 L 43.941406 5636.910156 L 43.941406 5724.398438 L -43.550781 5724.398438 Z M -43.550781 5636.910156 " fill-opacity="1" fill-rule="nonzero"/></g></g><g clip-path="url(#6f0af6177e)"><g clip-path="url(#17d468902e)"><path fill="#49a3a0" d="M 639.394531 5523.070312 L 808.886719 5523.070312 L 808.886719 5692.558594 L 639.394531 5692.558594 Z M 639.394531 5523.070312 " fill-opacity="1" fill-rule="nonzero"/></g></g></svg>