<svg xmlns="http://www.w3.org/2000/svg" xmlns:xlink="http://www.w3.org/1999/xlink" width="1920" zoomAndPan="magnify" viewBox="0 0 1440 809.999993" height="1080" preserveAspectRatio="xMidYMid meet" version="1.0"><defs><clipPath id="a00b346832"><path d="M 0 0 L 848 0 L 848 69 L 0 69 Z M 0 0 " clip-rule="nonzero"/></clipPath><clipPath id="3415ea7021"><path d="M 591.164062 -175.984375 L 141.613281 -175.984375 L 107.898438 -175.691406 L -149.722656 69.121094 L 592.527344 69.121094 L 847.878906 -175.984375 L 591.164062 -175.984375 " clip-rule="nonzero"/></clipPath><clipPath id="6aed9e7247"><path d="M 535.433594 142.699219 L 618 142.699219 L 618 225.398438 L 535.433594 225.398438 Z M 535.433594 142.699219 " clip-rule="nonzero"/></clipPath><clipPath id="ee8f09883e"><path d="M 576.597656 225.089844 C 553.929688 225.089844 535.433594 206.589844 535.433594 183.863281 C 535.433594 161.199219 553.929688 142.699219 576.597656 142.699219 C 599.324219 142.699219 617.761719 161.199219 617.761719 183.863281 C 617.824219 206.589844 599.324219 225.089844 576.597656 225.089844 Z M 576.597656 165.363281 C 566.429688 165.363281 558.097656 173.695312 558.097656 183.863281 C 558.097656 194.035156 566.429688 202.363281 576.597656 202.363281 C 586.765625 202.363281 595.097656 194.035156 595.097656 183.863281 C 595.097656 173.695312 586.828125 165.363281 576.597656 165.363281 Z M 576.597656 165.363281 " clip-rule="nonzero"/></clipPath><clipPath id="81e75abae4"><path d="M 152.335938 128.878906 L 639 128.878906 L 639 616 L 152.335938 616 Z M 152.335938 128.878906 " clip-rule="nonzero"/></clipPath><clipPath id="7175aa96df"><path d="M 395.535156 615.640625 C 261.632812 615.640625 152.335938 506.34375 152.335938 372.078125 C 152.335938 238.175781 261.632812 128.878906 395.535156 128.878906 C 529.800781 128.878906 638.734375 238.175781 638.734375 372.078125 C 639.097656 506.34375 529.800781 615.640625 395.535156 615.640625 Z M 395.535156 262.785156 C 335.460938 262.785156 286.242188 312.003906 286.242188 372.078125 C 286.242188 432.15625 335.460938 481.375 395.535156 481.375 C 455.609375 481.375 504.832031 432.15625 504.832031 372.078125 C 504.832031 312.003906 455.972656 262.785156 395.535156 262.785156 Z M 395.535156 262.785156 " clip-rule="nonzero"/></clipPath><clipPath id="00ab399913"><path d="M 1284.167969 604.429688 L 1440 604.429688 L 1440 810 L 1284.167969 810 Z M 1284.167969 604.429688 " clip-rule="nonzero"/></clipPath><clipPath id="acfa504309"><path d="M 1420.273438 876.847656 C 1345.332031 876.847656 1284.167969 815.683594 1284.167969 740.539062 C 1284.167969 665.597656 1345.332031 604.429688 1420.273438 604.429688 C 1495.417969 604.429688 1556.382812 665.597656 1556.382812 740.539062 C 1556.585938 815.683594 1495.417969 876.847656 1420.273438 876.847656 Z M 1420.273438 679.371094 C 1386.652344 679.371094 1359.105469 706.917969 1359.105469 740.539062 C 1359.105469 774.160156 1386.652344 801.707031 1420.273438 801.707031 C 1453.894531 801.707031 1481.441406 774.160156 1481.441406 740.539062 C 1481.441406 706.917969 1454.097656 679.371094 1420.273438 679.371094 Z M 1420.273438 679.371094 " clip-rule="nonzero"/></clipPath><clipPath id="05e129d5ff"><path d="M 33.800781 432.609375 L 310 432.609375 L 310 709 L 33.800781 709 Z M 33.800781 432.609375 " clip-rule="nonzero"/></clipPath><clipPath id="9a1a63d453"><path d="M 171.53125 708.273438 C 95.699219 708.273438 33.800781 646.375 33.800781 570.339844 C 33.800781 494.503906 95.699219 432.609375 171.53125 432.609375 C 247.570312 432.609375 309.261719 494.503906 309.261719 570.339844 C 309.46875 646.375 247.570312 708.273438 171.53125 708.273438 Z M 171.53125 508.441406 C 137.507812 508.441406 109.636719 536.316406 109.636719 570.339844 C 109.636719 604.359375 137.507812 632.234375 171.53125 632.234375 C 205.554688 632.234375 233.429688 604.359375 233.429688 570.339844 C 233.429688 536.316406 205.761719 508.441406 171.53125 508.441406 Z M 171.53125 508.441406 " clip-rule="nonzero"/></clipPath></defs><rect x="-144" width="1728" fill="#ffffff" y="-80.999999" height="971.999992" fill-opacity="1"/><rect x="-144" width="1728" fill="#ffffff" y="-80.999999" height="971.999992" fill-opacity="1"/><rect x="-144" width="1728" fill="#000000" y="-80.999999" height="971.999992" fill-opacity="1"/><g clip-path="url(#a00b346832)"><g clip-path="url(#3415ea7021)"><path fill="#5e666a" d="M -149.722656 -175.984375 L 847.679688 -175.984375 L 847.679688 68.972656 L -149.722656 68.972656 Z M -149.722656 -175.984375 " fill-opacity="1" fill-rule="nonzero"/></g></g><g clip-path="url(#6aed9e7247)"><g clip-path="url(#ee8f09883e)"><path fill="#49a3a0" d="M 535.433594 142.699219 L 618.128906 142.699219 L 618.128906 225.398438 L 535.433594 225.398438 Z M 535.433594 142.699219 " fill-opacity="1" fill-rule="nonzero"/></g></g><g clip-path="url(#81e75abae4)"><g clip-path="url(#7175aa96df)"><path fill="#68faf0" d="M 152.335938 128.878906 L 640.90625 128.878906 L 640.90625 617.449219 L 152.335938 617.449219 Z M 152.335938 128.878906 " fill-opacity="1" fill-rule="nonzero"/></g></g><g clip-path="url(#00ab399913)"><g clip-path="url(#acfa504309)"><path fill="#68faf0" d="M 1284.167969 604.429688 L 1557.597656 604.429688 L 1557.597656 877.863281 L 1284.167969 877.863281 Z M 1284.167969 604.429688 " fill-opacity="1" fill-rule="nonzero"/></g></g><g clip-path="url(#05e129d5ff)"><g clip-path="url(#9a1a63d453)"><path fill="#49a3a0" d="M 33.800781 432.609375 L 310.492188 432.609375 L 310.492188 709.296875 L 33.800781 709.296875 Z M 33.800781 432.609375 " fill-opacity="1" fill-rule="nonzero"/></g></g></svg>